<?xml version="1.0" encoding="UTF-8" standalone="no"?>
<!-- Created with Inkscape (http://www.inkscape.org/) -->

<svg
   width="180mm"
   height="18mm"
   viewBox="0 0 180 18"
   version="1.1"
   id="svg1"
   inkscape:version="1.4 (86a8ad7, 2024-10-11)"
   sodipodi:docname="footer.svg"
   xmlns:inkscape="http://www.inkscape.org/namespaces/inkscape"
   xmlns:sodipodi="http://sodipodi.sourceforge.net/DTD/sodipodi-0.dtd"
   xmlns="http://www.w3.org/2000/svg"
   xmlns:svg="http://www.w3.org/2000/svg">
  <sodipodi:namedview
     id="namedview1"
     pagecolor="#505050"
     bordercolor="#ffffff"
     borderopacity="1"
     inkscape:showpageshadow="0"
     inkscape:pageopacity="0"
     inkscape:pagecheckerboard="1"
     inkscape:deskcolor="#505050"
     inkscape:document-units="mm"
     inkscape:zoom="1.4378367"
     inkscape:cx="197.8667"
     inkscape:cy="-87.979393"
     inkscape:window-width="1920"
     inkscape:window-height="1009"
     inkscape:window-x="1912"
     inkscape:window-y="-8"
     inkscape:window-maximized="1"
     inkscape:current-layer="layer1" />
  <defs
     id="defs1" />
  <g
     inkscape:label="Ebene 1"
     inkscape:groupmode="layer"
     id="layer1"
     transform="translate(-15,-139.5)">
    <g
       id="g6">
      <rect
         style="fill:none;fill-opacity:1;stroke:none;stroke-width:8.39763;stroke-linecap:square;stroke-linejoin:round;stroke-dasharray:none;stroke-opacity:1;paint-order:stroke fill markers"
         id="rect1"
         width="180"
         height="18"
         x="15"
         y="139.5" />
      <path
         id="path2"
         style="fill:#f2f2f2;fill-opacity:1;stroke:none;stroke-width:1.13788;stroke-dasharray:none;stroke-opacity:1;paint-order:stroke markers fill"
         d="M 56.470854 139.5 L 56.509611 150.99542 L 56.531832 157.49993 L 58.910498 157.49993 C 58.905975 156.01543 58.905608 154.42715 58.909465 152.0951 C 58.919865 146.3766 58.98643 141.21915 59.06036 140.63585 C 59.108025 140.25976 59.209751 139.87453 59.330111 139.5 L 56.470854 139.5 z M 65.57004 139.5 C 64.687 140.40458 62.868266 142.22147 62.8038 142.3205 C 62.22659 143.20725 62.138714 143.86356 62.081364 147.71345 C 62.067764 148.72835 62.053993 149.49262 62.060693 150.05853 L 62.060177 150.05853 C 62.077177 151.75645 62.246685 151.66203 62.881315 151.13598 C 63.536975 150.59269 63.675697 150.1777 63.682817 148.74285 C 63.693217 146.41761 63.311226 146.92306 70.507206 139.71859 L 70.725798 139.5 L 65.57004 139.5 z M 83.039258 139.5 C 85.047688 141.50023 87.232367 143.67405 87.801241 144.22891 C 88.533731 144.94332 89.433739 145.95436 89.799569 146.47477 C 90.165399 146.99528 90.527177 147.42045 90.604687 147.42045 C 90.797857 147.42045 90.787382 143.02719 90.594352 142.30448 C 90.51714 142.01786 89.690665 141.10003 88.144373 139.5 L 83.039258 139.5 z M 93.344572 139.5 L 93.380745 146.04327 L 93.42312 153.29347 L 92.670194 153.77458 C 91.363605 154.61041 90.985106 156.12864 91.686792 157.49993 L 94.14504 157.49993 C 93.738783 157.4594 93.042021 156.91635 92.917725 156.5248 C 92.897325 156.4616 92.886818 156.39512 92.880518 156.32688 L 92.881034 156.32688 C 92.847134 155.84985 93.169621 155.28441 93.638611 155.06184 C 93.910586 154.93284 94.154854 154.88104 94.388953 154.90888 C 94.623051 154.93672 94.846923 155.04449 95.078833 155.23392 C 95.415603 155.5089 95.575641 156.30543 95.384241 156.75321 C 95.230321 157.11352 94.69644 157.46124 94.273197 157.49993 L 96.7547 157.49993 C 96.777138 157.45464 96.81123 157.42156 96.831698 157.37436 C 97.333418 156.21745 96.994374 154.74104 96.038464 153.91824 L 95.575444 153.51982 L 95.670011 149.38312 C 95.776494 144.71213 95.797405 141.38939 95.742358 139.5 L 93.344572 139.5 z M 105.65028 139.5 C 106.14563 140.06108 107.31277 141.26543 111.69746 145.6898 C 113.85608 147.86798 115.71759 149.64925 115.83416 149.64925 L 115.83416 149.6508 C 116.11491 149.6508 118.27839 147.54008 118.22729 147.31606 C 118.17436 147.08471 112.22297 141.10151 110.49185 139.5 L 105.65028 139.5 z M 117.2413 139.5 C 117.19128 139.56055 116.85528 139.88921 116.85528 139.90204 C 116.85528 139.98694 117.28207 140.47747 117.80251 140.99345 L 118.74819 141.93034 L 121.21005 139.5 L 117.2413 139.5 z M 128.14296 139.5 C 127.07305 140.52581 125.72736 141.8463 123.20787 144.36069 C 118.88051 148.6793 116.48577 151.16496 116.54832 151.27603 C 116.64753 151.45205 119.68282 154.51492 122.66165 157.49993 L 127.88562 157.49993 L 121.56921 151.19024 L 126.36013 146.39054 C 128.99518 143.75073 131.73525 140.99161 132.44968 140.25913 C 132.68816 140.01461 132.97234 139.75575 133.24756 139.5 L 128.14296 139.5 z M 139.91072 139.5 C 138.38456 140.77367 128.07062 150.90005 128.07062 151.14632 C 128.07062 151.30736 131.35229 154.65785 134.21081 157.49993 L 136.1709 157.49993 C 135.56794 156.9106 135.16231 156.53082 134.25835 155.62511 C 131.91701 153.27923 130.02444 151.2917 130.05293 151.20781 C 130.14963 150.91994 140.46054 140.65909 140.88947 140.42397 C 141.26494 140.21824 141.93951 140.1852 146.29638 140.15939 C 149.03356 140.14239 151.44134 140.16628 151.64696 140.20848 C 151.8812 140.25808 152.04976 140.40628 152.09964 140.60484 C 152.21335 141.05791 153.20864 142.03768 153.81013 142.28898 C 154.44686 142.55514 155.54939 142.56356 156.16089 142.30965 C 156.41585 142.20312 156.87886 141.86766 157.18874 141.56396 C 157.77857 140.98579 158.03816 140.23982 158.03106 139.5 L 156.30869 139.5 C 156.3043 139.66123 156.28018 139.82738 156.20792 140.00023 C 155.98659 140.52988 155.75995 140.7437 155.29945 140.85651 C 155.21625 140.87701 155.13531 140.89071 155.05553 140.89371 L 155.05553 140.89526 C 154.22588 140.9533 153.61633 140.24247 153.61479 139.5 L 139.91072 139.5 z M 161.9962 139.5 L 162.00033 140.68546 L 162.03134 149.8141 L 162.30935 150.70242 C 162.58489 151.58423 163.10932 152.55411 163.64416 153.17255 C 164.07386 153.66939 165.12303 154.42533 165.83575 154.75127 C 167.10454 155.33146 168.12714 155.45148 171.79663 155.45148 C 175.40736 155.45148 175.80584 155.39808 176.87539 154.77142 C 177.59588 154.34918 178.26313 153.34704 178.44894 152.40774 C 178.55583 151.86788 178.57044 143.58913 178.46444 143.20933 C 178.41264 143.02236 178.2658 142.90001 177.98178 142.80626 C 177.61561 142.68534 177.54242 142.69488 177.26193 142.89462 L 176.94877 143.11683 L 176.94774 147.43182 C 176.94574 152.59909 176.92164 152.73063 175.91318 153.39941 L 175.40933 153.73272 L 171.75012 153.72962 C 167.89719 153.72462 167.45922 153.68292 166.40575 153.20562 C 165.7359 152.90218 164.8192 152.05102 164.47046 151.4078 C 163.82077 150.20948 163.82454 150.25826 163.83898 141.52778 C 163.84083 140.51585 163.85991 140.42816 163.86585 139.5 L 161.9962 139.5 z M 166.25692 139.5 C 166.25643 139.63434 166.25145 139.85523 166.25278 139.96819 L 166.25227 139.96819 C 166.26527 141.26881 166.39504 141.1959 166.88117 140.79294 C 167.26775 140.47262 167.3873 140.1049 167.43927 139.5 L 166.25692 139.5 z M 170.21016 139.5 C 170.11729 139.60596 169.83486 139.89353 169.82052 139.92375 C 169.6801 140.21989 169.64561 140.67372 169.64431 142.31275 C 169.64354 143.42601 169.6161 144.44011 169.5823 144.56636 C 169.547 144.69847 169.3394 144.87656 169.09447 144.987 C 168.32645 145.33332 167.87559 146.07632 167.82995 146.87939 L 167.83201 146.87939 C 167.80471 147.36126 167.92403 147.86481 168.20822 148.31858 C 168.64421 149.01506 169.2628 149.33041 170.19311 149.33041 C 170.8065 149.33041 170.96915 149.28526 171.40802 148.99451 C 172.30461 148.40064 172.66779 147.25354 172.29738 146.19003 C 172.12887 145.70612 171.79922 145.33842 171.18323 144.94928 L 170.72228 144.65938 L 170.72331 142.77939 C 170.72354 141.74581 170.77071 140.731 170.82821 140.52423 C 170.86882 140.37792 171.10401 140.07564 171.63902 139.5 L 170.21016 139.5 z M 183.45225 139.5 C 184.4257 140.49615 185.7915 141.87207 185.84384 141.96755 C 186.00143 142.25516 186.02664 142.77203 186.04641 146.10942 C 186.05941 148.20611 186.0419 150.05037 186.0092 150.20787 C 185.9712 150.3873 185.85744 150.51641 185.70534 150.55462 C 185.35829 150.64172 184.60748 151.40387 184.41498 151.86462 C 184.2111 152.35236 184.20496 153.19713 184.39948 153.66554 C 184.48108 153.86084 184.73787 154.21572 184.9705 154.45309 C 186.18356 155.69064 188.36073 155.07032 188.76562 153.37254 C 188.99471 152.41129 188.79893 151.68906 188.14189 151.07345 C 187.87259 150.82121 187.54205 150.58695 187.40705 150.55307 L 187.16107 150.49158 L 187.12851 146.23292 L 187.09647 141.97427 L 186.82775 141.52003 C 186.74471 141.37972 185.97183 140.55528 184.96069 139.5 L 183.45225 139.5 z M 190.25959 139.5 L 190.27664 142.44607 L 189.69993 142.81401 C 188.63838 143.49309 188.36413 144.76233 189.04261 145.8593 C 189.96319 147.3477 192.18935 147.18104 192.88733 145.57146 C 193.27165 144.68526 193.01237 143.55487 192.28014 142.9246 L 191.92512 142.61919 L 191.99695 139.5 L 190.25959 139.5 z M 76.914567 139.85037 C 76.641967 139.85037 66.96233 149.48646 66.71829 150.00065 C 66.53498 150.38725 66.49003 150.98014 66.48833 153.11984 C 66.48733 154.57318 66.451815 155.89696 66.407715 156.06178 C 66.361615 156.23424 66.090811 156.46692 65.771061 156.6111 C 65.322475 156.81338 64.970845 157.12976 64.698258 157.49993 L 69.572896 157.49993 C 69.323759 157.17214 68.985744 156.87044 68.49751 156.56201 L 67.895996 156.18322 L 67.89703 153.72859 C 67.89733 152.37928 67.958345 151.05503 68.033455 150.7851 C 68.138025 150.40834 69.159944 149.30659 72.435254 146.03759 C 74.781134 143.69625 76.768665 141.80418 76.852555 141.83267 C 77.140425 141.92937 87.401273 152.24029 87.636393 152.66922 C 87.828 153.01892 87.866502 153.89818 87.892192 157.49993 L 89.308126 157.49993 L 89.271952 152.67801 L 88.921069 152.08476 C 88.529259 151.42277 77.172437 139.85037 76.914567 139.85037 z M 38.486422 142.61351 C 34.875692 142.61351 34.477729 142.66639 33.408179 143.29305 C 32.687689 143.71529 32.020451 144.71795 31.834631 145.65725 C 31.727741 146.19711 31.712612 154.47585 31.818612 154.85565 C 31.870412 155.04262 32.01725 155.16498 32.30127 155.25873 C 32.66744 155.37965 32.741149 155.36958 33.021639 155.16984 L 33.334798 154.94815 L 33.335315 150.63317 C 33.337315 145.4659 33.361934 145.33384 34.370394 144.66506 L 34.874239 144.33175 L 38.533447 144.33485 C 42.386377 144.33985 42.824354 144.38155 43.877824 144.85885 C 44.547674 145.16229 45.46385 146.01397 45.81259 146.65719 C 46.46228 147.85551 46.459032 147.80621 46.444592 156.53669 C 46.443714 157.01738 46.433539 157.03365 46.431673 157.49993 L 48.28324 157.49993 L 48.282723 157.37901 L 48.251717 148.25089 L 47.973698 147.36257 C 47.698158 146.48076 47.174252 145.51088 46.639412 144.89244 C 46.209712 144.3956 45.160535 143.63914 44.447815 143.3132 C 43.179025 142.73301 42.155912 142.61351 38.486422 142.61351 z M 23.685258 142.96232 C 22.715725 142.99111 21.770488 143.63134 21.517432 144.69245 C 21.288342 145.6537 21.484126 146.37592 22.141166 146.99153 C 22.410466 147.24377 22.741005 147.47752 22.876005 147.5114 L 23.122502 147.57341 L 23.154541 151.83206 L 23.18658 156.09072 L 23.455298 156.54495 C 23.497989 156.61708 23.995201 157.13918 24.329146 157.49993 L 25.798307 157.49993 C 25.418633 157.10211 24.468961 156.1517 24.439217 156.09744 C 24.281627 155.80983 24.256416 155.29296 24.236646 151.95557 C 24.223646 149.85888 24.241669 148.01461 24.274369 147.85711 C 24.312369 147.67768 24.426127 147.54857 24.578227 147.51036 C 24.925277 147.42326 25.67557 146.6606 25.86807 146.19985 C 26.07195 145.71211 26.078093 144.86785 25.883573 144.39944 C 25.801973 144.20414 25.545179 143.84926 25.312549 143.61189 C 24.857651 143.14781 24.266978 142.94505 23.685258 142.96232 z M 191.01613 143.68321 C 191.19545 143.70453 191.36713 143.78718 191.54478 143.93229 C 191.80275 144.14293 191.92548 144.75304 191.77887 145.09604 C 191.65404 145.38825 191.19986 145.67895 190.86885 145.67895 C 190.56486 145.67895 189.98794 145.23282 189.88907 144.92137 C 189.87347 144.87297 189.86606 144.82172 189.86116 144.76945 C 189.83516 144.40404 190.08224 143.971 190.44149 143.80051 C 190.64982 143.70169 190.83681 143.66188 191.01613 143.68321 z M 23.734867 144.27749 C 23.8568 144.28144 23.984657 144.30869 24.115206 144.36327 C 24.520926 144.53281 24.68457 144.7066 24.77098 145.05935 C 24.78668 145.12305 24.796585 145.18479 24.798885 145.2459 L 24.800435 145.2459 C 24.864435 146.16136 23.707728 146.75097 23.014498 146.05774 C 22.30993 145.35319 22.881335 144.2498 23.734867 144.27749 z M 170.25099 146.00555 C 170.44307 146.03361 170.63766 146.12546 170.81633 146.29752 C 171.16029 146.62875 171.26885 146.91855 171.16721 147.23648 C 170.85897 148.20031 169.76763 148.41895 169.29136 147.61268 C 169.17356 147.41323 169.12263 147.21302 169.12341 147.02409 C 169.12491 146.41011 169.67473 145.92136 170.25099 146.00555 z M 40.090458 148.73458 C 39.477068 148.73458 39.314415 148.77973 38.875545 149.07048 C 37.978955 149.66435 37.615267 150.81145 37.985677 151.87496 C 38.154187 152.35887 38.483831 152.72605 39.099821 153.11519 L 39.560775 153.40561 L 39.560258 155.2856 C 39.560032 156.3007 39.513519 157.26875 39.457422 157.49993 L 40.592753 157.49993 C 40.623623 157.14406 40.638048 156.63069 40.638745 155.75172 C 40.639515 154.63846 40.666957 153.62436 40.700757 153.49811 C 40.736057 153.366 40.943652 153.18842 41.188582 153.07798 C 41.956602 152.73166 42.407465 151.98866 42.453105 151.18559 L 42.451554 151.18559 C 42.478854 150.70372 42.35954 150.20017 42.07535 149.7464 C 41.63936 149.04992 41.020768 148.73458 40.090458 148.73458 z M 40.270292 149.96241 C 40.548171 149.99125 40.813611 150.14944 40.992212 150.45179 C 41.110012 150.65124 41.16094 150.85145 41.16016 151.04038 C 41.15816 151.85902 40.181404 152.45572 39.466724 151.76747 C 39.122764 151.43624 39.014201 151.14592 39.115841 150.82799 C 39.308491 150.2256 39.80716 149.91435 40.270292 149.96241 z M 148.4363 149.96396 C 145.5843 149.95898 142.75847 149.98831 142.51056 150.0575 C 142.26648 150.1251 142.10637 150.31665 141.98398 150.68743 C 141.82612 151.16545 141.83898 151.26177 142.09974 151.62794 L 142.38964 152.0367 L 148.02289 152.03774 C 154.76862 152.04074 154.94056 152.072 155.81363 153.38856 L 156.24874 154.0464 L 156.24564 157.49993 L 158.48116 157.49993 C 158.45993 154.08729 158.33155 153.37281 157.60473 152.1323 C 157.05351 151.19172 155.74485 150.32076 154.51862 150.07817 C 154.16623 150.0084 151.2883 149.96894 148.4363 149.96396 z M 19.519621 151.18456 C 18.664315 151.13902 17.788333 151.58762 17.395719 152.49301 C 17.011399 153.37921 17.271204 154.51012 18.003434 155.14039 L 18.357935 155.44528 L 18.310909 157.49993 L 20.017782 157.49993 L 20.00693 155.61891 L 20.583122 155.25046 C 21.644672 154.57138 21.918926 153.30265 21.240446 152.20568 C 20.837692 151.55451 20.184859 151.21998 19.519621 151.18456 z M 186.68823 151.71269 C 186.89316 151.74061 187.09576 151.83394 187.26907 152.00725 C 188.07429 152.81245 187.21275 154.13832 186.16836 153.70172 C 185.76264 153.53218 185.599 153.35839 185.51259 153.00564 C 185.49689 152.94194 185.48647 152.88019 185.48417 152.81908 L 185.48313 152.81908 C 185.43513 152.13249 186.07345 151.62893 186.68823 151.71269 z M 19.414201 152.38552 C 19.718191 152.38552 20.295116 152.83216 20.393986 153.14361 C 20.409586 153.19201 20.417508 153.24327 20.422408 153.29554 C 20.448408 153.66095 20.200815 154.09398 19.841565 154.26447 C 19.424895 154.46211 19.093563 154.42291 18.738273 154.1327 C 18.480303 153.92206 18.358086 153.31195 18.504696 152.96895 C 18.629526 152.67674 19.083191 152.38552 19.414201 152.38552 z M 115.9835 152.76792 C 115.87794 152.8036 113.48574 155.19168 111.18896 157.49993 L 116.29563 157.49993 C 117.45467 156.30431 118.39731 155.30858 118.39731 155.22049 C 118.39731 155.12889 117.87767 154.53057 117.24285 153.8924 C 116.60798 153.25425 116.04163 152.74823 115.9835 152.76792 z M 76.860824 153.66451 C 76.73122 153.68059 76.615511 153.7491 76.432426 153.87948 L 76.023665 154.16939 L 76.023149 157.49993 L 78.083488 157.49993 C 78.070715 155.84172 78.048206 154.45276 78.002873 154.29031 C 77.935273 154.04623 77.743717 153.88612 77.372937 153.76373 C 77.133927 153.6848 76.990428 153.64844 76.860824 153.66451 z M 43.811161 157.01263 C 43.716456 157.01582 43.584183 157.12042 43.401884 157.27153 C 43.308638 157.34879 43.241825 157.42383 43.173991 157.49993 L 43.993062 157.49993 C 43.962336 157.19688 43.913524 157.00918 43.811161 157.01263 z " />
      <path
         id="path66"
         style="fill:#b3b3b3;fill-opacity:1;stroke:none;stroke-width:0.437571;stroke-dasharray:none;stroke-opacity:1;paint-order:stroke markers fill"
         d="m 171.02269,141.2934 c -0.0737,0 -0.13746,0.0688 -0.13746,0.14831 0,0.058 0.0858,0.15948 0.51573,0.60926 l 0.51573,0.53951 -0.12867,0.13384 c -0.76996,0.80329 -0.90279,0.95442 -0.90279,1.02629 0,0.0483 0.0181,0.0854 0.0532,0.11007 0.0292,0.0205 0.069,0.0372 0.0884,0.0372 0.0193,0 0.16433,-0.13734 0.32246,-0.30489 0.15814,-0.16756 0.39558,-0.4154 0.52762,-0.55087 l 0.2403,-0.24598 0.51314,0.53847 c 0.28225,0.29629 0.5324,0.54508 0.55604,0.55293 0.09,0.0298 0.21323,-0.10983 0.16743,-0.18965 -0.0107,-0.0186 -0.24723,-0.27305 -0.52606,-0.56534 l -0.50695,-0.53123 0.0491,-0.0625 c 0.027,-0.0344 0.26282,-0.28542 0.52452,-0.55759 0.26169,-0.27217 0.47594,-0.50687 0.47594,-0.52141 0,-0.0367 -0.0494,-0.12716 -0.0811,-0.14831 -0.0827,-0.0552 -0.13775,-0.01 -0.63976,0.51986 -0.28021,0.29583 -0.52191,0.53466 -0.53692,0.53123 -0.015,-0.003 -0.25499,-0.24502 -0.5333,-0.53743 -0.34636,-0.36392 -0.52217,-0.53175 -0.55655,-0.53175 z m -27.4867,0.64027 c -0.018,9e-5 -0.0357,0.007 -0.0506,0.0222 -0.0302,0.0302 -0.031,0.0451 -0.031,0.73225 0,0.63153 0.002,0.70389 0.0248,0.72864 0.0309,0.0342 0.0771,0.0353 0.11317,0.003 0.0259,-0.0234 0.0274,-0.0659 0.0274,-0.72605 0,-0.53812 -0.004,-0.70667 -0.0186,-0.72502 -0.0183,-0.0232 -0.0419,-0.0352 -0.0651,-0.0351 z m 16.30082,0 c -0.0255,0.001 -0.0506,0.0148 -0.062,0.0398 -0.008,0.0174 -0.0109,0.22401 -0.0109,0.71933 0,0.754 -0.002,0.72598 0.0527,0.74776 0.0248,0.01 0.0543,0.003 0.0749,-0.016 0.0128,-0.0122 0.0153,-0.10836 0.0176,-0.72605 0.002,-0.49579 -0.001,-0.71794 -0.008,-0.73174 -0.0127,-0.0237 -0.0386,-0.0344 -0.0641,-0.0331 z m -2.41174,0.002 c -0.0225,-9.3e-4 -0.0377,0.007 -0.0543,0.0258 -0.0247,0.0287 -0.0278,0.0468 -0.0134,0.0729 0.005,0.009 0.17287,0.18007 0.37311,0.37982 l 0.3638,0.36277 v 0.31006 c 0,0.2645 0.002,0.31312 0.0155,0.33176 0.0229,0.0327 0.0845,0.0304 0.11162,-0.004 0.0196,-0.0249 0.0202,-0.0372 0.0202,-0.33538 v -0.30954 l 0.36897,-0.36432 c 0.33123,-0.32743 0.36826,-0.36762 0.36793,-0.39532 -0.001,-0.0448 -0.0292,-0.0756 -0.0692,-0.0744 -0.0369,0.001 -0.0318,-0.003 -0.48111,0.44184 l -0.26045,0.25786 -0.35553,-0.34933 c -0.31242,-0.3069 -0.35959,-0.34959 -0.38706,-0.35037 z m 5.5795,0 c -0.0181,6e-5 -0.0365,0.006 -0.0491,0.0171 -0.0194,0.0175 -0.0196,0.029 -0.0196,0.57516 0,0.51943 0.001,0.56182 0.0186,0.61753 0.0432,0.13881 0.1419,0.2375 0.28112,0.28164 0.0294,0.009 0.16262,0.0124 0.53123,0.0129 0.48388,9.3e-4 0.49213,7.9e-4 0.51005,-0.0196 0.0231,-0.0255 0.0236,-0.0823 0.001,-0.1049 -0.0156,-0.0156 -0.059,-0.0177 -0.51005,-0.0222 -0.4823,-0.005 -0.49384,-0.005 -0.53226,-0.0258 -0.0542,-0.0293 -0.10801,-0.0873 -0.13488,-0.14573 l -0.0222,-0.0491 -0.003,-0.55139 c -0.003,-0.53376 -0.004,-0.55204 -0.0222,-0.56896 -0.0125,-0.0113 -0.0305,-0.0166 -0.0486,-0.0165 z m -1.46347,0.002 v 0.002 c -0.40816,-0.001 -0.42522,0.007 -0.51883,0.0672 -0.068,0.044 -0.11854,0.10339 -0.15555,0.18242 l -0.0274,0.0584 v 0.447 0.44701 l 0.032,0.0651 c 0.0522,0.10605 0.13698,0.1804 0.24753,0.21601 0.0494,0.0159 0.10181,0.0169 0.60823,0.015 l 0.55346,-0.002 0.0196,-0.0258 c 0.0226,-0.0302 0.0177,-0.0666 -0.0129,-0.0972 -0.0188,-0.0188 -0.0344,-0.0191 -0.55758,-0.0191 h -0.53847 l -0.0605,-0.03 c -0.0634,-0.0317 -0.10833,-0.0792 -0.13643,-0.14366 -0.013,-0.0298 -0.0166,-0.0705 -0.017,-0.19482 l -0.001,-0.15709 0.601,-0.003 0.601,-0.003 0.0207,-0.0269 c 0.0154,-0.0196 0.0198,-0.0347 0.0155,-0.0563 -0.0124,-0.0622 0.0218,-0.0588 -0.63717,-0.0641 l -0.601,-0.005 v -0.14728 c 0,-0.12096 0.003,-0.15579 0.0186,-0.19534 0.0239,-0.062 0.0753,-0.11833 0.13797,-0.15141 l 0.0496,-0.0264 0.54829,-0.005 c 0.53403,-0.005 0.54877,-0.005 0.56276,-0.0248 0.0252,-0.0346 0.0271,-0.0634 0.006,-0.0915 l -0.0191,-0.0263 -0.53951,-0.003 c -0.0756,0 -0.14169,-5.2e-4 -0.19998,-5.2e-4 z m 19.66701,0.001 c -0.0113,0 -0.0377,0.0166 -0.0584,0.0372 -0.0325,0.0325 -0.0372,0.1364 -0.0372,0.77205 0,0.53923 0.007,0.74168 0.0284,0.76274 0.041,0.041 0.13071,0.0357 0.1478,-0.009 0.008,-0.0208 0.0145,-0.36392 0.0145,-0.76275 0,-0.62736 -0.005,-0.73024 -0.0372,-0.76274 -0.0207,-0.0206 -0.0466,-0.0377 -0.0579,-0.0377 z m -16.10702,5.1e-4 c -0.25801,0 -0.27332,0.004 -0.29043,0.0171 l -0.0238,0.0191 v 0.7121 c 0,0.68619 9.5e-4,0.71232 0.0186,0.73225 0.0186,0.0206 0.0215,0.0207 0.62063,0.0207 0.56282,0 0.60553,-0.001 0.66146,-0.0186 0.15096,-0.047 0.26102,-0.16818 0.29507,-0.32505 0.016,-0.0736 0.01,-0.80425 -0.007,-0.85472 -0.039,-0.1156 -0.14793,-0.23268 -0.25735,-0.27699 -0.0541,-0.0219 -0.0579,-0.0221 -0.66921,-0.0248 -0.14901,-9.4e-4 -0.26179,-0.001 -0.34778,-0.001 z m -15.613,0.002 c -0.0282,-3.1e-4 -0.0562,0.01 -0.0672,0.03 -0.01,0.0185 -0.0155,0.22267 -0.0155,0.56017 0,0.52111 -0.001,0.53277 -0.0341,0.59842 -0.0186,0.0368 -0.0567,0.0821 -0.0847,0.10077 -0.0496,0.033 -0.0619,0.0341 -0.42995,0.0341 -0.36802,0 -0.38005,-7.9e-4 -0.4284,-0.0336 -0.0274,-0.0186 -0.0639,-0.061 -0.0811,-0.0941 -0.0298,-0.0572 -0.0314,-0.0867 -0.0357,-0.60823 -0.003,-0.37536 -0.01,-0.55405 -0.0212,-0.56792 -0.009,-0.0112 -0.0376,-0.018 -0.0631,-0.0155 -0.0835,0.008 -0.0854,0.0231 -0.0801,0.62064 0.004,0.48412 0.008,0.5487 0.0331,0.61546 0.0356,0.0948 0.14543,0.20641 0.23409,0.23771 0.095,0.0335 0.75515,0.0365 0.86506,0.004 0.0998,-0.0296 0.1898,-0.11002 0.24133,-0.21497 l 0.0424,-0.0863 0.005,-0.55914 c 0.003,-0.38025 -10e-4,-0.56952 -0.0119,-0.59015 -0.0111,-0.0207 -0.0395,-0.0313 -0.0677,-0.0315 z m 0.72088,0 c -0.0282,3.1e-4 -0.0566,0.0108 -0.0677,0.0315 -0.011,0.0206 -0.0144,0.20938 -0.0114,0.58963 0.004,0.55307 0.005,0.56068 0.0403,0.63924 0.044,0.0973 0.14681,0.19118 0.24082,0.22014 0.0943,0.029 0.91469,0.0326 0.95084,0.005 0.04,-0.0315 0.0458,-0.0784 0.014,-0.11782 l -0.0295,-0.0362 -0.45114,-0.007 c -0.5116,-0.008 -0.50361,-0.007 -0.56947,-0.13591 -0.0332,-0.0649 -0.0336,-0.076 -0.0336,-0.59738 0,-0.33749 -0.006,-0.54172 -0.016,-0.56018 -0.011,-0.0205 -0.039,-0.0307 -0.0672,-0.0305 z m 2.76934,0 -0.49351,0.001 h -0.49402 l -0.0258,0.0393 c -0.0231,0.0353 -0.0236,0.043 -0.004,0.0785 l 0.0222,0.0398 0.48059,0.007 c 0.55012,0.009 0.55738,0.0102 0.60978,0.12867 0.0227,0.0513 0.0287,0.0928 0.0253,0.18294 l -0.005,0.11627 -0.48834,0.007 c -0.47208,0.007 -0.4905,0.009 -0.55242,0.0418 -0.12688,0.0678 -0.18397,0.19642 -0.18397,0.41497 0,0.226 0.0802,0.36091 0.25167,0.42374 0.0437,0.016 0.15211,0.0199 0.48472,0.0171 0.47539,-0.004 0.47709,-0.004 0.56793,-0.10749 0.0826,-0.0941 0.0935,-0.1629 0.0935,-0.61185 0,-0.23277 -0.007,-0.43447 -0.0165,-0.47852 -0.0241,-0.11251 -0.0959,-0.20887 -0.19223,-0.2589 z m 1.24695,5.2e-4 v 0.001 c -0.36874,7.2e-4 -0.37155,0.0104 -0.37155,0.0822 0,0.0817 0.006,0.0822 0.53123,0.0822 0.47245,0 0.48577,0.001 0.55036,0.0341 0.0806,0.0412 0.12037,0.1118 0.13126,0.23306 0.0105,0.11675 -0.0141,0.19644 -0.0791,0.25941 l -0.0537,0.0522 -0.46096,0.007 c -0.44679,0.007 -0.46313,0.009 -0.51624,0.0413 -0.0882,0.0549 -0.10284,0.11288 -0.10284,0.40463 0,0.21176 0.004,0.25424 0.0248,0.2775 0.0324,0.0358 0.0726,0.0353 0.11007,-0.003 0.0275,-0.0275 0.03,-0.0503 0.03,-0.26769 0,-0.16464 0.006,-0.24279 0.0181,-0.25528 0.0129,-0.0129 0.11031,-0.0181 0.34261,-0.0181 h 0.32453 l 0.18397,0.26923 c 0.10123,0.14801 0.19464,0.2774 0.20722,0.28784 0.0339,0.0281 0.0996,-1.5e-4 0.1173,-0.0507 0.0132,-0.0375 0.001,-0.0614 -0.13849,-0.26561 -0.0843,-0.12343 -0.15348,-0.23029 -0.15348,-0.23771 0,-0.007 0.0263,-0.0214 0.0584,-0.031 0.0725,-0.0217 0.17569,-0.11948 0.21342,-0.20257 0.0223,-0.0492 0.0281,-0.0986 0.0284,-0.22945 0,-0.15647 -0.002,-0.1723 -0.046,-0.25941 -0.0256,-0.0512 -0.0693,-0.11017 -0.0977,-0.13178 -0.0998,-0.0761 -0.12682,-0.0794 -0.67024,-0.0801 -0.0687,-9e-5 -0.1287,-1.5e-4 -0.18139,0 z m -12.43438,5.1e-4 -0.0915,0.0455 c -0.10674,0.0533 -0.1728,0.12289 -0.22737,0.23926 -0.0389,0.0829 -0.0388,0.0853 -0.0388,0.46664 0,0.36715 0.001,0.38614 0.0341,0.45733 0.0687,0.14905 0.16544,0.23228 0.31781,0.27337 0.0474,0.0128 0.22013,0.0189 0.55604,0.0196 0.53624,0.001 0.54208,-1.8e-4 0.54208,-0.0909 0,-0.0862 -0.0158,-0.0884 -0.56947,-0.0884 h -0.5023 l -0.0651,-0.0382 c -0.04,-0.0234 -0.0807,-0.0652 -0.10645,-0.10904 l -0.0419,-0.0708 v -0.3545 -0.35399 l 0.046,-0.0739 c 0.0292,-0.0473 0.0698,-0.0876 0.11265,-0.11162 0.067,-0.0376 0.0671,-0.0375 0.5824,-0.045 0.43602,-0.006 0.51764,-0.0114 0.52968,-0.0305 0.0187,-0.0296 0.0183,-0.07 -0.001,-0.10594 -0.0149,-0.0279 -0.0371,-0.0289 -0.54622,-0.0289 z m 5.31027,0 c -0.58244,3.1e-4 -0.5863,0.001 -0.71365,0.12454 -0.13789,0.13357 -0.15814,0.22266 -0.14986,0.6718 0.007,0.37792 0.0178,0.42956 0.11059,0.53795 0.0634,0.074 0.14011,0.12328 0.23099,0.14779 0.0468,0.0126 0.21892,0.0189 0.5457,0.0196 0.45781,10e-4 0.4781,-3.8e-4 0.50695,-0.0295 0.0354,-0.0354 0.0384,-0.0728 0.009,-0.11317 -0.0202,-0.0276 -0.0485,-0.0296 -0.52968,-0.0367 -0.47836,-0.007 -0.51126,-0.009 -0.56069,-0.0388 -0.0626,-0.0368 -0.11439,-0.10887 -0.13643,-0.19069 -0.01,-0.0364 -0.0143,-0.18339 -0.0114,-0.37724 0.005,-0.29514 0.007,-0.3223 0.0382,-0.38085 0.0375,-0.0701 0.10568,-0.1271 0.18293,-0.15297 0.0338,-0.0113 0.20872,-0.0171 0.51728,-0.0171 0.41272,0 0.46918,-0.003 0.49351,-0.0248 0.0337,-0.0305 0.0358,-0.0851 0.004,-0.11679 -0.0206,-0.0205 -0.0903,-0.0236 -0.53744,-0.0233 z m -2.45463,0.002 c -0.20353,2.1e-4 -0.28807,0.005 -0.29972,0.0145 -0.0259,0.0215 -0.0278,0.10648 -0.003,0.13126 0.0133,0.0132 0.14501,0.0179 0.49919,0.0181 0.54514,0 0.57327,0.005 0.63872,0.1111 0.0292,0.0473 0.0336,0.0743 0.032,0.19172 -0.002,0.15363 -0.0227,0.20592 -0.10077,0.25425 -0.0434,0.0269 -0.0779,0.0286 -0.47284,0.0289 -0.38808,0 -0.43257,0.003 -0.49041,0.0294 -0.1134,0.0515 -0.12396,0.0863 -0.12402,0.40153 -4e-5,0.22835 0.004,0.27688 0.0233,0.29662 0.0287,0.0287 0.067,0.0303 0.10284,0.004 0.0238,-0.0174 0.0264,-0.0454 0.0248,-0.25012 -0.001,-0.18532 0.003,-0.23689 0.0217,-0.26561 l 0.0233,-0.0357 h 0.31885 0.31884 l 0.1881,0.2775 c 0.12109,0.17911 0.19925,0.2812 0.22014,0.28681 0.0443,0.0119 0.0931,-0.0172 0.10439,-0.062 0.009,-0.0372 -0.0319,-0.10533 -0.24598,-0.40876 -0.059,-0.0836 -0.0628,-0.095 -0.0382,-0.10335 0.13407,-0.0454 0.21991,-0.12159 0.2682,-0.23719 0.0301,-0.0719 0.0303,-0.34361 0,-0.4284 -0.0311,-0.0881 -0.0919,-0.16165 -0.17208,-0.20878 l -0.0692,-0.0408 -0.52348,-0.004 c -0.0959,-8.3e-4 -0.1771,-0.001 -0.24495,-0.001 z m 24.69772,0.0186 c -0.48251,0 -0.51115,0.003 -0.6103,0.0553 -0.0711,0.0376 -0.12155,0.0881 -0.15916,0.15916 -0.0518,0.098 -0.0553,0.1303 -0.0553,0.55501 0,0.35304 0.008,0.47021 0.0372,0.5395 0.0465,0.11122 0.12161,0.19357 0.21394,0.23461 0.0534,0.0237 0.22598,0.0317 0.67593,0.0326 0.53777,9.4e-4 0.60572,-0.003 0.61908,-0.0382 0.008,-0.0215 0.004,-0.0563 -0.009,-0.0775 -0.0209,-0.0332 -0.10579,-0.0403 -0.61288,-0.0506 l -0.5886,-0.0119 -0.0765,-0.0765 c -0.0731,-0.0731 -0.0769,-0.0862 -0.078,-0.26303 l -0.002,-0.18604 0.59738,-0.0119 c 0.53539,-0.0107 0.60457,-0.0168 0.66456,-0.0574 0.10678,-0.0724 0.14721,-0.17184 0.14676,-0.36174 -0.001,-0.1949 -0.049,-0.30099 -0.17673,-0.38705 -0.0767,-0.0517 -0.10075,-0.0543 -0.58653,-0.0543 z m 5.50147,0 c -0.52662,0 -0.61363,0.005 -0.64079,0.0382 -0.0228,0.0274 -0.0244,0.0486 -0.006,0.0775 0.022,0.0349 0.0987,0.0412 0.6196,0.0517 0.74223,0.0149 0.75034,0.0185 0.75034,0.31677 0,0.16679 -0.0406,0.23706 -0.16329,0.28371 -0.0369,0.014 -0.27094,0.0216 -0.56483,0.0181 -0.54089,-0.007 -0.59295,0.003 -0.6351,0.11318 -0.0339,0.0892 -0.0288,0.61432 0.006,0.64957 0.0378,0.0378 0.1024,0.0364 0.13488,-0.003 0.0144,-0.0173 0.0288,-0.15361 0.0326,-0.30489 l 0.007,-0.27285 0.54984,-0.0119 c 0.36625,-0.008 0.56631,-0.022 0.59996,-0.0413 0.10317,-0.0592 0.19696,-0.19315 0.21394,-0.30644 0.0389,-0.25961 -0.0369,-0.4631 -0.20774,-0.55914 -0.0817,-0.0459 -0.12597,-0.0491 -0.69608,-0.0491 z m 2.52181,0 c -0.59322,0 -0.61972,0.002 -0.71003,0.0537 -0.0585,0.0333 -0.11472,0.093 -0.14935,0.15865 -0.0526,0.0997 -0.0553,0.1304 -0.0553,0.56637 0,0.26737 0.0106,0.48857 0.0253,0.52762 0.0336,0.0889 0.13626,0.19692 0.22531,0.23667 0.0535,0.0239 0.22444,0.0317 0.67386,0.0326 0.58586,9.3e-4 0.6019,4.5e-4 0.61702,-0.0475 0.035,-0.11047 -0.004,-0.11834 -0.58963,-0.11834 -0.62605,0 -0.6912,-0.0136 -0.74983,-0.154 -0.0192,-0.046 -0.0346,-0.15392 -0.0346,-0.23977 v -0.15607 h 0.62012 c 0.56986,0 0.62251,-0.004 0.64337,-0.0424 0.0144,-0.0269 0.0143,-0.0576 0,-0.0837 -0.0209,-0.0373 -0.0812,-0.0413 -0.64337,-0.0413 h -0.62012 v -0.14418 c 0,-0.16913 0.0455,-0.29297 0.12351,-0.33744 0.0404,-0.023 0.21624,-0.0352 0.63872,-0.0439 0.50196,-0.0103 0.58629,-0.0174 0.6072,-0.0506 0.0134,-0.0212 0.0175,-0.056 0.009,-0.0775 -0.0134,-0.0348 -0.0824,-0.0387 -0.63097,-0.0387 z m 2.04897,0 c -0.5111,0 -0.59715,0.005 -0.62425,0.0382 -0.0228,0.0274 -0.0244,0.0486 -0.006,0.0775 0.022,0.0349 0.0992,0.0413 0.62012,0.0517 0.65371,0.0131 0.68269,0.0194 0.74,0.15658 0.0702,0.16806 0.0312,0.31684 -0.10748,0.41031 -0.0781,0.0527 -0.0986,0.0543 -0.6103,0.0543 -0.6787,0 -0.63407,-0.0297 -0.63407,0.42736 0,0.18128 0.007,0.33644 0.0155,0.3452 h 5.2e-4 c 0.009,0.009 0.0404,0.016 0.0708,0.016 0.0698,0 0.0787,-0.0367 0.0863,-0.35863 l 0.006,-0.25063 0.39636,-0.007 0.39584,-0.006 0.21342,0.30489 c 0.17411,0.24918 0.22505,0.30702 0.27802,0.31316 0.052,0.006 0.0678,-0.004 0.0796,-0.0512 0.0118,-0.047 -0.0204,-0.10776 -0.16381,-0.30644 -0.0983,-0.13618 -0.17397,-0.25576 -0.16795,-0.26562 0.006,-0.01 0.0318,-0.0176 0.0568,-0.0176 0.0631,0 0.21478,-0.1388 0.25373,-0.23203 0.0418,-0.10004 0.0414,-0.34557 -0.001,-0.4439 -0.0398,-0.093 -0.14618,-0.19641 -0.23771,-0.23099 -0.0409,-0.0155 -0.29902,-0.0253 -0.65939,-0.0253 z m 5.50923,0.001 c -0.24687,0.002 -0.29779,0.0226 -0.37517,0.0879 -0.1508,0.12689 -0.16379,0.19142 -0.16434,0.83457 0,0.31753 0.006,0.59402 0.014,0.61495 0.0173,0.0449 0.11822,0.0507 0.14572,0.008 0.0106,-0.0164 0.0191,-0.29001 0.0191,-0.60771 0,-0.54908 0.003,-0.58073 0.0501,-0.64492 0.086,-0.11595 0.13324,-0.12713 0.56637,-0.12713 0.4308,0 0.50959,0.0171 0.57155,0.12557 0.0217,0.0379 0.0344,0.23062 0.0429,0.6625 l 0.0119,0.60978 h 0.0713 0.0718 l 0.006,-0.61908 c 0.006,-0.58722 0.004,-0.62394 -0.0439,-0.72244 -0.0957,-0.19773 -0.13461,-0.21053 -0.66714,-0.21911 -0.13403,-0.002 -0.23811,-0.003 -0.32039,-0.003 z m 2.38176,0.001 c -0.25535,0 -0.28684,0.0111 -0.36483,0.0506 -0.0734,0.0371 -0.12896,0.0906 -0.17725,0.1695 l -0.0708,0.11523 0.005,0.45786 c 0.005,0.45424 0.005,0.45851 0.0703,0.56379 0.0415,0.0669 0.10464,0.1264 0.17157,0.16174 0.10417,0.055 0.11676,0.0559 0.70486,0.0496 l 0.59893,-0.006 v -0.0718 -0.0718 l -0.58652,-0.0119 c -0.80257,-0.0164 -0.78731,-0.004 -0.78704,-0.6382 0,-0.32662 0.006,-0.38637 0.0439,-0.44442 0.0953,-0.14454 0.10675,-0.14667 0.74414,-0.15968 l 0.58549,-0.0119 v -0.0718 -0.0718 l -0.59738,-0.006 c -0.14497,-0.002 -0.25491,-0.003 -0.34003,-0.003 z m -4.62659,0.001 c -0.26504,0 -0.29156,0.011 -0.36122,0.0506 -0.0525,0.0298 -0.11974,0.0969 -0.14986,0.14934 -0.0527,0.0919 -0.0542,0.11173 -0.0481,0.59842 0.006,0.49286 0.007,0.50566 0.0656,0.59169 0.0329,0.0484 0.10297,0.10921 0.15555,0.1354 0.0879,0.0438 0.14417,0.0475 0.6997,0.0475 0.53724,2e-5 0.60574,-0.004 0.61908,-0.0388 0.008,-0.0215 0.004,-0.0568 -0.009,-0.078 -0.0209,-0.0332 -0.10525,-0.0398 -0.6072,-0.0501 -0.42246,-0.009 -0.59829,-0.0209 -0.63872,-0.0439 -0.0796,-0.0454 -0.12351,-0.16961 -0.12351,-0.34985 v -0.15606 h 0.61857 c 0.53503,0 0.62239,-0.005 0.64957,-0.0377 0.0228,-0.0275 0.0244,-0.0486 0.006,-0.0775 -0.0222,-0.0352 -0.0969,-0.0409 -0.64957,-0.0465 l -0.62477,-0.006 v -0.15606 c 0,-0.17171 0.0413,-0.27812 0.12609,-0.32659 0.0378,-0.0216 0.22846,-0.0339 0.65061,-0.0424 l 0.59738,-0.0119 v -0.0718 -0.0718 l -0.62115,-0.006 c -0.15169,-0.001 -0.26668,-0.002 -0.35502,-0.002 z m 6.7815,0 c -0.25937,1e-5 -0.28739,0.011 -0.35708,0.0501 -0.0628,0.0353 -0.114,0.0902 -0.14935,0.1602 -0.0502,0.0995 -0.0537,0.13701 -0.0537,0.56586 0,0.26645 0.0106,0.48756 0.0253,0.52658 0.0336,0.0889 0.13626,0.19694 0.22531,0.23668 0.0534,0.0239 0.22218,0.0322 0.66197,0.0331 0.53449,9.3e-4 0.59253,-0.003 0.6134,-0.0403 0.0146,-0.0261 0.0148,-0.0568 0,-0.0837 -0.0208,-0.0388 -0.0712,-0.0424 -0.58497,-0.0424 -0.62969,0 -0.6797,-0.011 -0.74053,-0.15658 -0.0187,-0.0447 -0.0336,-0.15134 -0.0336,-0.23719 v -0.15606 h 0.62167 c 0.55383,0 0.62381,-0.004 0.63717,-0.0393 0.008,-0.0215 0.004,-0.0563 -0.009,-0.0775 -0.0212,-0.0336 -0.10377,-0.0394 -0.63717,-0.045 l -0.61237,-0.006 v -0.14366 c 0,-0.16875 0.045,-0.29301 0.12299,-0.33745 0.0405,-0.0231 0.2167,-0.0347 0.64131,-0.0434 l 0.58549,-0.0124 v -0.0713 -0.0718 l -0.60926,-0.006 c -0.14807,-0.001 -0.2602,-0.002 -0.34675,-0.002 z m -24.53287,0.11937 h 0.5333 c 0.60122,0 0.59855,1.3e-4 0.678,0.0698 0.0585,0.0515 0.0906,0.10653 0.10387,0.17984 0.0139,0.0765 0.0139,0.63197 0,0.70848 -0.006,0.032 -0.0211,0.0767 -0.0341,0.0992 -0.0322,0.0555 -0.10423,0.11666 -0.15916,0.13539 -0.0391,0.0133 -0.11924,0.0155 -0.58343,0.0155 h -0.53847 v -0.60409 z m 4.41368,0.0439 c 0.53499,0 0.58406,0.0217 0.5855,0.25529 0.001,0.15755 -0.0136,0.19269 -0.0966,0.23564 -0.0533,0.0275 -0.17897,0.0351 -0.59531,0.0351 -0.6004,0 -0.56421,0.0139 -0.54363,-0.21291 0.0258,-0.28431 0.0851,-0.31316 0.65008,-0.31316 z m -16.69458,0.5793 h 0.45578 l -0.005,0.23409 -0.005,0.2341 -0.0491,0.0439 -0.0491,0.0439 h -0.41858 c -0.40657,0 -0.41969,-8.9e-4 -0.45992,-0.0326 -0.0601,-0.0473 -0.0827,-0.11604 -0.0827,-0.24908 5e-5,-0.13395 0.027,-0.19471 0.10852,-0.24443 0.046,-0.0281 0.0767,-0.03 0.50488,-0.03 z" />
    </g>
  </g>
</svg>
