<?xml version="1.0" encoding="UTF-8" standalone="no"?>
<!-- Created with Inkscape (http://www.inkscape.org/) -->

<svg
   width="180mm"
   height="18mm"
   viewBox="0 0 180 18"
   version="1.1"
   id="svg1"
   inkscape:version="1.4 (86a8ad7, 2024-10-11)"
   sodipodi:docname="header.svg"
   xmlns:inkscape="http://www.inkscape.org/namespaces/inkscape"
   xmlns:sodipodi="http://sodipodi.sourceforge.net/DTD/sodipodi-0.dtd"
   xmlns="http://www.w3.org/2000/svg"
   xmlns:svg="http://www.w3.org/2000/svg">
  <sodipodi:namedview
     id="namedview1"
     pagecolor="#505050"
     bordercolor="#ffffff"
     borderopacity="1"
     inkscape:showpageshadow="0"
     inkscape:pageopacity="0"
     inkscape:pagecheckerboard="1"
     inkscape:deskcolor="#505050"
     inkscape:document-units="mm"
     inkscape:zoom="1.4378367"
     inkscape:cx="304.97205"
     inkscape:cy="-0.34774464"
     inkscape:window-width="1920"
     inkscape:window-height="1009"
     inkscape:window-x="1912"
     inkscape:window-y="-8"
     inkscape:window-maximized="1"
     inkscape:current-layer="layer1" />
  <defs
     id="defs1" />
  <g
     inkscape:label="Ebene 1"
     inkscape:groupmode="layer"
     id="layer1"
     transform="translate(-15,-139.5)">
    <g
       id="g2">
      <rect
         style="fill:none;fill-opacity:1;stroke:none;stroke-width:8.39763;stroke-linecap:square;stroke-linejoin:round;stroke-dasharray:none;stroke-opacity:1;paint-order:stroke fill markers"
         id="rect1"
         width="180"
         height="18"
         x="15"
         y="139.5" />
      <g
         id="g1">
        <path
           id="path66"
           style="fill:#b3b3b3;fill-opacity:1;stroke:none;stroke-width:0.437571;stroke-dasharray:none;stroke-opacity:1;paint-order:stroke markers fill"
           d="m 27.907187,142.5214 -3.510108,0.012 -3.510057,0.012 -0.34188,0.10681 c -0.339106,0.10596 -0.711964,0.30736 -0.949785,0.51303 -0.191061,0.16524 -0.481708,0.56874 -0.607046,0.84282 -0.223115,0.48791 -0.269307,0.8811 -0.269307,2.2922 0,1.3885 0.02057,1.54198 0.261596,1.95327 0.16237,0.27707 0.547658,0.53356 0.908872,0.60502 v 0 c 0.207599,0.0411 3.391187,0.0466 3.537235,0.006 0.07189,-0.0199 0.118942,-0.0762 0.154991,-0.18543 0.04648,-0.14081 0.043,-0.16914 -0.0338,-0.277 l -0.08552,-0.12013 -1.659317,-6.2e-4 c -1.987069,-7.3e-4 -2.037701,-0.01 -2.294877,-0.39777 l -0.128412,-0.19388 0.0013,-1.4073 c 0.0016,-1.48164 0.01809,-1.65021 0.201586,-2.05532 0.116685,-0.25759 0.444044,-0.60986 0.691398,-0.74397 0.460812,-0.24984 0.442058,-0.24864 3.799359,-0.24309 1.684478,0.003 3.203232,0.0229 3.375051,0.0447 0.314846,0.0399 0.668784,0.18264 0.830254,0.33476 0.04542,0.0428 0.520707,0.51473 1.056214,1.04873 0.535518,0.53401 0.982967,0.97092 0.99429,0.97092 0.02939,0 0.613039,-0.58733 0.613039,-0.6169 0,-0.0627 -2.004633,-2.01923 -2.211167,-2.15806 -0.128702,-0.0865 -0.366751,-0.19902 -0.529018,-0.25004 z m 34.693055,0.72841 c -0.111356,-0.004 -0.229635,0.0392 -0.279729,0.13281 -0.02958,0.0553 -0.04343,0.83346 -0.04343,2.36232 0.001,2.7185 0.0128,2.81921 0.383062,3.24092 0.158738,0.18079 0.367921,0.31812 0.617748,0.40557 v -5e-5 c 0.155022,0.0543 0.475581,0.0647 2.042753,0.0663 l 1.858916,0.002 0.06472,-0.0924 c 0.03561,-0.0508 0.06477,-0.13088 0.06477,-0.17789 0,-0.047 -0.02916,-0.12711 -0.06477,-0.17795 l -0.06472,-0.0924 -1.69253,-9.3e-4 c -1.004609,-6.2e-4 -1.768582,-0.0183 -1.879668,-0.0437 -0.283693,-0.0647 -0.481574,-0.22316 -0.613049,-0.49088 l -0.114833,-0.23384 -0.01037,-2.32916 c -0.0057,-1.28103 -0.01958,-2.36941 -0.03092,-2.41859 -0.02219,-0.0963 -0.126611,-0.14791 -0.237956,-0.15206 z m 12.24372,0.006 c -0.0791,-0.001 -0.162422,0.0219 -0.214855,0.0694 -0.07882,0.0713 -0.08306,0.12851 -0.08306,1.11564 0,0.90981 0.0087,1.05005 0.06884,1.11656 0.06468,0.0714 0.177926,0.076 1.87293,0.076 1.939987,0 1.978489,0.004 2.21037,0.22036 0.207837,0.19402 0.21501,0.24149 0.21501,1.42254 0,1.18105 -0.0072,1.22851 -0.21501,1.42254 -0.231922,0.21655 -0.27001,0.2203 -2.214438,0.2203 h -1.808211 l -0.06477,0.0925 c -0.08831,0.12608 -0.08128,0.26537 0.01844,0.36509 0.08074,0.0807 0.138659,0.0832 1.97408,0.0832 1.798887,0 1.901848,-0.004 2.116724,-0.0845 0.277731,-0.10392 0.561734,-0.39261 0.674921,-0.68611 0.07199,-0.18674 0.07975,-0.32373 0.07975,-1.41296 0,-1.08346 -0.008,-1.22693 -0.07868,-1.41013 -0.101305,-0.26265 -0.318748,-0.50142 -0.584162,-0.6415 l -0.21057,-0.1112 -1.724729,-0.0121 c -1.290879,-0.009 -1.732709,-0.0248 -1.756596,-0.0624 -0.01756,-0.0276 -0.03258,-0.40699 -0.03258,-0.84298 0,-0.57786 -0.01507,-0.81243 -0.05391,-0.86554 -0.03553,-0.0486 -0.110393,-0.0736 -0.189487,-0.0747 z m -50.170953,0.91267 c -0.500142,0.005 -0.472073,0.0547 -0.317113,0.2417 0.160031,0.19314 0.282264,0.23409 0.704926,0.23619 0.68494,0.003 0.5359,-0.10931 2.658099,2.01039 l 1.876521,1.87433 -1.411311,1.41381 c -0.776206,0.7776 -1.583441,1.59032 -1.793887,1.80608 -0.210446,0.21577 -0.508038,0.48047 -0.661342,0.58823 -0.153314,0.10776 -0.278756,0.21464 -0.278756,0.23747 0,0.0569 1.294357,0.0539 1.507255,-0.003 0.14075,-0.0379 0.459611,-0.33838 2.155495,-2.03083 1.274702,-1.27212 1.97999,-2.00462 1.961556,-2.03734 -0.06588,-0.11693 -3.975235,-4.02248 -4.122081,-4.11808 -0.261212,-0.17003 -0.454239,-0.19587 -1.588285,-0.21276 -0.298958,-0.004 -0.52437,-0.008 -0.691077,-0.006 z m 9.429554,0.59914 c -0.107919,1e-4 -0.248917,0.002 -0.433022,0.004 -0.311193,0.004 -0.564104,0.0275 -0.640053,0.0596 -0.137023,0.0578 -2.500044,2.43247 -2.500044,2.51234 0,0.027 0.153014,0.20289 0.340007,0.39087 0.187013,0.18798 0.354051,0.33698 0.37118,0.33118 0.07187,-0.0243 3.211885,-3.19258 3.211885,-3.24076 0,-0.0446 -0.0262,-0.0575 -0.349953,-0.0572 z m -12.087063,0.008 c -0.185296,-0.0105 -0.379068,0.0351 -0.553568,0.14435 -0.267837,0.16766 -0.389107,0.40559 -0.389107,0.76334 0,0.23588 0.01726,0.29831 0.129064,0.46708 0.228372,0.34478 0.66955,0.48485 1.078518,0.34241 0.186092,-0.0648 0.327452,-0.1918 0.477092,-0.42868 l 0.111676,-0.17682 0.722687,1e-4 c 0.397469,9e-5 0.787694,0.0182 0.867203,0.0403 0.110982,0.0308 0.435526,0.33178 1.398466,1.29658 0.689681,0.69102 1.247264,1.27658 1.238881,1.30129 -0.02851,0.0848 -3.066064,3.10753 -3.192416,3.17679 -0.1106,0.0606 -0.308916,0.0704 -1.592301,0.078 -0.806283,0.005 -1.515525,-0.002 -1.576093,-0.0145 -0.06899,-0.0146 -0.118911,-0.0582 -0.133608,-0.1167 -0.0335,-0.13346 -0.326479,-0.42199 -0.50366,-0.49602 -0.187562,-0.0784 -0.512499,-0.0811 -0.69263,-0.006 -0.0751,0.0314 -0.211232,0.13021 -0.302509,0.21967 -0.475902,0.46649 -0.237687,1.30385 0.415199,1.45955 v 5e-5 c 0.369649,0.0881 0.647546,0.0127 0.884271,-0.23993 0.09701,-0.10356 0.187054,-0.23076 0.200085,-0.28267 l 0.02369,-0.0944 1.637603,-0.0125 1.637602,-0.0125 0.174418,-0.10323 c 0.194993,-0.11541 3.604024,-3.46094 3.604024,-3.5369 0,-0.0803 -2.838189,-2.93173 -2.98965,-3.00361 -0.113881,-0.054 -0.288733,-0.0668 -0.919025,-0.0673 -0.428106,-3.1e-4 -0.818072,-0.0112 -0.866624,-0.0242 -0.05082,-0.0136 -0.119531,-0.0931 -0.161997,-0.1873 -0.133184,-0.29534 -0.41847,-0.46895 -0.727292,-0.4865 z m 62.651076,0.27994 c -0.282409,-0.001 -0.662159,0.002 -1.172827,0.006 -2.060968,0.016 -2.042152,0.0137 -2.360289,0.29369 -0.299652,0.26376 -0.367372,0.43345 -0.36851,0.92277 -0.001,0.37968 0.009,0.43288 0.113394,0.61043 0.06289,0.10697 0.183536,0.2515 0.268064,0.32118 0.28628,0.23598 0.405387,0.2537 1.715051,0.2548 0.653601,5.1e-4 1.261775,0.018 1.351509,0.0388 0.199185,0.0462 0.346269,0.151 0.474733,0.33829 0.129529,0.18884 0.115091,0.57594 -0.02909,0.77842 -0.199134,0.27968 -0.182253,0.27726 -2.00216,0.28882 -0.903593,0.006 -1.68308,0.0196 -1.732274,0.0309 -0.05306,0.0122 -0.107815,0.0733 -0.134673,0.15035 -0.04662,0.13373 -0.03758,0.17122 0.07199,0.29866 0.05995,0.0697 0.177181,0.0736 1.854911,0.0624 2.013058,-0.0135 1.949354,-0.004 2.282416,-0.33717 0.247519,-0.24752 0.32888,-0.4717 0.327431,-0.90309 -10e-4,-0.30484 -0.01884,-0.40136 -0.110175,-0.59443 -0.123413,-0.26087 -0.325341,-0.45697 -0.602668,-0.58529 -0.176737,-0.0818 -0.27886,-0.0889 -1.541007,-0.10836 -1.332682,-0.0205 -1.353693,-0.0222 -1.48758,-0.11767 -0.187365,-0.13364 -0.275309,-0.31905 -0.272928,-0.57512 0.0025,-0.26771 0.122698,-0.4754 0.336632,-0.58175 0.142695,-0.0709 0.298793,-0.0782 1.921606,-0.0893 1.938031,-0.0133 1.914599,-0.0101 1.914599,-0.26171 0,-0.19319 0.02905,-0.23803 -0.818155,-0.24169 z m -13.020112,0.0701 c -0.253595,-2e-4 -0.586108,0.002 -1.02771,0.004 -1.054538,0.006 -1.816233,0.0262 -1.86079,0.05 -0.110268,0.059 -0.139486,0.22783 -0.06034,0.34862 l 0.06686,0.10194 1.778155,0.0121 1.778217,0.0121 0.135802,0.0969 c 0.220651,0.15738 0.263883,0.28638 0.250366,0.74622 l -0.01183,0.40466 -1.70526,0.0208 c -1.677471,0.0205 -1.708418,0.0223 -1.898391,0.11681 -0.246857,0.12281 -0.466722,0.34315 -0.584908,0.58614 -0.0765,0.15729 -0.09296,0.26158 -0.09264,0.58641 0,0.45324 0.05145,0.60566 0.2916,0.87149 0.155311,0.1719 0.314628,0.276 0.516401,0.33738 0.05734,0.0174 0.957641,0.0333 2.000659,0.0352 1.80403,0.003 1.899757,-2e-4 1.966907,-0.0744 0.06443,-0.0712 0.06959,-0.22833 0.05851,-1.79886 -0.0118,-1.67195 -0.01472,-1.72552 -0.101936,-1.88716 -0.12094,-0.22412 -0.284521,-0.37215 -0.534152,-0.48335 -0.154307,-0.0687 -0.204722,-0.0864 -0.965517,-0.0869 z m -49.686802,0.14623 c 0.314815,10e-4 0.544449,0.37651 0.27978,0.65134 -0.127367,0.13227 -0.239084,0.17398 -0.361348,0.13489 -0.370643,-0.11853 -0.454985,-0.53847 -0.144941,-0.72162 0.0767,-0.0453 0.153862,-0.0649 0.226509,-0.0646 z m 49.888978,2.19556 c 0.637724,-8e-5 0.78845,0.0136 0.819873,0.0514 0.03497,0.0421 0.04623,0.25452 0.03813,0.71964 l -0.0115,0.65995 -1.580481,0.007 c -0.869273,0.004 -1.639072,-0.0102 -1.710715,-0.0311 -0.185026,-0.054 -0.416151,-0.3248 -0.450451,-0.52779 -0.05342,-0.31619 0.09823,-0.64375 0.365944,-0.79024 0.116892,-0.064 0.307456,-0.0734 1.715476,-0.0846 0.334407,-0.003 0.601146,-0.004 0.813724,-0.004 z m -40.564197,1.51683 c -0.08266,0 -0.71983,0.62182 -0.704781,0.68781 0.01768,0.0775 2.385543,2.45259 2.485348,2.49294 v 2.1e-4 c 0.122823,0.0495 1.387506,0.0498 1.387506,2e-4 0,-0.043 -0.180876,-0.22985 -1.94953,-2.01451 -0.635861,-0.64162 -1.184202,-1.16661 -1.218543,-1.16661 z m 33.896014,2.16181 c -0.07366,0 -0.137613,0.0691 -0.137613,0.14863 0,0.058 0.08571,0.15925 0.515594,0.60903 l 0.515594,0.53945 -0.128412,0.13398 c -0.769955,0.80329 -0.902776,0.95424 -0.902776,1.02611 0,0.0483 0.01796,0.0855 0.05311,0.11013 0.02921,0.0205 0.06892,0.0372 0.08825,0.0372 0.01933,0 0.164533,-0.1371 0.32267,-0.30465 0.158138,-0.16756 0.395535,-0.41553 0.52758,-0.551 l 0.24015,-0.24624 0.513131,0.5387 c 0.282243,0.29629 0.532495,0.54507 0.556134,0.55292 0.08999,0.0298 0.213365,-0.11005 0.167566,-0.18987 -0.01066,-0.0186 -0.247499,-0.27283 -0.526337,-0.56512 l -0.506983,-0.53148 0.0491,-0.0625 c 0.027,-0.0344 0.263199,-0.2852 0.524898,-0.55737 0.261689,-0.27217 0.475798,-0.50678 0.475798,-0.52132 0,-0.0367 -0.04955,-0.12721 -0.08125,-0.14836 -0.08266,-0.0552 -0.13783,-0.0103 -0.639835,0.5196 -0.280215,0.29583 -0.521824,0.53507 -0.536832,0.53164 -0.01501,-0.003 -0.254982,-0.24538 -0.533292,-0.53779 -0.346362,-0.36391 -0.521866,-0.53169 -0.556249,-0.53169 z m -34.754233,0.11199 -0.929148,0.91754 c -0.79142,0.78154 -0.971872,0.93899 -1.217528,1.0621 l -0.288392,0.14452 -2.135332,0.012 -2.135333,0.0121 -0.141732,-0.22154 c -0.26114,-0.40822 -0.749172,-0.51351 -1.171006,-0.2526 -0.572363,0.35401 -0.508245,1.21012 0.110714,1.47853 0.340793,0.14779 0.775409,0.048 1.017774,-0.23362 l 0.117555,-0.1366 1.218222,0.0278 c 1.95219,0.0445 3.154338,0.0411 3.394478,-0.01 0.302385,-0.064 0.711467,-0.2552 0.937697,-0.43831 0.285949,-0.23144 1.7795,-1.71205 1.7795,-1.76409 0,-0.025 -0.125451,-0.16977 -0.278765,-0.32176 z m -10.694744,0.3054 c 0.352043,-0.0246 0.578718,0.41974 0.312134,0.68632 -0.30964,0.30965 -0.819542,-0.0213 -0.651655,-0.4229 0.06521,-0.15602 0.13188,-0.21885 0.267526,-0.25208 0.02448,-0.006 0.04852,-0.01 0.072,-0.0113 z m 3.095167,1.68317 c 0.140522,-0.01 0.307135,0.0855 0.372692,0.22362 0.07603,0.16023 0.06079,0.28756 -0.05087,0.42419 -0.08104,0.0992 -0.315498,0.14626 -0.447398,0.0899 -0.112369,-0.048 -0.224211,-0.22245 -0.224211,-0.34974 0,-0.1169 0.171778,-0.33905 0.291548,-0.37707 0.01863,-0.006 0.03817,-0.009 0.05824,-0.0109 z" />
        <path
           id="path24"
           style="fill:#b3b3b3;fill-opacity:1;stroke:none;stroke-width:0.798915;stroke-dasharray:none;stroke-opacity:1;paint-order:stroke fill markers"
           d="m 44.703753,143.26185 -0.384718,3.1e-4 c -0.28362,3.1e-4 -0.384719,0.0143 -0.384719,0.0534 0,0.0291 0.73165,0.77264 1.625897,1.65231 0.894258,0.87966 1.652289,1.65035 1.684498,1.71264 0.04652,0.09 0.05852,0.36843 0.05852,1.35381 0,1.3356 0.0095,1.39804 0.218757,1.43724 v 1.1e-4 c 0.13071,0.0245 0.250542,-0.009 0.311544,-0.0863 0.03891,-0.0495 0.05199,-0.37325 0.05199,-1.28652 0,-0.95469 0.01269,-1.24949 0.05825,-1.35419 0.03258,-0.0749 0.782757,-0.85644 1.7029,-1.77415 0.904567,-0.90217 1.635285,-1.6555 1.623807,-1.67408 -0.01148,-0.0186 -0.184654,-0.0337 -0.384823,-0.0337 H 50.52169 l -1.431204,1.43495 c -0.787156,0.78921 -1.452949,1.4349 -1.479559,1.4349 -0.02662,0 -0.691626,-0.6459 -1.477789,-1.43533 z m -4.485302,7.2e-4 c -1.946425,0 -2.116289,0.006 -2.413882,0.0818 -1.008179,0.25785 -1.857053,1.08669 -2.131316,2.08094 -0.109337,0.39642 -0.110383,1.66257 -0.0017,2.01719 0.141856,0.46265 0.355014,0.80809 0.733378,1.18854 0.383921,0.38603 0.746864,0.60196 1.25722,0.74788 v 0 c 0.236859,0.0677 0.473977,0.0752 2.474274,0.0779 l 2.212398,0.003 0.06477,-0.0924 c 0.08063,-0.11503 0.0827,-0.24148 0.0058,-0.34674 -0.05672,-0.0776 -0.142105,-0.0816 -2.214758,-0.10243 -2.08498,-0.021 -2.164747,-0.0247 -2.429116,-0.11376 -0.736783,-0.24817 -1.305773,-0.83674 -1.517368,-1.56962 -0.09166,-0.31749 -0.08926,-1.17999 0.0042,-1.54235 0.191868,-0.74331 0.679289,-1.33503 1.361455,-1.65279 0.435185,-0.20271 0.540569,-0.21106 2.684999,-0.2134 l 2.01045,-0.002 0.07953,-0.0982 c 0.102671,-0.12671 0.101284,-0.27525 -0.0036,-0.38011 -0.08098,-0.081 -0.138658,-0.0832 -2.17695,-0.0832 z m 13.013954,0 c -0.215901,0 -0.403235,0.0173 -0.416266,0.0383 -0.01303,0.0211 0.683026,0.67323 1.546834,1.44923 0.863808,0.776 1.595499,1.44102 1.62599,1.47779 0.09034,0.10896 0.02803,0.20096 -0.39867,0.58854 -0.22297,0.20254 -1.215273,1.11877 -2.205133,2.03607 -1.262013,1.16951 -1.870053,1.7051 -2.035052,1.7926 l -0.235327,0.12478 -7.382848,0.011 c -6.777375,0.0101 -7.38912,0.0165 -7.458372,0.0792 -0.09734,0.0881 -0.09669,0.27274 0.0012,0.36139 0.07109,0.0644 0.621557,0.0686 7.559408,0.0584 l 7.482643,-0.0109 0.246619,-0.11553 c 0.274843,-0.12871 0.460097,-0.27143 0.979583,-0.75489 0.194858,-0.18135 0.466649,-0.43401 0.604003,-0.56148 0.237366,-0.22027 2.134028,-1.95811 3.032002,-2.77812 0.231001,-0.21094 0.454425,-0.38408 0.496446,-0.38471 0.04646,-8.3e-4 0.918767,0.8453 2.225139,2.15812 2.007107,2.01701 2.167894,2.16851 2.439022,2.29798 l 0.290202,0.13863 3.258252,0.003 c 0.01111,-0.15465 0.127491,-0.28505 0.292242,-0.28508 h 5.2e-5 c 0.06876,5e-5 0.08306,0.0196 0.10173,0.0309 0.01869,0.0113 0.0337,0.0226 0.05033,0.036 0.03326,0.0267 0.07135,0.0611 0.11889,0.10654 0.02618,0.025 0.07847,0.0805 0.110289,0.11222 l 1.429382,0.001 c 0.05558,-0.0548 0.15172,-0.15965 0.192499,-0.19276 0.05216,-0.0424 0.09858,-0.0763 0.168798,-0.0898 0.0702,-0.0134 0.146824,0.0167 0.182542,0.0406 0.07107,0.0474 0.08076,0.0822 0.103707,0.12414 0.01841,0.0336 0.03488,0.0644 0.04199,0.11841 l 5.743745,0.005 11.794335,0.0108 0.04932,0.13628 c 0.06597,0.18246 0.324741,0.42874 0.52907,0.50356 h 5.2e-5 c 0.921012,0.33701 1.709586,-0.68395 1.137834,-1.47324 -0.242014,-0.33409 -0.792653,-0.47213 -1.179876,-0.29578 -0.192323,0.0876 -0.464206,0.37132 -0.502698,0.52469 l -0.02642,0.10537 -11.693143,-0.0107 -11.693144,-0.0106 -0.189342,-0.0934 c -0.13574,-0.0669 -0.725802,-0.63208 -2.08409,-1.99638 -2.308115,-2.31833 -2.265762,-2.27251 -2.2154,-2.39976 0.02116,-0.0535 0.440899,-0.45215 0.932719,-0.88603 1.878674,-1.65736 2.266746,-2.01003 2.266746,-2.05976 0,-0.0361 -0.113198,-0.0548 -0.381562,-0.0632 -0.378654,-0.0118 -0.382731,-0.0109 -0.539709,0.12473 -0.08701,0.0752 -0.781102,0.69353 -1.542456,1.37408 -0.761354,0.68055 -1.39531,1.23738 -1.408682,1.23738 -0.02536,0 -0.562314,-0.48047 -2.126618,-1.90284 l -0.926363,-0.84222 z m 32.918532,7.13789 c 0.134591,-0.002 0.27385,0.037 0.39895,0.119 0.12628,0.0828 0.265767,0.3561 0.265767,0.52078 0,0.1858 -0.142219,0.43579 -0.30519,0.53651 -0.09324,0.0576 -0.210404,0.0873 -0.344333,0.0872 -0.583096,-5.1e-4 -0.857722,-0.61637 -0.471151,-1.05664 0.117638,-0.13399 0.282906,-0.20435 0.455957,-0.20688 z m -48.457505,1.3859 c -0.01802,9e-5 -0.03585,0.007 -0.05076,0.0223 -0.03019,0.0302 -0.03081,0.0451 -0.03081,0.73221 0,0.63153 0.0025,0.70409 0.02487,0.72884 0.03093,0.0342 0.0769,0.0352 0.11296,0.003 0.02587,-0.0234 0.02749,-0.0658 0.02749,-0.72595 0,-0.53812 -0.0043,-0.7067 -0.01876,-0.72505 -0.01828,-0.0232 -0.04182,-0.0351 -0.06499,-0.035 z m 16.301134,1e-4 c -0.02546,0.001 -0.0506,0.0149 -0.06199,0.0399 -0.0079,0.0174 -0.01113,0.22368 -0.01113,0.719 0,0.754 -0.002,0.72626 0.05263,0.74804 0.02476,0.01 0.05442,0.003 0.07504,-0.0161 0.01278,-0.0122 0.01509,-0.10826 0.01739,-0.72595 0.0019,-0.49579 -10e-4,-0.71793 -0.008,-0.73173 -0.01268,-0.0237 -0.03846,-0.0345 -0.06392,-0.0332 z m -2.411791,0.002 v 5e-5 c -0.02252,-9.3e-4 -0.03772,0.007 -0.05423,0.0257 -0.0247,0.0287 -0.02813,0.0468 -0.01381,0.0729 0.005,0.009 0.172979,0.17994 0.37322,0.37969 l 0.364018,0.36321 v 0.30979 c 0,0.2645 0.0023,0.31296 0.0153,0.3316 0.0229,0.0327 0.08453,0.0305 0.111677,-0.004 0.01961,-0.0249 0.02038,-0.0371 0.02038,-0.3353 v -0.30941 l 0.368614,-0.36445 c 0.33123,-0.32743 0.368583,-0.3675 0.368251,-0.3952 -10e-4,-0.0448 -0.02914,-0.0756 -0.06916,-0.0744 -0.03689,0.001 -0.03198,-0.003 -0.481315,0.44163 l -0.260415,0.25801 -0.355625,-0.34942 c -0.312414,-0.3069 -0.359434,-0.34949 -0.386903,-0.35027 z m 5.579336,5e-5 c -0.01811,6e-5 -0.03626,0.006 -0.04884,0.0172 -0.01936,0.0175 -0.01979,0.0291 -0.01979,0.57523 0,0.51943 0.0012,0.56145 0.01862,0.61716 0.0432,0.13881 0.141681,0.23756 0.280898,0.2817 0.02943,0.009 0.16265,0.0126 0.531264,0.0131 0.483881,9.3e-4 0.492223,9.3e-4 0.510139,-0.0195 0.02312,-0.0255 0.02375,-0.0826 0.0012,-0.1052 -0.01558,-0.0156 -0.05906,-0.0175 -0.510139,-0.022 -0.482309,-0.005 -0.494025,-0.005 -0.532444,-0.0262 -0.05418,-0.0293 -0.107691,-0.0873 -0.13456,-0.14569 l -0.02257,-0.0491 -0.0029,-0.55127 c -0.0028,-0.53376 -0.0035,-0.55184 -0.0222,-0.56876 -0.01247,-0.0113 -0.03055,-0.0169 -0.04866,-0.0168 z m 18.203323,0.003 v 5e-5 c -0.01127,0 -0.03733,0.0169 -0.05798,0.0375 -0.03251,0.0325 -0.0376,0.1362 -0.0376,0.77185 0,0.53923 0.0076,0.74184 0.02867,0.7629 0.04096,0.041 0.130906,0.0355 0.147994,-0.009 0.008,-0.0208 0.0145,-0.36413 0.0145,-0.76296 0,-0.62736 -0.0051,-0.7302 -0.03755,-0.7627 -0.02066,-0.0206 -0.04677,-0.0375 -0.05803,-0.0375 z m -16.106937,4.1e-4 c -0.258004,0 -0.273209,0.004 -0.290317,0.0175 l -0.02353,0.019 v 0.71183 c 0,0.68619 10e-4,0.71255 0.01866,0.73248 0.01863,0.0206 0.02123,0.0207 0.620326,0.0207 0.56282,0 0.605349,-0.001 0.66128,-0.0186 0.150964,-0.047 0.261026,-0.16826 0.295077,-0.32513 0.01597,-0.0736 0.0097,-0.80449 -0.0072,-0.85496 -0.03899,-0.1156 -0.14758,-0.23258 -0.257,-0.27689 -0.05412,-0.0219 -0.05799,-0.0221 -0.66926,-0.0248 -0.149008,-9.4e-4 -0.261968,-0.001 -0.347965,-0.001 z m -3.560058,6e-5 c -0.408161,-0.001 -0.424814,0.007 -0.518429,0.0674 -0.06802,0.044 -0.118901,0.10351 -0.155912,0.18254 l -0.02727,0.0583 v 0.44703 0.44702 l 0.03198,0.065 c 0.05222,0.10605 0.137354,0.18015 0.247902,0.21576 0.04939,0.0159 0.101378,0.0173 0.607802,0.0154 l 0.553785,-0.002 0.01952,-0.0262 c 0.02258,-0.0302 0.01785,-0.0662 -0.01273,-0.0968 -0.01884,-0.0188 -0.03481,-0.0194 -0.557956,-0.0194 h -0.53854 l -0.06011,-0.0301 c -0.06341,-0.0317 -0.108395,-0.0789 -0.136495,-0.1434 -0.01301,-0.0298 -0.01657,-0.0705 -0.01706,-0.19479 l -10e-4,-0.15714 0.600795,-0.003 0.600909,-0.003 0.02102,-0.0268 c 0.01542,-0.0196 0.01951,-0.0347 0.01518,-0.0563 -0.01244,-0.0622 0.02215,-0.0588 -0.636792,-0.0641 l -0.601116,-0.005 v -0.1473 c 0,-0.12096 0.0033,-0.15594 0.01856,-0.19549 0.02392,-0.062 0.07527,-0.11839 0.137944,-0.15147 l 0.04969,-0.0263 0.548321,-0.005 c 0.534027,-0.005 0.548631,-0.005 0.562613,-0.0246 0.02525,-0.0346 0.02728,-0.0636 0.0064,-0.0917 l -0.01952,-0.0262 -0.539078,-0.003 c -0.07561,0 -0.141794,-9.3e-4 -0.200085,-9.3e-4 z m -11.331857,0.002 v 6e-5 c -0.0282,3.1e-4 -0.05642,0.0108 -0.06749,0.0315 -0.01104,0.0206 -0.01484,0.20958 -0.01182,0.58983 0.0043,0.55307 0.0049,0.56043 0.04032,0.63899 0.04397,0.0973 0.146732,0.19129 0.24074,0.22025 0.09428,0.029 0.915072,0.033 0.951224,0.005 0.04001,-0.0315 0.0455,-0.0787 0.01364,-0.11809 l -0.02909,-0.036 -0.451093,-0.007 c -0.511609,-0.008 -0.503867,-0.007 -0.569724,-0.13553 -0.03318,-0.0649 -0.0338,-0.0761 -0.0338,-0.59748 0,-0.33749 -0.0057,-0.5419 -0.01557,-0.56036 -0.01096,-0.0205 -0.03913,-0.0305 -0.06734,-0.0303 z m -0.720813,6e-5 c -0.0282,-3.1e-4 -0.05636,0.01 -0.06734,0.0302 -0.0098,0.0185 -0.01557,0.22286 -0.01557,0.56036 0,0.52111 -0.001,0.53258 -0.0338,0.59823 -0.0186,0.0368 -0.0568,0.0822 -0.08488,0.10087 -0.04963,0.033 -0.06176,0.034 -0.429855,0.034 -0.368024,0 -0.380175,-0.001 -0.428519,-0.0338 -0.02737,-0.0186 -0.06384,-0.0609 -0.08109,-0.094 -0.02985,-0.0572 -0.03158,-0.0864 -0.03583,-0.60791 -0.0031,-0.37536 -0.0097,-0.5542 -0.02129,-0.56807 -0.0093,-0.0112 -0.03737,-0.0182 -0.06278,-0.0157 -0.08351,0.008 -0.08542,0.0231 -0.08007,0.62064 0.0043,0.48412 0.0078,0.54885 0.03284,0.61561 0.03563,0.0948 0.145552,0.20628 0.23421,0.23758 0.09497,0.0335 0.755092,0.0364 0.865009,0.004 0.09977,-0.0296 0.190056,-0.10996 0.241589,-0.21491 l 0.04226,-0.086 0.0045,-0.55951 c 0.003,-0.38025 -10e-4,-0.5692 -0.01183,-0.58983 -0.01109,-0.0207 -0.03928,-0.0313 -0.06749,-0.0315 z m 2.996388,0.001 -0.493828,6e-5 -0.02578,0.0393 c -0.02309,0.0353 -0.02347,0.0434 -0.0035,0.0789 l 0.02225,0.0396 0.48029,0.007 c 0.550121,0.009 0.557646,0.0102 0.610048,0.12869 0.0227,0.0513 0.02838,0.0928 0.02498,0.18297 l -0.0044,0.11665 -0.488425,0.007 c -0.472083,0.007 -0.490527,0.009 -0.55245,0.0417 -0.126881,0.0678 -0.183878,0.19644 -0.183878,0.41499 0,0.226 0.08035,0.36125 0.251856,0.42408 0.04367,0.016 0.151865,0.0198 0.484472,0.017 0.475384,-0.004 0.47734,-0.004 0.568171,-0.10788 0.08261,-0.0941 0.09306,-0.1626 0.09306,-0.61155 0,-0.23277 -0.0068,-0.43437 -0.01631,-0.47842 -0.02413,-0.11251 -0.09577,-0.20916 -0.192064,-0.25919 l -0.0806,-0.0419 z m -10.693564,6e-5 -0.09162,0.0458 c -0.106739,0.0533 -0.172627,0.12265 -0.227202,0.23902 -0.03893,0.0829 -0.03915,0.0853 -0.03915,0.46661 0,0.36715 0.0014,0.38626 0.03428,0.45745 0.06871,0.14905 0.165506,0.23228 0.317868,0.27337 0.04736,0.0128 0.219957,0.0188 0.555865,0.0195 0.536243,0.001 0.542173,7e-5 0.542173,-0.0907 0,-0.0862 -0.01566,-0.0886 -0.569289,-0.0886 h -0.502543 l -0.06477,-0.038 c -0.03999,-0.0234 -0.08078,-0.0652 -0.106543,-0.109 l -0.04172,-0.0709 v -0.35439 -0.35434 l 0.04573,-0.0739 c 0.02924,-0.0473 0.06983,-0.0875 0.112701,-0.11151 0.06701,-0.0376 0.06697,-0.0376 0.582237,-0.0451 0.436023,-0.006 0.517509,-0.011 0.529546,-0.0301 0.01871,-0.0296 0.01834,-0.0703 -10e-4,-0.10622 -0.01493,-0.0279 -0.03692,-0.029 -0.546085,-0.029 z m 5.310143,3.1e-4 c -0.582444,3.1e-4 -0.586574,0.001 -0.71392,0.12446 -0.137892,0.13357 -0.157713,0.22252 -0.149433,0.67166 0.0069,0.37792 0.01763,0.42983 0.110393,0.53822 0.06338,0.074 0.140221,0.12311 0.231104,0.14762 0.04682,0.0126 0.218716,0.0188 0.545495,0.0195 0.45781,10e-4 0.478355,-2e-5 0.5072,-0.0291 0.03538,-0.0354 0.03831,-0.0732 0.0087,-0.1136 -0.02017,-0.0276 -0.04848,-0.0296 -0.529711,-0.0367 -0.478355,-0.007 -0.511516,-0.009 -0.560947,-0.0384 -0.06265,-0.0368 -0.114409,-0.10923 -0.136444,-0.19105 -0.0098,-0.0364 -0.01416,-0.18337 -0.01123,-0.37722 0.0045,-0.29514 0.0071,-0.32205 0.0385,-0.3806 0.03747,-0.0701 0.105456,-0.12694 0.182708,-0.15281 0.03381,-0.0113 0.208687,-0.0171 0.51725,-0.0171 0.412715,0 0.469392,-0.003 0.493725,-0.0249 0.03372,-0.0305 0.03548,-0.0851 0.0038,-0.11681 -0.02056,-0.0205 -0.09003,-0.0236 -0.537153,-0.0233 z m 7.124192,3.1e-4 c -0.368748,7.2e-4 -0.371884,0.0102 -0.371884,0.082 0,0.0817 0.0062,0.0826 0.531377,0.0826 0.472445,0 0.485776,9.3e-4 0.55036,0.0339 0.08058,0.0412 0.120204,0.11156 0.131092,0.23282 0.01049,0.11675 -0.0138,0.19686 -0.07873,0.25983 l -0.0537,0.0521 -0.461256,0.007 c -0.446798,0.007 -0.463068,0.009 -0.516184,0.0416 -0.08819,0.0549 -0.102961,0.11281 -0.102961,0.40456 0,0.21176 0.0038,0.25444 0.02487,0.2777 0.0324,0.0358 0.07296,0.0349 0.110392,-0.003 0.02753,-0.0275 0.03007,-0.0501 0.03007,-0.26748 0,-0.16464 0.0055,-0.243 0.01802,-0.25549 0.01291,-0.0129 0.110165,-0.018 0.34247,-0.018 h 0.324492 l 0.184033,0.26914 c 0.101233,0.14801 0.194362,0.27768 0.206937,0.28812 0.03391,0.0281 0.09999,0 0.117669,-0.0505 0.01319,-0.0375 10e-4,-0.0615 -0.138741,-0.26566 -0.08428,-0.12343 -0.153231,-0.23048 -0.153231,-0.2379 0,-0.007 0.0263,-0.0214 0.0584,-0.031 0.07247,-0.0217 0.17536,-0.11956 0.213086,-0.20265 0.02234,-0.0492 0.02849,-0.0984 0.02877,-0.22929 0,-0.15647 -0.0025,-0.17235 -0.04605,-0.25946 -0.02562,-0.0512 -0.06933,-0.11028 -0.09767,-0.13189 -0.09975,-0.0761 -0.126736,-0.0793 -0.670161,-0.08 -0.06865,-9e-5 -0.128794,-2e-4 -0.181476,-5e-5 z m -9.578779,8.3e-4 v 4.1e-4 c -0.203533,2.1e-4 -0.288288,0.005 -0.299943,0.0143 -0.02589,0.0215 -0.02794,0.10637 -0.0032,0.13115 0.01326,0.0132 0.145469,0.0181 0.499655,0.0183 0.545143,0 0.573264,0.005 0.638717,0.1112 0.02922,0.0473 0.03366,0.074 0.03209,0.19147 -0.0021,0.15363 -0.02273,0.20578 -0.100767,0.25411 -0.04338,0.0269 -0.07843,0.029 -0.473335,0.0293 -0.388083,0 -0.432246,0.003 -0.490082,0.0292 -0.113404,0.0515 -0.124189,0.0862 -0.124251,0.40146 -4.1e-5,0.22835 0.0038,0.27705 0.02354,0.29679 v 5e-5 c 0.02873,0.0287 0.06673,0.0302 0.102527,0.004 0.02377,-0.0174 0.02656,-0.0451 0.02493,-0.24983 -0.0014,-0.18532 0.0028,-0.23726 0.0216,-0.26598 l 0.02338,-0.0357 h 0.318975 0.318986 l 0.187842,0.27791 c 0.121084,0.17911 0.19935,0.28091 0.220247,0.28652 0.04429,0.0119 0.09309,-0.0171 0.104348,-0.0619 0.0093,-0.0372 -0.03181,-0.10557 -0.245915,-0.409 -0.059,-0.0836 -0.0632,-0.0949 -0.03862,-0.10322 0.134073,-0.0454 0.219926,-0.12129 0.268219,-0.23689 0.03009,-0.0719 0.03032,-0.34362 0,-0.42841 -0.03107,-0.0881 -0.09182,-0.16194 -0.172006,-0.20907 l -0.06905,-0.0405 -0.523563,-0.004 c -0.09592,-8.3e-4 -0.176964,-10e-4 -0.244808,-10e-4 z m 34.770182,0.019 v 6e-5 c -0.511816,0 -0.597213,0.005 -0.62433,0.0378 -0.02276,0.0274 -0.02446,0.0488 -0.0063,0.0777 0.02196,0.0349 0.09898,0.0413 0.61988,0.0517 0.653715,0.0131 0.682881,0.0193 0.740189,0.1565 0.07022,0.16806 0.03126,0.31686 -0.107454,0.41033 -0.07811,0.0527 -0.09872,0.0545 -0.61043,0.0545 -0.678699,0 -0.634226,-0.03 -0.634226,0.42703 0,0.18128 0.0071,0.33675 0.01594,0.34551 h 6.2e-5 c 0.0088,0.009 0.04077,0.0159 0.07119,0.0159 0.06978,0 0.07859,-0.0365 0.08616,-0.35841 l 0.0059,-0.25089 0.396114,-0.007 0.396052,-0.006 0.213251,0.30518 c 0.174107,0.24918 0.225143,0.30659 0.278114,0.31273 0.05197,0.006 0.06781,-0.004 0.07959,-0.0511 0.0118,-0.047 -0.0206,-0.10752 -0.164037,-0.3062 -0.0983,-0.13618 -0.173807,-0.25564 -0.167783,-0.2655 0.006,-0.01 0.03147,-0.0179 0.05653,-0.0179 0.06314,0 0.214937,-0.13862 0.253895,-0.23185 0.04177,-0.10004 0.04143,-0.34565 -0.001,-0.44398 -0.03979,-0.093 -0.145945,-0.1961 -0.23748,-0.23068 -0.04093,-0.0155 -0.299352,-0.0254 -0.660163,-0.0254 z m -10.072545,6e-5 c -0.482505,0 -0.511278,0.003 -0.610431,0.055 -0.07111,0.0376 -0.121446,0.088 -0.159058,0.15907 -0.05181,0.098 -0.05504,0.13035 -0.05504,0.55506 0,0.35304 0.008,0.47022 0.03696,0.53951 0.04647,0.11122 0.121612,0.19365 0.213944,0.23469 0.0534,0.0237 0.225836,0.0319 0.67578,0.0328 0.537774,9.4e-4 0.605773,-0.003 0.619135,-0.0382 0.0083,-0.0215 0.004,-0.0565 -0.0093,-0.0777 -0.02093,-0.0332 -0.105621,-0.0402 -0.612718,-0.0505 l -0.588395,-0.0119 -0.07686,-0.0769 c -0.07306,-0.0731 -0.07691,-0.086 -0.07808,-0.26283 l -0.0012,-0.18602 0.597369,-0.0119 c 0.535393,-0.0107 0.604293,-0.0167 0.664281,-0.0573 0.106781,-0.0724 0.147114,-0.17198 0.146659,-0.36188 -0.001,-0.1949 -0.04885,-0.30106 -0.17655,-0.38712 -0.07666,-0.0517 -0.10057,-0.0539 -0.586356,-0.0539 z m 5.501297,0 c -0.526617,0 -0.613381,0.005 -0.640539,0.0378 -0.02276,0.0274 -0.02447,0.0488 -0.0063,0.0777 0.02196,0.0349 0.09899,0.0413 0.619891,0.0518 0.742227,0.0149 0.750134,0.0183 0.750134,0.31653 0,0.16679 -0.04054,0.23725 -0.163239,0.2839 -0.03688,0.014 -0.271293,0.0214 -0.565181,0.0179 -0.540889,-0.007 -0.592608,0.003 -0.634753,0.11355 -0.03391,0.0892 -0.02913,0.614 0.0059,0.64925 0.03776,0.0378 0.102413,0.0365 0.134891,-0.003 0.01439,-0.0173 0.02897,-0.15337 0.03274,-0.30465 l 0.0068,-0.2733 0.549562,-0.0119 c 0.366254,-0.008 0.566454,-0.0216 0.600102,-0.0409 0.103168,-0.0592 0.196794,-0.19355 0.213778,-0.30684 0.03894,-0.25961 -0.03648,-0.46293 -0.207361,-0.55897 -0.08171,-0.0459 -0.126322,-0.0491 -0.696429,-0.0491 z m 2.522028,0 c -0.593219,0 -0.619539,0.002 -0.709853,0.0537 -0.05847,0.0333 -0.11475,0.093 -0.149381,0.15869 -0.05259,0.0997 -0.05552,0.12995 -0.05552,0.56592 0,0.26737 0.01071,0.48885 0.02546,0.5279 0.03358,0.0889 0.136381,0.19676 0.225432,0.23651 0.05354,0.0239 0.224015,0.032 0.673431,0.0329 0.58586,9.3e-4 0.602151,-1e-5 0.617272,-0.048 0.03504,-0.11047 -0.0042,-0.11831 -0.589513,-0.11831 -0.626049,0 -0.691171,-0.0134 -0.749803,-0.15377 -0.01924,-0.046 -0.03504,-0.15392 -0.03504,-0.23977 v -0.15607 h 0.620429 c 0.569859,0 0.622302,-0.004 0.643157,-0.0425 0.0144,-0.0269 0.01425,-0.0575 0,-0.0836 -0.0209,-0.0373 -0.08094,-0.0411 -0.643106,-0.0411 h -0.620107 v -0.14419 c 0,-0.16913 0.04541,-0.29329 0.123444,-0.33776 0.04043,-0.023 0.21619,-0.0351 0.638665,-0.0438 0.501963,-0.0103 0.586253,-0.0173 0.60716,-0.0505 0.01336,-0.0212 0.01753,-0.0562 0.0093,-0.0777 -0.01336,-0.0348 -0.08254,-0.0387 -0.631068,-0.0387 z m 7.558218,0.001 c -0.246868,0.002 -0.297914,0.0225 -0.375301,0.0877 -0.150799,0.12689 -0.163488,0.19127 -0.164036,0.83442 0,0.31753 0.006,0.59436 0.01396,0.61529 0.0173,0.0449 0.117917,0.0504 0.145417,0.008 0.01064,-0.0164 0.01931,-0.28979 0.01931,-0.60749 0,-0.54908 0.0025,-0.58099 0.05006,-0.64518 0.08602,-0.11595 0.133266,-0.12693 0.566402,-0.12693 0.430796,0 0.509642,0.0169 0.571597,0.12537 0.02167,0.0379 0.03404,0.23096 0.04252,0.66284 l 0.01193,0.60936 h 0.07171 0.07167 l 0.0064,-0.61893 c 0.006,-0.58722 0.0038,-0.62414 -0.04391,-0.72264 -0.09572,-0.19773 -0.13485,-0.21054 -0.667376,-0.21912 -0.134032,-0.002 -0.238101,-0.003 -0.320383,-0.003 z m 2.381527,0.001 5.1e-5,1.1e-4 c -0.255354,0 -0.286497,0.0108 -0.364494,0.0503 -0.0734,0.0371 -0.129385,0.0905 -0.177678,0.16944 l -0.07049,0.11516 0.0045,0.45783 c 0.0045,0.45424 0.0051,0.45866 0.07022,0.56394 0.04146,0.0669 0.104876,0.12677 0.171799,0.16211 0.104173,0.055 0.116769,0.0559 0.704874,0.0496 l 0.598818,-0.006 v -0.0717 -0.0717 l -0.586522,-0.012 c -0.802567,-0.0164 -0.78756,-0.004 -0.787291,-0.6384 0,-0.32662 0.0061,-0.38608 0.04439,-0.44413 0.0953,-0.14454 0.106636,-0.14697 0.744028,-0.15998 l 0.585394,-0.0119 v -0.0717 -0.0717 l -0.597431,-0.006 c -0.144972,-0.002 -0.255044,-0.003 -0.340162,-0.003 z m -4.62629,0.001 c -0.265042,0 -0.2919,0.0109 -0.361556,0.0505 -0.05247,0.0298 -0.119531,0.0967 -0.14965,0.14917 -0.05273,0.0919 -0.05434,0.11202 -0.04824,0.59871 0.0062,0.49286 0.0076,0.50551 0.066,0.59154 0.03286,0.0484 0.102744,0.10934 0.155322,0.13553 0.08789,0.0438 0.144164,0.0477 0.699689,0.0477 0.537246,2e-5 0.605742,-0.004 0.619083,-0.0391 0.0083,-0.0215 0.004,-0.0565 -0.0093,-0.0777 -0.02092,-0.0332 -0.105156,-0.0402 -0.607109,-0.0505 -0.422464,-0.009 -0.598186,-0.0207 -0.638613,-0.0437 -0.07961,-0.0454 -0.123444,-0.16956 -0.123444,-0.3498 v -0.15606 h 0.618338 c 0.535031,0 0.622561,-0.005 0.64974,-0.0379 0.02279,-0.0275 0.02451,-0.0488 0.0063,-0.0777 -0.0222,-0.0352 -0.09712,-0.0406 -0.64974,-0.0462 l -0.624651,-0.006 v -0.15606 c 0,-0.17171 0.04087,-0.27785 0.12569,-0.32632 0.03782,-0.0216 0.228775,-0.034 0.65092,-0.0425 l 0.597369,-0.012 v -0.0717 -0.0717 l -0.621278,-0.006 c -0.151689,-0.001 -0.266491,-0.002 -0.354828,-0.002 z m 6.781577,0 c -0.25937,1e-5 -0.28775,0.011 -0.357446,0.0501 -0.06284,0.0353 -0.113985,0.0902 -0.14933,0.16024 -0.0502,0.0995 -0.05375,0.13702 -0.05375,0.56587 0,0.26645 0.01066,0.48754 0.0254,0.52656 0.03359,0.0889 0.136443,0.19677 0.225494,0.23651 0.05342,0.0239 0.222038,0.032 0.661829,0.0329 0.534483,9.3e-4 0.592432,-0.003 0.613308,-0.0403 0.01463,-0.0261 0.01478,-0.0567 0,-0.0836 -0.02077,-0.0388 -0.07081,-0.0425 -0.584587,-0.0425 -0.629681,0 -0.679786,-0.0105 -0.740612,-0.15612 -0.01868,-0.0447 -0.03396,-0.15152 -0.03396,-0.23737 v -0.15606 h 0.622023 c 0.553827,0 0.623648,-0.004 0.637009,-0.0391 0.0083,-0.0215 0.004,-0.0565 -0.0093,-0.0777 -0.02116,-0.0336 -0.103603,-0.0394 -0.637009,-0.045 l -0.612718,-0.006 v -0.14377 c 0,-0.16875 0.04546,-0.29299 0.123444,-0.33743 0.04047,-0.0231 0.216625,-0.035 0.641232,-0.0437 l 0.585384,-0.012 v -0.0717 -0.0717 l -0.609292,-0.006 c -0.148067,-0.001 -0.26024,-0.002 -0.346797,-0.002 h -6.2e-5 z m -24.533114,0.11927 h 0.533458 c 0.601219,0 0.598631,-3e-5 0.678078,0.0696 0.05852,0.0515 0.09034,0.10682 0.103655,0.18013 0.01388,0.0765 0.01388,0.63185 0,0.70836 -0.0058,0.032 -0.02122,0.0766 -0.03423,0.0991 -0.03216,0.0555 -0.103862,0.11654 -0.158799,0.13527 -0.03914,0.0133 -0.119594,0.0155 -0.58379,0.0155 h -0.538374 v -0.60395 z m 4.413794,0.044 c 0.53499,0 0.584059,0.0214 0.585498,0.25496 0.001,0.15755 -0.01356,0.19287 -0.0966,0.23582 -0.05334,0.0275 -0.178848,0.035 -0.595185,0.035 -0.600402,0 -0.564457,0.014 -0.543881,-0.21281 0.02578,-0.28431 0.08519,-0.31294 0.650164,-0.31294 z m -16.239045,0.57913 -0.0048,0.23421 -0.0048,0.23421 -0.04905,0.0438 -0.0491,0.0438 h -0.418511 c -0.406568,0 -0.419692,-9.3e-4 -0.459922,-0.0326 -0.06009,-0.0473 -0.08285,-0.11567 -0.08279,-0.24871 5.1e-5,-0.13395 0.02718,-0.19502 0.108726,-0.24474 0.04602,-0.0281 0.07649,-0.0299 0.504633,-0.0299 z" />
      </g>
    </g>
  </g>
</svg>
