<?xml version="1.0" encoding="UTF-8" standalone="no"?>
<!-- Created with Inkscape (http://www.inkscape.org/) -->

<svg
   width="48.074776mm"
   height="39.081741mm"
   viewBox="0 0 48.074776 39.081741"
   version="1.1"
   id="svg1"
   sodipodi:docname="tree_ic_08.svg"
   inkscape:version="1.4 (86a8ad7, 2024-10-11)"
   xmlns:inkscape="http://www.inkscape.org/namespaces/inkscape"
   xmlns:sodipodi="http://sodipodi.sourceforge.net/DTD/sodipodi-0.dtd"
   xmlns="http://www.w3.org/2000/svg"
   xmlns:svg="http://www.w3.org/2000/svg">
  <sodipodi:namedview
     id="namedview1"
     pagecolor="#505050"
     bordercolor="#ffffff"
     borderopacity="1"
     inkscape:showpageshadow="0"
     inkscape:pageopacity="0"
     inkscape:pagecheckerboard="1"
     inkscape:deskcolor="#505050"
     inkscape:document-units="mm"
     inkscape:zoom="0.71891835"
     inkscape:cx="77.894798"
     inkscape:cy="145.35726"
     inkscape:window-width="1920"
     inkscape:window-height="1009"
     inkscape:window-x="1912"
     inkscape:window-y="-8"
     inkscape:window-maximized="1"
     inkscape:current-layer="layer1" />
  <defs
     id="defs1" />
  <g
     inkscape:label="Ebene 1"
     inkscape:groupmode="layer"
     id="layer1"
     transform="translate(-84.455693,-109.94728)">
    <path
       id="path1-1"
       style="fill:#000000"
       d="m 97.769061,111.71213 c -2.17176,-0.1959 -4.14784,0.53314 -5.65547,2.0867 -1.70172,1.75355 -2.31401,3.16914 -2.34921,5.43171 -0.024,1.53899 -0.1377,2.04178 -0.56896,2.51354 -1.55211,1.6979 -2.16023,5.41937 -1.26762,7.75663 0.56764,1.48634 2.69894,4.22889 4.03593,5.19348 1.06321,0.76708 2.14457,0.93741 2.66288,0.4191 0.4948,-0.4948 0.40589,-0.60639 -0.98288,-1.23403 -1.34526,-0.60799 -3.24914,-2.56728 -4.09846,-4.21732 -1.11084,-2.15812 -0.65845,-5.55315 0.96997,-7.27759 0.82312,-0.87162 0.85389,-0.98157 0.77049,-2.76727 -0.0974,-2.08683 0.24703,-3.03695 1.63763,-4.51601 1.24814,-1.32752 2.54998,-1.89599 4.32583,-1.88929 1.98664,0.007 3.388279,0.6577 4.748029,2.20245 1.30355,1.48091 1.80358,3.06154 1.55081,4.89945 -0.16858,1.22569 -0.11795,1.41363 0.62891,2.343 1.75936,2.18929 2.05723,5.38181 0.67851,7.27088 -0.35053,0.48028 -0.74792,1.11847 -0.88315,1.41852 -0.36434,0.80842 -2.04502,2.19524 -3.2396,2.67322 -1.001909,0.40088 -1.028109,0.44147 -0.59893,0.91571 0.55394,0.61209 1.36544,0.63361 2.22622,0.0594 2.59527,-1.7312 4.49841,-4.75862 4.68964,-7.46053 0.15157,-2.14139 -0.19044,-3.50622 -1.29708,-5.17695 -0.74786,-1.12908 -0.8337,-1.4523 -0.7798,-2.9378 0.0781,-2.15545 -0.63571,-3.85929 -2.30373,-5.49786 -1.48617,-1.45993 -2.710249,-2.01164 -4.899959,-2.20916 z m 20.962539,2.05879 c -1.14774,0.0191 -2.28046,0.45836 -3.13572,1.31362 -0.44426,0.44425 -0.87773,1.08501 -0.96273,1.42368 -0.10915,0.43488 -0.40634,0.66311 -1.01183,0.7767 -0.86252,0.16181 -1.95437,1.11517 -2.50527,2.18746 -0.68907,1.34122 0.002,3.48741 1.40198,4.35478 0.74713,0.46291 1.29321,0.49906 6.56497,0.43201 l 5.75004,-0.0734 0.84129,-0.84129 c 0.68498,-0.68543 0.86195,-1.10299 0.95395,-2.24896 0.14644,-1.82395 -0.62645,-3.07971 -2.24224,-3.64267 -0.72648,-0.25312 -1.14907,-0.57906 -1.24437,-0.9586 -0.0794,-0.31618 -0.61331,-0.9983 -1.18597,-1.51567 -0.91404,-0.82578 -2.07635,-1.2268 -3.2241,-1.20768 z m 0.15762,1.46348 c 1.77302,0 2.68546,0.82053 3.40651,3.06441 0.10381,0.32305 0.42552,0.46302 1.06401,0.46302 0.98889,0 2.01177,0.95358 2.01177,1.87534 0,0.82153 -0.55887,1.75755 -1.23249,2.06447 -0.39787,0.18129 -2.50849,0.29352 -5.51232,0.29352 -4.73968,0 -4.88659,-0.0162 -5.59656,-0.62683 -0.55525,-0.47761 -0.72915,-0.86469 -0.72915,-1.62212 0,-1.20953 1.03526,-2.24896 2.23965,-2.24896 0.66478,0 0.84408,-0.15785 1.20562,-1.06143 0.55881,-1.3966 1.708,-2.20142 3.14296,-2.20142 z m -21.298959,10.18181 c -0.0823,-0.0215 -0.18995,-0.0117 -0.33073,0.008 -0.55099,0.0782 -0.60123,0.23733 -0.67283,2.13682 l -0.077,2.05207 -0.60874,-0.70745 c -0.39885,-0.46369 -0.75956,-0.64928 -1.04697,-0.53899 -0.73921,0.28366 -0.49124,1.19264 0.6196,2.27066 1.00743,0.97769 1.05833,1.1052 1.05833,2.64584 0,0.90258 -0.11703,1.61799 -0.26458,1.61799 -0.14552,0 -0.26458,0.23121 -0.26458,0.51366 0,0.28246 0.11906,0.58702 0.26458,0.67696 0.16048,0.0992 0.26458,2.03163 0.26458,4.91081 v 4.74648 h -4.2416 c -3.52627,0 -4.26743,0.0669 -4.39404,0.39688 -0.0838,0.21828 -0.0836,0.57666 5.1e-4,0.79582 0.13471,0.35103 2.61932,0.39043 20.864359,0.33073 l 20.7114,-0.0682 v -0.66145 c 0,-0.6114 -0.10511,-0.66714 -1.38906,-0.74104 -1.36297,-0.0785 -1.38907,-0.0959 -1.38907,-0.90899 0,-1.92569 -1.84906,-4.15376 -3.47058,-4.18166 -0.49225,-0.008 -0.76547,-0.29796 -1.24644,-1.32343 -0.72023,-1.53557 -2.17997,-2.53814 -4.07417,-2.79776 -1.53844,-0.21087 -3.80442,0.75381 -4.68912,1.99626 -0.50425,0.70816 -0.71796,0.81673 -1.34255,0.67954 -1.47566,-0.32411 -2.51316,0.11363 -4.29431,1.81178 -1.97574,1.88367 -2.31408,2.42966 -2.31408,3.73569 v 0.95084 l -3.63802,-0.0734 -3.638019,-0.0739 -0.0723,-4.6762 c -0.0693,-4.4941 -0.0513,-4.6835 0.46302,-4.84673 0.61683,-0.19577 0.73261,-1.19269 0.13849,-1.19269 -0.31497,0 -0.39688,-0.38208 -0.39688,-1.8526 0,-1.82582 0.0154,-1.86638 1.05834,-2.80862 1.078489,-0.97435 1.352049,-1.78382 0.68936,-2.03811 -0.20279,-0.0778 -0.64126,0.14899 -0.97462,0.50384 -0.79747,0.84887 -1.02852,0.47042 -1.03352,-1.69395 -0.003,-1.18628 -0.0219,-1.53124 -0.26872,-1.59577 z m 20.663849,12.53412 c 1.23624,0.27152 2.56993,1.7094 2.77503,2.99206 0.17408,1.08864 0.19061,1.10278 1.27434,1.10278 0.60387,0 1.3635,0.18629 1.68775,0.41341 0.84029,0.58856 1.42277,1.83815 1.22473,2.62723 l -0.1664,0.66352 h -9.23199 -9.23148 v -0.89038 c 0,-1.04009 0.87153,-2.28462 1.5999,-2.28462 0.28677,0 0.67263,-0.32761 0.89711,-0.76171 0.21664,-0.41893 0.5866,-0.83564 0.82217,-0.92604 0.78636,-0.30176 2.05801,-0.16866 2.53731,0.2651 0.58255,0.5272 1.28726,0.30151 1.28726,-0.41186 0,-1.48617 2.74702,-3.17984 4.52427,-2.78949 z" />
  </g>
</svg>
