<?xml version="1.0" encoding="UTF-8" standalone="no"?>
<!-- Created with Inkscape (http://www.inkscape.org/) -->

<svg
   width="48.074776mm"
   height="39.081741mm"
   viewBox="0 0 48.074776 39.081741"
   version="1.1"
   id="svg1"
   sodipodi:docname="tree_ic_14.svg"
   inkscape:version="1.4 (86a8ad7, 2024-10-11)"
   xmlns:inkscape="http://www.inkscape.org/namespaces/inkscape"
   xmlns:sodipodi="http://sodipodi.sourceforge.net/DTD/sodipodi-0.dtd"
   xmlns="http://www.w3.org/2000/svg"
   xmlns:svg="http://www.w3.org/2000/svg">
  <sodipodi:namedview
     id="namedview1"
     pagecolor="#505050"
     bordercolor="#ffffff"
     borderopacity="1"
     inkscape:showpageshadow="0"
     inkscape:pageopacity="0"
     inkscape:pagecheckerboard="1"
     inkscape:deskcolor="#505050"
     inkscape:document-units="mm"
     inkscape:zoom="0.71891835"
     inkscape:cx="77.894798"
     inkscape:cy="145.35726"
     inkscape:window-width="1920"
     inkscape:window-height="1009"
     inkscape:window-x="1912"
     inkscape:window-y="-8"
     inkscape:window-maximized="1"
     inkscape:current-layer="layer1" />
  <defs
     id="defs1" />
  <g
     inkscape:label="Ebene 1"
     inkscape:groupmode="layer"
     id="layer1"
     transform="translate(-84.455693,-109.94728)">
    <path
       id="path1-2"
       style="fill:#000000"
       d="m 108.24759,112.04771 -16.903877,0.0677 v 2.64584 2.64583 l 1.38907,0.0801 1.38906,0.0801 v 13.87667 13.87668 h -1.72806 c -1.78309,0 -2.22906,0.28232 -1.88051,1.19062 0.2241,0.584 4.98406,0.5746 5.46995,-0.0108 0.25654,-0.3091 0.26456,-0.48269 0.0326,-0.71469 -0.22428,-0.22425 -0.30644,-4.04749 -0.30644,-14.27613 v -13.97021 h 12.766137 12.76615 l -0.0114,13.95988 c -0.006,7.67787 -0.10583,14.11277 -0.22117,14.29938 -0.484,0.78313 0.36453,1.1095 2.88251,1.1095 2.02116,0 2.48183,-0.0758 2.61792,-0.43047 0.30713,-0.80037 -0.34821,-1.15703 -2.12545,-1.15703 h -1.68723 v -13.89063 -13.89063 h 1.26969 c 0.6985,0 1.41287,-0.14267 1.5875,-0.31729 0.46125,-0.46123 0.4262,-4.555 -0.0424,-4.94389 -0.26138,-0.21693 -4.99814,-0.27987 -17.26406,-0.23047 z m -15.387167,1.5229 h 15.712217 15.7117 v 1.19063 l -5.2e-4,1.19062 h -15.875 -15.874997 l 0.004,-0.59531 c 0.002,-0.32742 0.0756,-0.86321 0.16329,-1.19063 z m 16.078077,7.20163 c -3.71078,-0.0409 -7.01476,-0.009 -7.34218,0.0713 l -0.59532,0.14573 v 12.16567 12.16567 h -1.554937 c -1.64264,0 -2.29196,0.37732 -1.99316,1.15703 0.14881,0.38779 1.23743,0.43046 10.993127,0.43046 9.42125,0 10.8476,-0.0517 10.98124,-0.39997 0.29609,-0.7716 -0.42237,-1.18752 -2.05207,-1.18752 h -1.55236 l -0.0687,-12.23698 -0.0687,-12.23699 z m -6.35,1.52962 h 5.82084 5.82083 v 11.50938 11.50937 h -5.82083 -5.82084 v -11.50937 z m 10.21437,10.42521 c -0.41274,-0.15839 -2.15965,0.75374 -2.11305,1.10329 0.0174,0.13083 0.37461,0.43902 0.79375,0.68523 0.96386,0.56619 1.27799,0.58364 1.68517,0.093 0.38593,-0.46503 0.14903,-1.68396 -0.36587,-1.88154 z" />
  </g>
</svg>
