<?xml version="1.0" encoding="UTF-8" standalone="no"?>
<!-- Created with Inkscape (http://www.inkscape.org/) -->

<svg
   width="48.074776mm"
   height="39.081741mm"
   viewBox="0 0 48.074776 39.081741"
   version="1.1"
   id="svg1"
   sodipodi:docname="tree_ic_03.svg"
   inkscape:version="1.4 (86a8ad7, 2024-10-11)"
   xmlns:inkscape="http://www.inkscape.org/namespaces/inkscape"
   xmlns:sodipodi="http://sodipodi.sourceforge.net/DTD/sodipodi-0.dtd"
   xmlns="http://www.w3.org/2000/svg"
   xmlns:svg="http://www.w3.org/2000/svg">
  <sodipodi:namedview
     id="namedview1"
     pagecolor="#505050"
     bordercolor="#ffffff"
     borderopacity="1"
     inkscape:showpageshadow="0"
     inkscape:pageopacity="0"
     inkscape:pagecheckerboard="1"
     inkscape:deskcolor="#505050"
     inkscape:document-units="mm"
     inkscape:zoom="0.71891835"
     inkscape:cx="77.894798"
     inkscape:cy="145.35726"
     inkscape:window-width="1920"
     inkscape:window-height="1009"
     inkscape:window-x="1912"
     inkscape:window-y="-8"
     inkscape:window-maximized="1"
     inkscape:current-layer="layer1" />
  <defs
     id="defs1" />
  <g
     inkscape:label="Ebene 1"
     inkscape:groupmode="layer"
     id="layer1"
     transform="translate(-84.455693,-109.94728)">
    <path
       id="path1-79"
       style="fill:#000000"
       d="m 89.618385,116.2158 -0.0687,12.96457 c -0.0379,7.13052 -0.0117,13.114 0.0584,13.29687 0.10097,0.26359 4.03956,0.31838 18.986445,0.26458 l 18.85932,-0.0677 V 129.44496 116.2158 h -18.91771 z m 1.788,1.45521 h 17.298695 17.2992 l -0.0692,11.7078 -0.0687,11.70781 -17.24753,0.0677 c -9.486005,0.0374 -17.295955,-0.0221 -17.356055,-0.13229 -0.19309,-0.35418 -0.2268,-19.10262 -0.0382,-21.26432 z m 29.121745,3.23081 -2.59932,0.0765 -0.0785,1.78594 -0.078,1.78593 h -1.3901 c -0.76461,0 -1.53328,0.14267 -1.70791,0.3173 -0.17975,0.17975 -0.31729,1.04069 -0.31729,1.98436 v 1.66708 h -1.69137 c -1.96159,0 -2.0128,0.0605 -2.0128,2.40244 v 1.56631 h -1.66708 c -0.94368,0 -1.80462,0.13755 -1.98437,0.3173 -0.1851,0.1851 -0.3173,1.07265 -0.3173,2.12855 v 1.81126 l -0.92604,-0.17363 c -0.50932,-0.0956 -1.34276,-0.0956 -1.85208,0 -0.75933,0.14245 -0.9259,0.29046 -0.92604,0.82269 v 5.1e-4 c 2e-5,0.63982 0.0336,0.64906 2.32854,0.64906 1.45815,0 2.447,-0.11846 2.64583,-0.3173 0.18429,-0.18429 0.31729,-1.06773 0.31729,-2.10529 v -1.78749 l 1.91823,-0.0775 1.91823,-0.078 0.0775,-1.91823 0.078,-1.91823 h 1.7079 c 1.1804,0 1.71381,-0.10218 1.72651,-0.33073 0.01,-0.1819 0.0399,-0.98558 0.0661,-1.78594 l 0.0481,-1.45519 1.44694,-0.0816 c 0.79595,-0.0451 1.59963,-0.20866 1.78594,-0.36329 0.21002,-0.17429 0.33899,-0.91785 0.33899,-1.95647 v -1.67535 l 1.78594,-0.078 c 1.6318,-0.0715 1.79332,-0.13078 1.87172,-0.68368 0.085,-0.59947 0.0617,-0.60447 -2.51354,-0.52917 z m -22.136125,4.6855 c -1.78795,-0.0114 -3.58559,0.098 -3.82612,0.33848 -0.33634,0.33634 -0.46999,7.97235 -0.15399,8.79584 0.14151,0.36877 0.67871,0.41573 4.03489,0.35243 l 3.871605,-0.0734 0.0729,-4.32997 c 0.0499,-2.9689 -0.0228,-4.44548 -0.23099,-4.69634 -0.20196,-0.24334 -1.98029,-0.37566 -3.768255,-0.38706 z m -2.55591,1.40507 2.05052,0.0884 c 1.12778,0.0486 2.318415,0.0948 2.645835,0.10181 0.58491,0.0131 0.59531,0.0713 0.59531,3.32072 v 3.30678 h -2.645835 -2.64583 v -3.40858 z m 2.66133,2.32027 c -0.60883,0 -0.91416,0.40381 -0.709,0.93845 0.0811,0.21131 0.38962,0.38447 0.68523,0.38447 0.39691,0 0.53744,-0.17299 0.53744,-0.66146 0,-0.47837 -0.14227,-0.66146 -0.51367,-0.66146 z" />
  </g>
</svg>
