<?xml version="1.0" encoding="UTF-8" standalone="no"?>
<!-- Created with Inkscape (http://www.inkscape.org/) -->

<svg
   width="48.074776mm"
   height="39.081741mm"
   viewBox="0 0 48.074776 39.081741"
   version="1.1"
   id="svg1"
   sodipodi:docname="tree_ic_02.svg"
   inkscape:version="1.4 (86a8ad7, 2024-10-11)"
   xmlns:inkscape="http://www.inkscape.org/namespaces/inkscape"
   xmlns:sodipodi="http://sodipodi.sourceforge.net/DTD/sodipodi-0.dtd"
   xmlns="http://www.w3.org/2000/svg"
   xmlns:svg="http://www.w3.org/2000/svg">
  <sodipodi:namedview
     id="namedview1"
     pagecolor="#505050"
     bordercolor="#ffffff"
     borderopacity="1"
     inkscape:showpageshadow="0"
     inkscape:pageopacity="0"
     inkscape:pagecheckerboard="1"
     inkscape:deskcolor="#505050"
     inkscape:document-units="mm"
     inkscape:zoom="0.71891835"
     inkscape:cx="77.894798"
     inkscape:cy="145.35726"
     inkscape:window-width="1920"
     inkscape:window-height="1009"
     inkscape:window-x="1912"
     inkscape:window-y="-8"
     inkscape:window-maximized="1"
     inkscape:current-layer="layer1" />
  <defs
     id="defs1" />
  <g
     inkscape:label="Ebene 1"
     inkscape:groupmode="layer"
     id="layer1"
     transform="translate(-84.455693,-109.94728)">
    <path
       id="path1-86"
       style="fill:#000000"
       d="m 108.57003,119.34306 c -21.669485,0.0643 -22.813785,0.0914 -23.092645,0.54622 -0.37279,0.60799 0.38068,1.24127 1.47691,1.24127 0.6413,0 0.74311,0.10346 0.74311,0.75654 0,0.41626 0.0746,1.30197 0.16588,1.96836 0.15598,1.13801 0.13202,1.20279 -0.39274,1.06556 -1.26463,-0.3307 -2.35028,0.41808 -1.98541,1.36891 0.12404,0.32327 0.76073,0.39688 3.43131,0.39688 h 3.27887 v 1.67173 c 0,1.63239 -0.0204,1.68102 -0.85989,2.05052 -0.70307,0.30945 -0.89171,0.5718 -1.03301,1.43712 -0.095,0.58208 -0.46708,1.96251 -0.82683,3.06803 -0.6674,2.0509 -0.60409,2.8851 0.21911,2.8851 0.22402,0 0.38396,0.25296 0.38396,0.60823 0,0.3347 0.14266,0.75142 0.31729,0.92604 h 5.2e-4 c 0.33097,0.33097 4.05121,0.45226 4.82038,0.1571 0.24818,-0.0952 0.41857,-0.47213 0.41857,-0.92604 0,-0.47376 0.13873,-0.76533 0.36432,-0.76533 0.20047,0 0.51103,-0.17713 0.6904,-0.39326 0.26337,-0.31734 0.17059,-0.89021 -0.48317,-2.97656 -0.44526,-1.42098 -0.84566,-2.82143 -0.88936,-3.11247 -0.044,-0.29271 -0.46078,-0.70652 -0.93327,-0.92605 -0.82799,-0.38469 -0.8539,-0.44764 -0.8599,-2.05052 l -0.006,-1.65364 h 7.143745 7.14375 v 1.67173 c 0,1.63239 -0.0204,1.68102 -0.85989,2.05052 -0.73312,0.32268 -0.88595,0.55433 -1.03767,1.56941 -0.0979,0.65484 -0.4253,1.8938 -0.7276,2.75333 -0.70361,2.00047 -0.70933,2.81042 -0.0207,2.99051 0.32534,0.0851 0.52916,0.36107 0.52916,0.71624 0,0.99173 0.50617,1.21284 2.77813,1.21284 2.27194,0 2.77812,-0.22111 2.77812,-1.21284 0,-0.35468 0.20355,-0.63102 0.52762,-0.71572 0.89297,-0.23352 0.89944,-0.9248 0.0336,-3.58221 -0.45862,-1.40754 -0.83192,-2.75975 -0.82992,-3.00499 0.002,-0.27119 -0.3587,-0.57717 -0.92191,-0.78083 -0.92504,-0.33444 -0.92604,-0.33687 -0.92604,-2.00143 v -1.66656 h 7.14375 7.14375 v 1.71979 c 0,1.29136 -0.0914,1.71979 -0.36742,1.71979 -0.66174,0 -1.52747,0.92427 -1.61747,1.72703 -0.0485,0.43258 -0.35809,1.74375 -0.68833,2.91403 -0.63773,2.25995 -0.57198,3.03186 0.25889,3.03186 0.38295,0 0.47776,0.13395 0.37414,0.5302 -0.26237,1.00333 0.35878,1.32188 2.58021,1.32188 2.57622,0 2.89956,-0.12131 2.89956,-1.08675 0,-0.47376 0.13873,-0.76533 0.36432,-0.76533 0.20046,0 0.52013,-0.18718 0.71003,-0.416 0.28832,-0.34741 0.22785,-0.7758 -0.36483,-2.5957 -0.39036,-1.19868 -0.70952,-2.44825 -0.70952,-2.77658 0,-0.95023 -0.46257,-1.56332 -1.32085,-1.75183 -0.78405,-0.17221 -0.79582,-0.20036 -0.79582,-1.87379 v -1.6986 h 3.31556 c 2.82555,0 3.3399,-0.0642 3.48145,-0.43305 0.27685,-0.72147 -0.2978,-1.28179 -1.40095,-1.36529 l -1.0325,-0.078 0.0775,-1.24489 c 0.13483,-2.16248 0.24272,-2.3937 1.15548,-2.4846 0.92125,-0.0917 1.45627,-0.70349 1.19993,-1.37149 -0.15302,-0.3988 -2.032,-0.42849 -22.96552,-0.36639 z m 17.77617,1.51567 c 0.8133,0.0337 1.64599,0.16772 1.72341,0.36949 0.0764,0.19924 0.10248,1.00291 0.0579,1.78593 l -0.0811,1.42369 -1.65365,-1.56166 c -0.90951,-0.8589 -1.65365,-1.66257 -1.65365,-1.78594 0,-0.19855 0.79384,-0.2652 1.60714,-0.23151 z m -17.61443,0.007 c 1.67597,0 3.04271,0.1093 3.04271,0.2434 0,0.13389 -0.53405,0.75897 -1.18649,1.38906 -0.65244,0.63009 -1.18862,1.2667 -1.19062,1.4149 -0.002,0.1482 0.29611,0.45177 0.663,0.67438 0.63324,0.38426 0.552,0.40549 -1.5968,0.41909 -2.36606,0.015 -2.74758,-0.24058 -1.36581,-0.91415 1.08354,-0.52821 0.93771,-1.09497 -0.5488,-2.13321 -0.47294,-0.33032 -0.8599,-0.71135 -0.8599,-0.84697 0,-0.13807 1.33885,-0.2465 3.04271,-0.2465 z m 9.65729,0.0393 c 2.29155,-0.0441 3.70417,0.0277 3.70417,0.1881 0,0.14263 -0.80207,0.98339 -1.78232,1.86811 -0.98024,0.8847 -1.8513,1.60868 -1.9358,1.60868 -0.12589,0 -3.69021,-3.43505 -3.69021,-3.55637 0,-0.0203 1.66687,-0.0693 3.70416,-0.10852 z m -27.847385,0.0424 c 0.9095,-0.0277 1.65364,0.044 1.65364,0.15916 0,0.11513 -0.66963,0.82213 -1.48776,1.57148 -0.81814,0.74935 -1.5325,1.36271 -1.5875,1.36271 -0.055,0 -0.0997,-0.5953 -0.0997,-1.32291 0,-0.72761 -0.0297,-1.41222 -0.0661,-1.52136 -0.0364,-0.10914 0.67799,-0.22138 1.5875,-0.24908 z m 4.41265,0.0212 c 0.23742,-0.0911 1.92835,-0.0797 3.75739,0.0258 l 3.325375,0.19224 -1.01802,1.05213 c -0.56011,0.57894 -1.447715,1.39593 -1.971975,1.81539 l -0.95291,0.76275 -1.78594,-1.84124 c -1.41023,-1.45432 -1.69484,-1.87629 -1.35392,-2.00711 z m 8.638225,0.31574 0.71727,0.4315 c 0.39469,0.23745 0.94513,0.73346 1.22318,1.10174 0.44026,0.58311 0.45735,0.72738 0.13229,1.11932 -0.20529,0.24755 -0.75646,0.61041 -1.22473,0.80615 -0.46827,0.19574 -1.71742,0.35605 -2.77606,0.35605 h -1.924935 l 1.926485,-1.90738 z m 9.5126,0.0336 1.7818,1.69241 c 0.98018,0.93057 1.82219,1.78118 1.87069,1.89032 0.0485,0.10915 -0.84447,0.19795 -1.98438,0.1974 -1.59921,-7.6e-4 -2.26913,-0.12099 -2.93263,-0.52554 -0.47295,-0.28835 -0.85505,-0.6153 -0.84905,-0.72658 0.006,-0.11128 0.48375,-0.72524 1.06195,-1.36477 z m -19.873715,0.23616 1.6707,1.60404 1.67018,1.60455 -2.51923,0.1664 v 5.2e-4 c -1.38564,0.0917 -2.9347,0.16771 -3.44268,0.16846 l -0.92398,0.001 1.77251,-1.7725 z m 30.378495,0.10542 c 0.2573,0 3.2458,3.01702 3.2458,3.27681 0,0.0894 -1.43884,0.16278 -3.19722,0.16278 -1.75838,0 -3.15735,-0.10347 -3.10885,-0.22945 0.1608,-0.41765 2.82296,-3.21014 3.06027,-3.21014 z m -30.753155,10.58334 c 1.05333,0 1.32014,0.30275 1.94975,2.21123 l 0.49248,1.49293 h -2.36316 c -2.33127,0 -2.36136,-0.008 -2.173,-0.59531 0.10504,-0.32742 0.27995,-0.9859 0.38861,-1.46296 0.2792,-1.22585 0.71477,-1.64589 1.70532,-1.64589 z m 15.721005,0.0145 c 0.42289,-0.0204 0.83867,0.0912 1.04903,0.34468 0.16411,0.19774 0.52941,1.03118 0.81184,1.85208 l 0.51366,1.49294 h -2.3673 c -1.30185,0 -2.36678,-0.0385 -2.36678,-0.0853 0,-0.41913 0.95416,-2.79363 1.26814,-3.15588 0.2385,-0.27516 0.66852,-0.42811 1.09141,-0.44856 z m 15.63108,0.0796 c 0.71425,0.0482 1.1643,0.55324 1.58027,1.66501 0.29547,0.78971 0.53743,1.55028 0.53743,1.69034 0,0.14318 -0.98446,0.25476 -2.24895,0.25476 -1.26448,0 -2.24896,-0.11158 -2.24896,-0.25476 0,-0.78943 1.13414,-3.14334 1.56941,-3.25717 0.30524,-0.0798 0.57272,-0.11425 0.8108,-0.0982 z m 0.83871,5.09168 c 0.16978,-0.0146 0.3585,0.12247 0.4191,0.30437 0.0794,0.23823 -0.30262,0.33073 -1.36684,0.33073 -1.67301,0 -2.04715,-0.50786 -0.4191,-0.56896 0.58208,-0.0218 1.19707,-0.0515 1.36684,-0.0661 z m -31.073035,0.0858 c 0.1055,-0.0109 0.23461,0.10814 0.28681,0.26458 0.0593,0.17798 -0.40844,0.28474 -1.25005,0.28474 -0.73973,0 -1.34514,-0.11906 -1.34514,-0.26458 0,-0.14552 0.47625,-0.26459 1.05833,-0.26459 0.58208,0 1.14454,-0.009 1.25005,-0.0202 z m 14.514875,0.0202 c 1.06242,0 1.44594,0.0924 1.36684,0.32969 -0.10849,0.32541 -2.4134,0.54197 -2.70164,0.25373 -0.40534,-0.40533 0.002,-0.58342 1.3348,-0.58342 z" />
  </g>
</svg>
