<?xml version="1.0" encoding="UTF-8" standalone="no"?>
<!-- Created with Inkscape (http://www.inkscape.org/) -->

<svg
   width="48.074776mm"
   height="39.081741mm"
   viewBox="0 0 48.074776 39.081741"
   version="1.1"
   id="svg1"
   sodipodi:docname="tree_ic_17.svg"
   inkscape:version="1.4 (86a8ad7, 2024-10-11)"
   xmlns:inkscape="http://www.inkscape.org/namespaces/inkscape"
   xmlns:sodipodi="http://sodipodi.sourceforge.net/DTD/sodipodi-0.dtd"
   xmlns="http://www.w3.org/2000/svg"
   xmlns:svg="http://www.w3.org/2000/svg">
  <sodipodi:namedview
     id="namedview1"
     pagecolor="#505050"
     bordercolor="#ffffff"
     borderopacity="1"
     inkscape:showpageshadow="0"
     inkscape:pageopacity="0"
     inkscape:pagecheckerboard="1"
     inkscape:deskcolor="#505050"
     inkscape:document-units="mm"
     inkscape:zoom="0.71891835"
     inkscape:cx="77.894798"
     inkscape:cy="145.35726"
     inkscape:window-width="1920"
     inkscape:window-height="1009"
     inkscape:window-x="1912"
     inkscape:window-y="-8"
     inkscape:window-maximized="1"
     inkscape:current-layer="layer1" />
  <defs
     id="defs1" />
  <g
     inkscape:label="Ebene 1"
     inkscape:groupmode="layer"
     id="layer1"
     transform="translate(-84.455693,-109.94728)">
    <path
       id="path1-4"
       style="fill:#000000"
       d="m 108.14599,111.16572 c -0.45162,0 -0.54106,0.20314 -0.60926,1.38545 l -0.0796,1.38544 -8.2548,0.0698 -8.25427,0.0698 v 0.65887 c 0,0.52513 0.1611,0.68678 0.79375,0.79634 l 0.79375,0.13745 0.0682,15.27711 0.0682,15.2771 h -1.59783 c -1.64815,0 -2.09145,0.30154 -1.75028,1.19063 0.13343,0.34768 2.51081,0.39687 19.18229,0.39687 17.33046,0 19.04479,-0.0385 19.19521,-0.43046 0.29092,-0.75815 -0.35141,-1.15704 -1.86294,-1.15704 h -1.42523 l 0.0687,-15.2771 0.0682,-15.27711 0.79375,-0.13745 c 0.63264,-0.10956 0.79375,-0.27121 0.79375,-0.79634 v -0.65887 l -8.65167,-0.0698 -8.65115,-0.0692 -0.0801,-1.38596 c -0.0682,-1.18246 -0.15712,-1.38545 -0.60875,-1.38545 z m 14.68438,4.35684 v 15.35048 15.34997 h -1.98438 c -1.41045,0 -1.98454,-0.0957 -1.98541,-0.33073 -6.7e-4,-0.1819 0.20346,-1.31851 0.45372,-2.52594 0.53463,-2.57954 0.37358,-3.05489 -1.07487,-3.1781 -1.22017,-0.10379 -1.33722,-0.89065 -0.20257,-1.36064 1.40222,-0.58082 2.18409,-1.66231 2.23449,-3.09129 0.0433,-1.22666 0.0108,-1.29123 -0.69815,-1.37252 -0.48888,-0.0561 -1.04951,0.14792 -1.63607,0.59531 -0.49076,0.37432 -0.95982,0.68058 -1.04232,0.68058 -0.33798,0 -0.11951,-0.82194 0.25683,-0.96635 0.58293,-0.22369 1.18081,-1.50622 1.18081,-2.53318 0,-1.04395 -0.63611,-2.05672 -1.29191,-2.05672 -1.37511,0 -2.41721,2.98233 -1.52032,4.35115 0.62705,0.957 0.53395,1.05032 -0.39171,0.3912 -0.45393,-0.32322 -1.25429,-0.59815 -1.78594,-0.6134 -0.84015,-0.0241 -0.97266,0.0567 -1.03766,0.63355 -0.13236,1.17439 1.00488,2.98213 2.24741,3.57187 0.81503,0.38685 1.11748,0.68929 1.12448,1.12448 0.008,0.49641 -0.13305,0.59605 -0.85008,0.59945 -1.61296,0.008 -1.67507,0.17119 -1.16995,3.08508 0.24785,1.42978 0.44848,2.68862 0.44648,2.79776 -0.002,0.10914 -2.86163,0.19844 -6.35413,0.19844 h -6.35 v -5.44204 -5.44256 l -0.59531,0.0848 c -0.59224,0.0841 -0.59595,0.1119 -0.66715,5.44204 l -0.0713,5.35781 H 97.16011 94.25538 V 130.87723 115.5314 h 6.61458 6.61458 v 3.01066 3.01067 l -0.79116,0.32763 c -1.51991,0.62957 -3.72207,3.65316 -3.35587,4.60747 0.11987,0.31236 0.52741,0.42065 1.57923,0.42065 1.16978,0 1.52578,0.11556 2.03864,0.66146 0.78839,0.83921 1.60044,0.83921 2.59777,0 0.58269,-0.49029 1.09272,-0.66146 1.97197,-0.66146 1.65265,0 2.00349,-0.47588 1.37615,-1.86707 -0.49988,-1.10855 -2.08454,-2.71438 -3.16467,-3.20652 -0.53023,-0.24159 -0.65676,-0.54345 -0.79995,-1.90635 -0.0936,-0.89049 -0.13131,-2.21433 -0.0837,-2.94194 l 0.0868,-1.32291 6.94532,-0.0703 z m -14.55209,7.26622 c 0.18524,0 0.37048,0.0579 0.59532,0.17312 0.70961,0.36376 2.57968,2.11278 2.57968,2.41277 0,0.11599 -1.42875,0.21084 -3.175,0.21084 -1.74625,0 -3.175,-0.0949 -3.175,-0.21084 0,-0.29999 1.87008,-2.04901 2.57969,-2.41277 0.22484,-0.11526 0.41007,-0.17312 0.59531,-0.17312 z m 8.63927,8.66717 c 0.0707,0.0106 0.12011,0.15113 0.20877,0.43047 0.101,0.31825 0.10791,0.81638 0.0155,1.10743 -0.0924,0.29104 -0.33879,0.52916 -0.54726,0.52916 -0.48554,0 -0.49505,-1.06241 -0.0155,-1.71824 0.17541,-0.23989 0.26775,-0.35938 0.33848,-0.34882 z m -3.22564,3.96927 c 0.21457,-0.14708 0.7182,0.0616 1.30948,0.7643 0.37674,0.44772 0.68523,0.92397 0.68523,1.05833 0,0.51444 -1.0448,0.21242 -1.56838,-0.4532 -0.56624,-0.71985 -0.6409,-1.22235 -0.42633,-1.36943 z m 5.22552,0.21446 c 0.63783,0 0.28869,0.94435 -0.63717,1.72341 -0.92893,0.78164 -1.27073,0.82934 -1.27073,0.17828 0,-0.58411 1.32184,-1.90169 1.9079,-1.90169 z m -16.0445,2.8081 c -0.48602,0.1865 -0.68919,1.04558 -0.33176,1.40301 0.43444,0.43444 0.92487,0.34524 1.22938,-0.22376 0.3211,-0.59997 -0.29566,-1.41025 -0.89762,-1.17925 z m 13.60175,3.27732 h 1.88154 l -0.18345,0.99218 c -0.10099,0.54571 -0.31464,1.52797 -0.47491,2.18282 -0.27291,1.11515 -0.35264,1.19598 -1.25418,1.27124 l -0.96222,0.0801 -0.30592,-1.79989 c -0.16814,-0.99008 -0.36822,-2.00877 -0.44442,-2.26343 -0.12294,-0.41057 0.0748,-0.46302 1.74356,-0.46302 z" />
  </g>
</svg>
