<?xml version="1.0" encoding="UTF-8" standalone="no"?>
<!-- Created with Inkscape (http://www.inkscape.org/) -->

<svg
   width="48.074776mm"
   height="39.081741mm"
   viewBox="0 0 48.074776 39.081741"
   version="1.1"
   id="svg1"
   sodipodi:docname="tree_ic_24.svg"
   inkscape:version="1.4 (86a8ad7, 2024-10-11)"
   xmlns:inkscape="http://www.inkscape.org/namespaces/inkscape"
   xmlns:sodipodi="http://sodipodi.sourceforge.net/DTD/sodipodi-0.dtd"
   xmlns="http://www.w3.org/2000/svg"
   xmlns:svg="http://www.w3.org/2000/svg">
  <sodipodi:namedview
     id="namedview1"
     pagecolor="#505050"
     bordercolor="#ffffff"
     borderopacity="1"
     inkscape:showpageshadow="0"
     inkscape:pageopacity="0"
     inkscape:pagecheckerboard="1"
     inkscape:deskcolor="#505050"
     inkscape:document-units="mm"
     inkscape:zoom="0.71891835"
     inkscape:cx="297.66941"
     inkscape:cy="169.00389"
     inkscape:window-width="1920"
     inkscape:window-height="1009"
     inkscape:window-x="1912"
     inkscape:window-y="-8"
     inkscape:window-maximized="1"
     inkscape:current-layer="layer1" />
  <defs
     id="defs1" />
  <g
     inkscape:label="Ebene 1"
     inkscape:groupmode="layer"
     id="layer1"
     transform="translate(-84.455693,-109.94728)">
    <path
       id="path2-71"
       style="fill:#000000;stroke-width:0.832177"
       d="m 108.47398,113.76292 c -0.59021,0 -16.01941,10.3877 -16.02499,10.78883 -0.002,0.18165 0.29379,0.85043 0.6584,1.48621 0.66693,1.16292 1.17515,1.42744 1.71112,0.89148 0.2055,-0.2055 0.26405,1.67825 0.26405,8.47692 v 8.74141 h -0.97792 c -1.01387,0 -1.35105,0.23163 -1.1396,0.78267 0.1067,0.27799 2.20344,0.3134 15.59709,0.26447 15.30837,-0.0559 15.47411,-0.0611 15.47411,-0.49669 0,-0.36914 -0.16916,-0.45119 -1.04586,-0.50744 l -1.04585,-0.0671 v -8.68722 c 0,-8.54848 0.007,-8.68236 0.42789,-8.4193 0.54498,0.34034 1.00625,-0.0474 1.75585,-1.47546 0.52438,-0.99903 0.52603,-1.02013 0.11009,-1.42472 -0.83878,-0.8159 -15.36095,-10.35406 -15.76438,-10.35406 z m 0.0241,1.15165 7.21004,4.81557 c 3.96545,2.64862 7.30223,4.84635 7.41516,4.88396 0.16527,0.0551 -0.11431,0.86355 -0.42444,1.2269 -0.0368,0.0431 -0.49415,-0.21985 -1.01618,-0.58442 -1.64324,-1.14755 -12.82325,-8.46123 -13.09169,-8.56423 -0.14091,-0.0541 -3.38542,1.98912 -7.21004,4.54078 -3.82463,2.55166 -6.98748,4.6397 -7.02899,4.6397 -0.0415,0 -0.21607,-0.26402 -0.3879,-0.58658 -0.21187,-0.39773 -0.23566,-0.61231 -0.0731,-0.66699 0.13183,-0.0443 3.47272,-2.24592 7.42377,-4.89255 z m -0.0318,3.04769 1.50987,0.97791 1.50987,0.9779 -2.95395,0.005 c -1.62474,0.002 -2.91279,-0.0296 -2.86233,-0.0714 0.0504,-0.0418 0.70026,-0.48428 1.44406,-0.98307 z m -3.56374,2.40606 h 3.61104 3.61104 l 2.04785,1.3499 c 1.12617,0.74259 2.04742,1.38665 2.04742,1.43117 0,0.0445 -3.46784,0.0813 -7.70631,0.0813 -4.23847,0 -7.7063,-0.0368 -7.7063,-0.0813 0,-0.0445 0.92124,-0.68858 2.04742,-1.43117 z m -4.88395,3.3027 h 8.52553 8.52552 l 1.77692,1.13101 c 1.40212,0.89244 1.77693,1.24081 1.77693,1.65135 v 0.52034 h -3.14058 c -3.04553,0 -3.14696,-0.015 -3.35774,-0.4954 -0.21533,-0.49077 -0.26493,-0.49617 -5.34324,-0.55475 -5.16285,-0.0595 -5.99303,0.0414 -5.99303,0.72763 0,0.49836 -6.33993,0.47624 -6.53143,-0.0228 -0.17,-0.44301 -0.0579,-0.54571 2.02332,-1.85992 z m 20.6049,3.51085 v 1.51717 1.51761 l -1.02134,0.13977 c -1.93426,0.26512 -5.14701,0.1676 -5.27272,-0.15998 -0.0633,-0.16493 -0.085,-0.88327 -0.0482,-1.59631 l 0.0671,-1.29613 3.13757,-0.0611 z m -16.73369,0.0121 h 4.51369 4.5137 v 8.47692 8.47693 h -4.5137 -4.51369 v -8.47696 z m -7.59621,0.11009 h 3.1926 3.19262 l 0.0645,1.45654 0.0645,1.45698 -0.69752,0.13933 c -0.3836,0.0767 -1.82765,0.13976 -3.20895,0.13976 -1.91617,0 -2.53888,-0.0714 -2.62668,-0.30017 -0.0633,-0.16493 -0.085,-0.88328 -0.0482,-1.59631 z m 5.17423,3.4502 1.21099,0.0726 0.0645,1.7064 0.0641,1.70639 h -3.31173 -3.31217 v -1.63114 -1.63071 l 2.03667,-0.14836 c 1.12017,-0.0814 2.58162,-0.11528 3.24766,-0.0752 z m 13.70449,0.0899 c 0.51379,-0.0824 1.95047,-0.0815 3.19261,0.002 l 2.25857,0.15094 v 1.62168 1.62125 h -3.19261 -3.19261 v -1.62297 -1.62339 z m -18.98882,3.83595 h 3.3027 3.30271 v 1.54126 1.54127 h -3.30271 -3.3027 v -1.54127 z m 18.05478,0 h 3.19261 3.19261 v 1.54126 1.54127 h -3.19261 -3.19261 v -1.54127 z m -2.86622,0.31608 c -0.11193,8.3e-4 -0.22477,0.0399 -0.32639,0.12428 -0.40106,0.33285 -0.43337,1.02264 -0.055,1.1753 0.15137,0.0611 0.29183,0.11858 0.31221,0.12815 0.22444,0.10535 0.73364,-0.33839 0.73364,-0.63947 0,-0.45733 -0.32858,-0.79188 -0.66441,-0.78826 z m -15.18856,3.2068 h 3.3027 3.30271 v 1.54127 1.54125 h -3.30271 -3.3027 v -1.54128 z m 18.05478,0 h 3.19261 3.19261 v 1.54127 1.54125 h -3.19261 -3.19261 v -1.54128 z m -11.55946,3.41279 0.0662,1.26604 0.0658,1.26603 h -3.32463 -3.32463 l 0.0658,-1.22518 0.0662,-1.22518 3.19262,-0.0409 z m 11.55946,0.1101 h 3.19261 3.19261 v 1.21098 1.21099 h -3.19261 -3.19261 v -1.21099 z" />
  </g>
</svg>
