<?xml version="1.0" encoding="UTF-8" standalone="no"?>
<!-- Created with Inkscape (http://www.inkscape.org/) -->

<svg
   width="48.074776mm"
   height="39.081741mm"
   viewBox="0 0 48.074776 39.081741"
   version="1.1"
   id="svg1"
   sodipodi:docname="tree_ic_16.svg"
   inkscape:version="1.4 (86a8ad7, 2024-10-11)"
   xmlns:inkscape="http://www.inkscape.org/namespaces/inkscape"
   xmlns:sodipodi="http://sodipodi.sourceforge.net/DTD/sodipodi-0.dtd"
   xmlns="http://www.w3.org/2000/svg"
   xmlns:svg="http://www.w3.org/2000/svg">
  <sodipodi:namedview
     id="namedview1"
     pagecolor="#505050"
     bordercolor="#ffffff"
     borderopacity="1"
     inkscape:showpageshadow="0"
     inkscape:pageopacity="0"
     inkscape:pagecheckerboard="1"
     inkscape:deskcolor="#505050"
     inkscape:document-units="mm"
     inkscape:zoom="0.71891835"
     inkscape:cx="77.894798"
     inkscape:cy="145.35726"
     inkscape:window-width="1920"
     inkscape:window-height="1009"
     inkscape:window-x="1912"
     inkscape:window-y="-8"
     inkscape:window-maximized="1"
     inkscape:current-layer="layer1" />
  <defs
     id="defs1" />
  <g
     inkscape:label="Ebene 1"
     inkscape:groupmode="layer"
     id="layer1"
     transform="translate(-84.455693,-109.94728)">
    <path
       id="path1-7"
       style="fill:#000000"
       d="m 124.0682,109.96613 c -1.01498,0.0928 -2.06558,0.57354 -6.03374,2.41794 -2.95323,1.37267 -7.2747,3.35205 -9.60303,4.39869 -2.32834,1.04663 -4.88819,2.2188 -5.68855,2.6045 -1.40772,0.67838 -1.64948,0.70584 -7.408329,0.8387 l -5.95312,0.13695 v 0.66146 c 0,0.52491 0.1502,0.67877 0.7276,0.74517 l 0.7276,0.0837 v 12.81472 12.81472 h -1.46347 c -1.51007,0 -1.94873,0.32408 -1.61541,1.19269 0.1347,0.35104 2.61932,0.39042 20.864359,0.33073 l 20.7114,-0.0677 v -0.66146 c 0,-0.58878 -0.12334,-0.67081 -1.1219,-0.74311 l -1.12189,-0.0811 -0.0687,-12.0897 -0.0687,-12.08918 -1.79111,-0.0785 -1.7911,-0.0786 0.0713,-5.74228 0.0713,-5.7428 1.71979,-0.13229 c 1.62279,-0.12483 1.71979,-0.1696 1.71979,-0.79375 0,-0.63204 -0.0787,-0.66448 -1.77405,-0.73898 -0.43707,-0.0192 -0.77169,-0.0315 -1.11001,-5.1e-4 z m -2.20917,2.58847 c 0.10914,0.002 0.19844,2.38436 0.19844,5.29477 v 5.29166 h -1.27021 c -0.6985,0 -1.41288,0.14318 -1.5875,0.31781 -0.18435,0.18434 -0.31729,1.068 -0.31729,2.10685 v 1.78904 l -2.4474,0.076 -2.44739,0.076 -0.078,1.91823 c -0.0689,1.70103 -0.13634,1.91823 -0.59531,1.91823 -0.50128,0 -0.51728,-0.23099 -0.51728,-7.36235 v -7.36285 l 4.43177,-2.03347 c 2.43748,-1.11835 4.52107,-2.03185 4.63021,-2.02985 z m -10.53889,4.7656 c 0.0207,0 0.0344,3.12539 0.0294,6.94531 l -0.008,6.94531 -1.5875,0.1323 -1.5875,0.13229 -0.078,1.91823 -0.0775,1.91823 h -2.31666 c -1.44914,0 -2.43587,0.11921 -2.63446,0.31781 -0.17975,0.17974 -0.3173,1.04069 -0.3173,1.98437 h -5.1e-4 c 0,1.49049 -0.056,1.66657 -0.52917,1.66657 -0.51867,0 -0.52917,-0.17639 -0.52917,-8.86355 0,-4.87495 0.0354,-8.86354 0.0791,-8.86354 0.0437,0 2.20343,-0.95249 4.79919,-2.11666 2.59576,-1.16417 4.73685,-2.11667 4.75785,-2.11667 z m -18.896009,4.48396 3.90261,0.0734 3.902599,0.0729 0.0465,5.95312 c 0.0257,3.27422 -0.0176,7.16839 -0.0966,8.65322 l -0.14366,2.69958 -1.490869,0.0785 -1.49035,0.078 -0.078,1.91823 -0.0775,1.91874 h -2.23759 -2.23708 v -10.72286 z m 28.045839,2.92437 h 2.51354 2.51354 v 11.37708 11.37709 H 108.96059 92.424131 v -1.44591 -1.44642 l 2.84428,-0.0749 2.84427,-0.0754 0.0775,-1.90944 0.0775,-1.90945 2.965189,-0.0749 2.96519,-0.0749 0.0775,-1.90841 0.0775,-1.90893 2.56832,-0.0754 2.56832,-0.076 0.0775,-1.91823 0.078,-1.91823 h 2.76623 2.76676 v -1.98437 -1.98438 h 2.32854 c 1.45814,0 2.44699,-0.11845 2.64583,-0.31729 0.17975,-0.17975 0.3173,-1.0407 0.3173,-1.98438 z" />
  </g>
</svg>
