<?xml version="1.0" encoding="UTF-8" standalone="no"?>
<!-- Created with Inkscape (http://www.inkscape.org/) -->

<svg
   width="48.074776mm"
   height="39.081741mm"
   viewBox="0 0 48.074776 39.081741"
   version="1.1"
   id="svg1"
   sodipodi:docname="tree_ic_12.svg"
   inkscape:version="1.4 (86a8ad7, 2024-10-11)"
   xmlns:inkscape="http://www.inkscape.org/namespaces/inkscape"
   xmlns:sodipodi="http://sodipodi.sourceforge.net/DTD/sodipodi-0.dtd"
   xmlns="http://www.w3.org/2000/svg"
   xmlns:svg="http://www.w3.org/2000/svg">
  <sodipodi:namedview
     id="namedview1"
     pagecolor="#505050"
     bordercolor="#ffffff"
     borderopacity="1"
     inkscape:showpageshadow="0"
     inkscape:pageopacity="0"
     inkscape:pagecheckerboard="1"
     inkscape:deskcolor="#505050"
     inkscape:document-units="mm"
     inkscape:zoom="0.71891835"
     inkscape:cx="77.894798"
     inkscape:cy="145.35726"
     inkscape:window-width="1920"
     inkscape:window-height="1009"
     inkscape:window-x="1912"
     inkscape:window-y="-8"
     inkscape:window-maximized="1"
     inkscape:current-layer="layer1" />
  <defs
     id="defs1" />
  <g
     inkscape:label="Ebene 1"
     inkscape:groupmode="layer"
     id="layer1"
     transform="translate(-84.455693,-109.94728)">
    <path
       id="path1-88"
       style="fill:#000000"
       d="m 90.509053,112.22418 -0.0682,16.33492 -0.0682,16.33544 -1.05626,0.16898 c -0.86168,0.13779 -1.05627,0.27639 -1.05627,0.75241 0,0.32095 0.0811,0.66448 0.18035,0.76378 l 5.2e-4,5.2e-4 c 0.0993,0.0992 3.46279,0.14867 7.47448,0.11007 l 7.293607,-0.0703 0.0837,-0.72761 c 0.0832,-0.72261 0.0735,-0.7276 -1.52136,-0.7276 h -1.60507 v -1.45521 -1.45521 h 1.93167 c 1.14947,0 2.06,-0.12834 2.24896,-0.31729 0.18469,-0.18469 0.31729,-1.07009 0.31729,-2.11667 v -1.79937 h 1.60507 c 2.44665,0 2.62826,-0.17448 2.62826,-2.52284 v -1.97508 h 1.79938 c 1.04657,0 1.93197,-0.1326 2.11666,-0.31729 0.18468,-0.18469 0.3173,-1.07009 0.3173,-2.11667 v -1.79937 h 5.82497 5.82496 l -0.0703,7.87135 -0.0703,7.87136 -5.55625,0.0501 c -3.05594,0.0274 -6.28753,0.0566 -7.18147,0.0656 -1.24677,0.0125 -1.6639,0.11684 -1.79059,0.447 -0.42427,1.10559 -0.006,1.15703 9.40976,1.15703 8.0621,0 8.9887,-0.0441 9.13795,-0.43304 0.26841,-0.69947 -0.29756,-1.28081 -1.33222,-1.36891 l -0.96325,-0.0822 -0.0682,-16.322 -0.0682,-16.32201 h -17.85938 z m 34.263537,1.45159 v 7.01353 7.01301 H 108.232 91.690893 l 0.0703,-6.94531 0.0708,-6.94532 16.470317,-0.0677 z m -12.96458,15.60784 v 1.28519 1.28519 l -2.05052,0.23927 -2.05052,0.23926 -0.077,2.03967 -0.077,2.03966 -2.03967,0.077 -2.03967,0.077 -0.13229,2.06241 -0.13229,2.06241 -1.95234,0.1018 c -1.07385,0.0559 -2.050087,0.19941 -2.169367,0.31884 -0.11929,0.11942 -0.25283,1.05048 -0.29663,2.06913 l -0.0796,1.85208 -3.36052,0.045 -3.36051,0.0455 -0.15762,-1.10381 c -0.0872,-0.60691 -0.12216,-4.13938 -0.0791,-7.85016 l 0.0786,-6.74688 9.988017,-0.0692 z" />
  </g>
</svg>
