<?xml version="1.0" encoding="UTF-8" standalone="no"?>
<!-- Created with Inkscape (http://www.inkscape.org/) -->

<svg
   width="48.074776mm"
   height="39.081741mm"
   viewBox="0 0 48.074776 39.081741"
   version="1.1"
   id="svg1"
   sodipodi:docname="tree_ic_29.svg"
   inkscape:version="1.4 (86a8ad7, 2024-10-11)"
   xmlns:inkscape="http://www.inkscape.org/namespaces/inkscape"
   xmlns:sodipodi="http://sodipodi.sourceforge.net/DTD/sodipodi-0.dtd"
   xmlns="http://www.w3.org/2000/svg"
   xmlns:svg="http://www.w3.org/2000/svg">
  <sodipodi:namedview
     id="namedview1"
     pagecolor="#505050"
     bordercolor="#ffffff"
     borderopacity="1"
     inkscape:showpageshadow="0"
     inkscape:pageopacity="0"
     inkscape:pagecheckerboard="1"
     inkscape:deskcolor="#505050"
     inkscape:document-units="mm"
     inkscape:zoom="0.71891835"
     inkscape:cx="297.66941"
     inkscape:cy="169.00389"
     inkscape:window-width="1920"
     inkscape:window-height="1009"
     inkscape:window-x="1912"
     inkscape:window-y="-8"
     inkscape:window-maximized="1"
     inkscape:current-layer="layer1" />
  <defs
     id="defs1" />
  <g
     inkscape:label="Ebene 1"
     inkscape:groupmode="layer"
     id="layer1"
     transform="translate(-84.455693,-109.94728)">
    <path
       id="path2-6"
       style="fill:#000000;stroke-width:0.832177"
       d="m 129.80079,111.02246 c -0.32814,-0.019 -1.2705,0.78983 -6.23299,4.88782 -2.92918,2.4189 -5.32561,4.52745 -5.32561,4.68571 0,0.42258 0.65676,0.60253 1.12714,0.30877 0.22451,-0.14021 0.45903,-0.25501 0.5212,-0.25501 0.0622,0 0.1131,5.89532 0.1131,13.10072 v 13.10071 h -2.53208 -2.53206 l -0.005,-6.99072 c -0.006,-7.93259 -0.032,-8.07651 -1.82338,-9.9266 -2.1894,-2.26109 -4.9289,-2.76186 -7.68608,-1.40494 -1.57424,0.77475 -2.51039,1.74842 -3.25196,3.38269 -0.40338,0.88889 -0.43534,1.46404 -0.4395,7.94885 l -0.005,6.99072 h -2.532083 -2.53207 v -13.2108 c 0,-7.26595 0.0586,-13.21081 0.1303,-13.21081 0.0717,0 0.38682,0.20166 0.70011,0.44809 0.51508,0.40517 0.60234,0.41514 0.91169,0.1058 0.23836,-0.23837 0.27638,-0.43421 0.12556,-0.6455 -0.11904,-0.16678 -2.66666,-2.34225 -5.66146,-4.83449 -5.3134,-4.42176 -6.25888,-5.02141 -6.07086,-3.85014 0.0367,0.2285 1.99873,2.03127 4.36016,4.00581 l 4.29351,3.58997 0.0567,13.79609 0.0568,13.79652 -4.35028,0.0597 c -4.32597,0.0593 -4.35073,0.0623 -4.4208,0.55604 l -0.0701,0.4967 21.758273,-0.0563 c 21.59275,-0.0557 21.75827,-0.0593 21.75827,-0.49627 0,-0.42432 -0.16668,-0.44279 -4.57046,-0.50013 l -4.57046,-0.0593 0.0568,-13.69675 0.0568,-13.69675 2.97244,-2.48261 c 1.63484,-1.36562 3.63621,-3.00285 4.44746,-3.63814 1.64387,-1.28731 1.87972,-1.63757 1.41569,-2.1016 -0.0991,-0.0991 -0.14005,-0.19751 -0.24942,-0.20384 z m -39.293123,10.50801 c -0.89171,-0.003 -1.76667,0.0844 -1.94636,0.26405 -0.28823,0.28823 -0.38749,5.70401 -0.10966,5.98184 0.0848,0.0851 1.10041,0.12597 2.25684,0.0916 l 2.10246,-0.0623 0.0619,-2.86019 c 0.0542,-2.49755 0.0139,-2.89537 -0.31737,-3.13757 -0.24767,-0.1811 -1.15614,-0.27444 -2.04784,-0.27738 z m 35.723793,0.0512 c -0.82355,0.0484 -1.61011,0.14661 -1.79455,0.2606 -0.26753,0.16534 -0.36481,5.07803 -0.11354,5.73285 h -4.3e-4 c 0.11513,0.29988 0.46969,0.3457 2.25685,0.29286 l 2.12053,-0.0623 0.0611,-3.02189 0.0615,-3.02189 -0.57454,-0.14405 c -0.33293,-0.0836 -1.19333,-0.0846 -2.01689,-0.0361 z m -36.833303,1.2699 h 1.211 1.21099 v 1.98162 1.98162 h -1.21099 -1.211 v -1.98162 z m 36.109543,0 h 1.10091 1.10089 v 1.98162 1.98162 h -1.10089 -1.10091 v -1.98162 z m -18.28183,6.16505 c 0.44228,0 0.44724,0.10086 0.44724,8.91728 v 8.9173 h -0.51389 c -0.28257,0 -0.57578,-0.0623 -0.65151,-0.13805 -0.14844,-0.14843 0.023,-16.96428 0.1776,-17.42132 0.0512,-0.15137 0.29456,-0.27521 0.54056,-0.27521 z m 1.9455,0.0133 c 0.13824,-0.0655 0.32451,0.0237 0.5754,0.11998 0.30949,0.11878 0.34833,1.11088 0.34833,8.9173 v 8.78398 h -0.5139 c -0.28257,0 -0.57982,-0.0663 -0.66054,-0.14708 -0.0807,-0.0807 -0.14664,-4.09352 -0.14664,-8.91729 0,-6.97101 -0.0174,-8.56037 0.39735,-8.75689 z m 1.80445,0.6171 0.66054,0.47047 0.66054,0.47004 v 8.13204 8.13161 h -0.66054 -0.66054 v -8.60208 z m -5.27056,0.0301 c 0.10187,0 0.16551,3.83939 0.14104,8.53198 l -0.0447,8.53197 -0.57238,0.0662 c -0.55682,0.0647 -0.57632,0.0252 -0.69796,-1.43117 -0.0688,-0.82372 -0.0745,-4.51936 -0.0129,-8.21289 0.1066,-6.39053 0.13351,-6.73413 0.5569,-7.1008 0.24471,-0.21193 0.52812,-0.38532 0.63001,-0.38532 z m -2.03108,1.87153 0.0181,7.65125 c 0.0175,7.51042 0.01,7.65127 -0.42273,7.65127 -0.43126,0 -0.4406,-0.14487 -0.43477,-6.77054 0.005,-6.1786 0.0424,-6.84753 0.42273,-7.65126 z m 9.49526,0.4352 c 0.52347,0.32352 0.66659,2.10348 0.66742,8.31696 8.4e-4,6.40398 -0.009,6.55036 -0.43906,6.55036 -0.4317,0 -0.44036,-0.14713 -0.44036,-7.49946 0,-4.75111 0.0776,-7.45091 0.212,-7.36786 z m 13.55227,1.21314 c -0.86934,-0.0171 -1.7823,0.0559 -2.10935,0.23093 -0.38702,0.20711 -0.42574,0.48492 -0.42574,3.04554 0,1.54985 0.0696,2.8876 0.15439,2.97243 0.0848,0.0851 1.1004,0.12596 2.25684,0.0916 l 2.10247,-0.0623 0.0619,-2.8318 c 0.0414,-1.89987 -0.0219,-2.9323 -0.19223,-3.13756 -0.15312,-0.18449 -0.97897,-0.29164 -1.8483,-0.30877 z m -37.136053,0.16944 -1.1783,0.169 -0.0619,2.73763 c -0.0342,1.50554 -0.0111,2.87014 0.0512,3.03264 0.0865,0.22573 0.6227,0.28075 2.26373,0.23265 l 2.15062,-0.0633 v -2.96726 -2.96727 l -1.02348,-0.17159 c -0.56301,-0.0945 -1.55384,-0.0957 -2.20181,-0.002 z m -0.1875,1.15465 h 1.211 1.21099 v 1.98162 1.98162 h -1.21099 -1.211 v -1.98162 z m 36.109543,0 h 1.10091 1.10089 v 1.98162 1.98162 h -1.10089 -1.10091 v -1.98162 z" />
  </g>
</svg>
