<?xml version="1.0" encoding="UTF-8" standalone="no"?>
<!-- Created with Inkscape (http://www.inkscape.org/) -->

<svg
   width="48.074776mm"
   height="39.081741mm"
   viewBox="0 0 48.074776 39.081741"
   version="1.1"
   id="svg1"
   sodipodi:docname="tree_ic_11.svg"
   inkscape:version="1.4 (86a8ad7, 2024-10-11)"
   xmlns:inkscape="http://www.inkscape.org/namespaces/inkscape"
   xmlns:sodipodi="http://sodipodi.sourceforge.net/DTD/sodipodi-0.dtd"
   xmlns="http://www.w3.org/2000/svg"
   xmlns:svg="http://www.w3.org/2000/svg">
  <sodipodi:namedview
     id="namedview1"
     pagecolor="#505050"
     bordercolor="#ffffff"
     borderopacity="1"
     inkscape:showpageshadow="0"
     inkscape:pageopacity="0"
     inkscape:pagecheckerboard="1"
     inkscape:deskcolor="#505050"
     inkscape:document-units="mm"
     inkscape:zoom="0.71891835"
     inkscape:cx="77.894798"
     inkscape:cy="145.35726"
     inkscape:window-width="1920"
     inkscape:window-height="1009"
     inkscape:window-x="1912"
     inkscape:window-y="-8"
     inkscape:window-maximized="1"
     inkscape:current-layer="layer1" />
  <defs
     id="defs1" />
  <g
     inkscape:label="Ebene 1"
     inkscape:groupmode="layer"
     id="layer1"
     transform="translate(-84.455693,-109.94728)">
    <path
       id="path1-51"
       style="fill:#000000"
       d="m 108.58694,111.30226 c -0.18528,-0.0711 -1.56406,0.73496 -3.06389,1.79162 -19.395221,13.66434 -19.386611,13.65775 -18.375621,14.49679 0.2748,0.22807 0.58736,0.14239 1.3348,-0.36483 0.53673,-0.36424 1.03027,-0.66198 1.09657,-0.66198 0.0662,0 0.12041,4.6833 0.12041,10.40712 0,5.72382 0.0803,10.48688 0.17828,10.58488 0.098,0.0979 8.46214,0.14747 18.586981,0.11007 l 18.4087,-0.0677 0.0692,-10.51718 c 0.038,-5.78446 0.13876,-10.51719 0.22376,-10.51719 0.085,0 0.47053,0.21858 0.8568,0.48576 0.38626,0.26718 0.84165,0.56608 1.01182,0.66404 0.35914,0.20674 1.14567,-0.49117 1.14567,-1.01648 0,-0.19692 -2.29196,-1.95775 -5.09323,-3.91294 -2.80128,-1.95518 -7.58397,-5.30937 -10.62829,-7.4538 -3.04431,-2.14443 -5.68672,-3.95708 -5.872,-4.02818 z m -0.10438,2.08101 c 0.12892,0.0459 3.98699,2.70309 8.57363,5.90455 l 8.33955,5.82083 -0.0553,10.45105 -0.0548,10.45104 -2.77813,0.0667 c -1.52797,0.0368 -2.92501,-0.0284 -3.10472,-0.14521 -0.17971,-0.11679 -0.40007,-0.57737 -0.48937,-1.02371 -0.1422,-0.71101 -0.0785,-0.83285 0.51521,-0.98186 0.72529,-0.18204 0.75115,-0.24759 1.65623,-4.19871 0.46346,-2.02318 0.46248,-2.05844 -0.0729,-2.77812 -0.29822,-0.40091 -0.78356,-0.76503 -1.07901,-0.80925 -0.44639,-0.0668 -0.55741,-0.32435 -0.65681,-1.52342 -0.086,-1.03657 -0.29448,-1.62851 -0.73949,-2.1022 -0.61661,-0.65631 -0.64147,-0.65952 -5.40173,-0.65112 -3.34174,0.006 -4.90894,0.10551 -5.20227,0.33072 -0.69448,0.53321 -1.0356,1.4119 -1.0356,2.66806 0,1.01462 -0.0839,1.20171 -0.56895,1.27382 -0.31283,0.0465 -0.80609,0.40388 -1.09606,0.79375 -0.51739,0.69563 -0.51855,0.75243 -0.0656,3.04271 0.60895,3.07931 0.84611,3.66242 1.63298,4.02094 0.53833,0.24529 0.64472,0.45947 0.57722,1.15911 -0.0455,0.4719 -0.17198,0.82808 -0.28112,0.79168 -0.10914,-0.0364 -1.27,-0.0661 -2.57969,-0.0661 -2.11666,0 -2.38125,-0.0531 -2.38125,-0.47646 0,-0.71688 -0.53501,-1.11104 -1.50791,-1.11104 h -0.873341 v -4.36563 -4.36562 h 1.331191 c 0.90564,0 1.37736,-0.1202 1.47536,-0.37569 0.14727,-0.38379 -0.83791,-4.67424 -1.26555,-5.51129 -0.18734,-0.36668 -0.57883,-0.46209 -1.881031,-0.45889 -0.90438,0.002 -1.8012,0.1034 -1.99264,0.2248 -0.42127,0.26713 -1.91621,5.24337 -1.72496,5.74176 0.0827,0.2156 0.66769,0.38423 1.5012,0.43254 l 1.36581,0.0791 v 4.23333 4.23333 l -0.79375,0.0894 c -0.97799,0.11035 -1.45521,0.48237 -1.45521,1.13378 0,0.41027 -0.20155,0.49661 -1.15755,0.49661 -0.63666,0 -1.49986,0.0474 -1.91823,0.10542 -0.41837,0.058 -1.02857,0.0495 -1.35599,-0.0186 l -0.59531,-0.1235 v -10.25261 -10.25209 l 1.65364,-1.18959 c 7.541351,-5.42499 15.349461,-10.83287 15.542211,-10.7642 z m -10.463961,17.12505 1.18235,0.078 1.182881,0.0786 0.44907,1.78594 0.44958,1.78594 h -2.087731 c -1.14812,0 -2.08721,-0.0698 -2.08721,-0.15503 0,-0.0853 0.20478,-0.92444 0.45527,-1.86449 z m 14.871441,2.39986 c 2.09641,-0.0102 4.23548,0.0802 4.60799,0.27957 0.79571,0.42584 0.70805,2.45878 -0.14986,3.47834 -0.42365,0.50348 -0.66146,1.11178 -0.66146,1.69188 v 0.90589 h -3.53829 -3.53777 l -0.17001,-1.06195 c -0.0934,-0.58413 -0.40605,-1.2985 -0.69505,-1.5875 -0.6036,-0.6036 -0.74195,-2.84956 -0.20826,-3.38326 0.20216,-0.20215 2.2563,-0.31277 4.35271,-0.32297 z m 6.08593,4.06538 c 0.18154,-0.0108 0.38618,0.0478 0.61754,0.17157 0.63516,0.33991 0.63828,0.538 0.0568,3.44165 l -0.4501,2.24896 -6.00067,0.0708 c -3.60471,0.0427 -6.06303,-0.0297 -6.15673,-0.18139 -0.0858,-0.13885 -0.345,-1.35367 -0.57619,-2.69957 -0.38921,-2.26595 -0.38827,-2.47038 0.017,-2.76676 0.57075,-0.41734 1.41225,-0.18686 1.61179,0.44183 0.0867,0.27308 0.16408,0.97165 0.17208,1.55236 0.008,0.58072 0.1494,1.16662 0.3142,1.30173 0.17009,0.13945 1.06799,0.1654 2.07687,0.0599 1.72397,-0.18018 4.95127,-0.17355 6.28696,0.0129 0.61626,0.086 0.67247,-0.0104 0.92604,-1.58233 0.22324,-1.38393 0.55973,-2.0394 1.10432,-2.07171 z m -10.16682,7.0528 h 4.19406 c 3.87569,0 4.21484,0.0387 4.46795,0.5116 0.15065,0.28147 0.27388,0.74483 0.27388,1.02939 0,0.4928 -0.21345,0.51755 -4.49533,0.52555 -2.47236,0.005 -4.54179,-0.0718 -4.59869,-0.1695 -0.0569,-0.0977 -0.0446,-0.5642 0.0274,-1.03714 z m -9.547221,1.32292 c 1.157491,0 1.563631,0.0906 1.483631,0.33073 -0.12624,0.37915 -0.37824,0.41137 -2.123381,0.27078 -1.77583,-0.14306 -1.2882,-0.60151 0.63975,-0.60151 z" />
  </g>
</svg>
