<?xml version="1.0" encoding="UTF-8" standalone="no"?>
<!-- Created with Inkscape (http://www.inkscape.org/) -->

<svg
   width="48.074776mm"
   height="39.081741mm"
   viewBox="0 0 48.074776 39.081741"
   version="1.1"
   id="svg1"
   sodipodi:docname="tree_ic_06.svg"
   inkscape:version="1.4 (86a8ad7, 2024-10-11)"
   xmlns:inkscape="http://www.inkscape.org/namespaces/inkscape"
   xmlns:sodipodi="http://sodipodi.sourceforge.net/DTD/sodipodi-0.dtd"
   xmlns="http://www.w3.org/2000/svg"
   xmlns:svg="http://www.w3.org/2000/svg">
  <sodipodi:namedview
     id="namedview1"
     pagecolor="#505050"
     bordercolor="#ffffff"
     borderopacity="1"
     inkscape:showpageshadow="0"
     inkscape:pageopacity="0"
     inkscape:pagecheckerboard="1"
     inkscape:deskcolor="#505050"
     inkscape:document-units="mm"
     inkscape:zoom="0.71891835"
     inkscape:cx="77.894798"
     inkscape:cy="145.35726"
     inkscape:window-width="1920"
     inkscape:window-height="1009"
     inkscape:window-x="1912"
     inkscape:window-y="-8"
     inkscape:window-maximized="1"
     inkscape:current-layer="layer1" />
  <defs
     id="defs1" />
  <g
     inkscape:label="Ebene 1"
     inkscape:groupmode="layer"
     id="layer1"
     transform="translate(-84.455693,-109.94728)">
    <path
       id="path1-27"
       style="fill:#000000"
       d="m 87.921751,116.12491 v 0.78031 c 0,0.72868 0.0742,0.78545 1.12448,0.86145 l 1.12448,0.0816 0.0661,12.17083 c 0.0364,6.69395 0.12196,12.31967 0.19016,12.50157 0.0974,0.26003 3.90916,0.33072 17.837679,0.33072 9.74257,0 17.90203,-0.0724 18.13222,-0.16071 0.37341,-0.14328 0.41858,-1.497 0.41858,-12.55272 v -12.39149 l 1.12448,-0.0816 c 1.00136,-0.0725 1.12448,-0.15355 1.12448,-0.74259 v -0.66146 l -20.57135,-0.0682 z m 37.306249,1.58698 v 11.77603 11.77551 H 108.42438 91.620231 l 0.0693,-11.70781 0.0687,-11.70782 16.734899,-0.0677 z m -5.57847,3.23443 -2.49132,0.077 -0.0786,1.78594 -0.078,1.78594 h -1.19579 c -1.95167,0 -2.21951,0.27248 -2.21951,2.25826 v 1.71049 h -1.69137 c -1.96158,0 -2.01279,0.0605 -2.01279,2.40243 v 1.56632 h -1.53479 c -0.84403,0 -1.67746,0.14266 -1.85209,0.31729 -0.18469,0.18469 -0.31729,1.0701 -0.31729,2.11667 v 1.79937 h -1.83658 c -1.88997,0 -2.25367,0.16828 -1.96887,0.91106 0.13887,0.3616 0.54914,0.41861 2.58072,0.35501 l 2.41536,-0.076 0.13229,-1.98437 0.13229,-1.98438 1.78594,-0.078 1.78593,-0.078 0.0331,-1.57561 c 0.0182,-0.86648 0.0479,-1.72444 0.0661,-1.90635 0.0212,-0.21194 0.65078,-0.37822 1.75287,-0.46302 l 1.71979,-0.13229 0.0698,-1.19062 c 0.13643,-2.32805 0.17502,-2.38125 1.73426,-2.38125 0.76849,0 1.54,-0.14268 1.71463,-0.3173 0.17975,-0.17975 0.31781,-1.04069 0.31781,-1.98437 v -1.66708 h 1.68723 c 1.72015,0 2.44852,-0.35982 2.04587,-1.01131 -0.1471,-0.23801 -0.91278,-0.3107 -2.69699,-0.2558 z" />
  </g>
</svg>
