<?xml version="1.0" encoding="UTF-8" standalone="no"?>
<!-- Created with Inkscape (http://www.inkscape.org/) -->

<svg
   width="48.074776mm"
   height="39.081741mm"
   viewBox="0 0 48.074776 39.081741"
   version="1.1"
   id="svg1"
   sodipodi:docname="tree_ic_26.svg"
   inkscape:version="1.4 (86a8ad7, 2024-10-11)"
   xmlns:inkscape="http://www.inkscape.org/namespaces/inkscape"
   xmlns:sodipodi="http://sodipodi.sourceforge.net/DTD/sodipodi-0.dtd"
   xmlns="http://www.w3.org/2000/svg"
   xmlns:svg="http://www.w3.org/2000/svg">
  <sodipodi:namedview
     id="namedview1"
     pagecolor="#505050"
     bordercolor="#ffffff"
     borderopacity="1"
     inkscape:showpageshadow="0"
     inkscape:pageopacity="0"
     inkscape:pagecheckerboard="1"
     inkscape:deskcolor="#505050"
     inkscape:document-units="mm"
     inkscape:zoom="0.71891835"
     inkscape:cx="297.66941"
     inkscape:cy="169.00389"
     inkscape:window-width="1920"
     inkscape:window-height="1009"
     inkscape:window-x="1912"
     inkscape:window-y="-8"
     inkscape:window-maximized="1"
     inkscape:current-layer="layer1" />
  <defs
     id="defs1" />
  <g
     inkscape:label="Ebene 1"
     inkscape:groupmode="layer"
     id="layer1"
     transform="translate(-84.455693,-109.94728)">
    <path
       id="path2-9"
       style="fill:#000000;stroke-width:0.832177"
       d="m 109.01415,111.62111 c -0.66192,-0.0279 -1.32877,0.007 -1.9928,0.10924 -4.33815,0.66969 -7.972745,3.79379 -9.307775,8.00044 l -0.54529,1.71801 v 12.83237 c 0,7.05786 0.067,12.89937 0.14879,12.98117 0.0818,0.0818 5.159735,0.12297 11.284235,0.0916 l 11.13543,-0.0568 0.0581,-13.10072 c 0.0556,-12.51695 0.0389,-13.16521 -0.37757,-14.54134 -1.38454,-4.57444 -5.76967,-7.83869 -10.40308,-8.034 z m -1.0708,1.27034 c 3.81162,-0.21733 7.16747,1.52853 9.2867,4.83106 1.48501,2.31419 1.51589,2.64249 1.51589,16.19399 v 12.16968 h -1.29356 c -0.71146,0 -1.57842,0.034 -1.92658,0.0757 -0.34815,0.0417 -1.1992,0.0369 -1.89131,-0.0107 l -1.25829,-0.0864 0.13717,-0.70484 c 0.0756,-0.38765 0.4077,-1.89059 0.73795,-3.33968 0.33026,-1.44909 0.55163,-2.76191 0.49197,-2.91739 -0.0787,-0.2052 -0.73971,-0.28253 -2.4108,-0.28253 h -2.30243 l 0.0692,-0.70656 c 0.0606,-0.62012 0.19339,-0.75118 1.08887,-1.07036 1.49833,-0.53407 2.52895,-1.42098 3.16724,-2.72559 0.67784,-1.38548 0.85978,-3.56288 0.32639,-3.90777 -0.52919,-0.34218 -2.77647,0.61811 -3.76843,1.61006 l -0.85535,0.85535 v -0.8876 c 0,-0.73737 0.1296,-1.00101 0.76548,-1.55932 1.66544,-1.46229 1.6195,-4.554 -0.10752,-7.24531 -1.05302,-1.64099 -1.56359,-1.47208 -2.82879,0.93535 -1.28392,2.44303 -1.11921,4.82562 0.4382,6.33705 0.70467,0.68386 0.85191,0.97682 0.85191,1.69307 v 0.86566 l -1.09057,-1.05101 c -0.78946,-0.76093 -1.42754,-1.14903 -2.30932,-1.40537 -0.67006,-0.19484 -1.33149,-0.28404 -1.47031,-0.19825 -0.38412,0.2374 -0.0835,2.97885 0.43907,4.00324 0.59201,1.16042 1.76146,2.14923 3.10575,2.62668 1.02119,0.36269 1.1052,0.44745 1.1052,1.11165 v 0.71903 h -2.20868 c -1.81264,0 -2.23255,0.0624 -2.34243,0.34875 -0.10831,0.28225 0.73304,4.98072 1.16971,6.53188 0.0998,0.35435 -0.15094,0.38531 -3.11865,0.38531 h -3.226575 l 0.0637,-11.94477 c 0.0351,-6.56962 0.15105,-12.43341 0.25717,-13.03062 0.53318,-3.0008 2.785825,-5.85142 5.751765,-7.27798 1.47643,-0.71013 2.01064,-0.84845 3.64029,-0.94136 z m 0.6743,10.67917 c 0.11941,0.0867 0.27054,0.38137 0.5698,0.96758 0.79979,1.56665 0.88333,3.79309 0.17761,4.74161 -0.53712,0.72193 -1.01315,0.87828 -1.36838,0.45025 -0.43487,-0.52398 -0.92029,-1.87928 -0.92029,-2.56991 0,-0.74577 0.63718,-2.55997 1.16282,-3.31044 0.17128,-0.24453 0.25903,-0.36581 0.37844,-0.27909 z m -4.31373,7.98367 c 0.70816,0 3.18578,1.9952 3.22229,2.59486 0.005,0.0866 0.0914,0.57849 0.19094,1.09316 0.0996,0.51467 0.11972,0.93444 0.0452,0.93361 -0.0746,-8.3e-4 -0.66006,-0.24634 -1.3013,-0.54486 -0.97484,-0.45383 -1.23903,-0.70836 -1.61222,-1.55201 -0.47646,-1.07711 -0.78898,-2.52476 -0.54487,-2.52476 z m 8.52037,0.028 c 0.17066,0.0409 0.17093,0.26384 0.0821,0.68763 -0.30247,1.44384 -0.94114,2.55085 -1.7924,3.1079 -1.05215,0.68852 -2.10685,0.98453 -1.95926,0.5496 0.0559,-0.16485 0.20817,-0.71645 0.33844,-1.22562 0.293,-1.14528 1.11726,-2.15141 2.22588,-2.71699 0.59338,-0.30272 0.93455,-0.44347 1.1052,-0.40252 z m -4.24448,8.3389 h 3.92497 l -0.66098,3.08252 -0.66096,3.08252 h -2.67614 -2.67656 l -0.58787,-2.8417 c -0.32337,-1.56289 -0.58786,-2.95002 -0.58786,-3.08252 0,-0.16543 1.2302,-0.24082 3.9254,-0.24082 z" />
  </g>
</svg>
