<?xml version="1.0" encoding="UTF-8" standalone="no"?>
<!-- Created with Inkscape (http://www.inkscape.org/) -->

<svg
   width="48.074776mm"
   height="39.081741mm"
   viewBox="0 0 48.074776 39.081741"
   version="1.1"
   id="svg1"
   sodipodi:docname="tree_ic_05.svg"
   inkscape:version="1.4 (86a8ad7, 2024-10-11)"
   xmlns:inkscape="http://www.inkscape.org/namespaces/inkscape"
   xmlns:sodipodi="http://sodipodi.sourceforge.net/DTD/sodipodi-0.dtd"
   xmlns="http://www.w3.org/2000/svg"
   xmlns:svg="http://www.w3.org/2000/svg">
  <sodipodi:namedview
     id="namedview1"
     pagecolor="#505050"
     bordercolor="#ffffff"
     borderopacity="1"
     inkscape:showpageshadow="0"
     inkscape:pageopacity="0"
     inkscape:pagecheckerboard="1"
     inkscape:deskcolor="#505050"
     inkscape:document-units="mm"
     inkscape:zoom="0.71891835"
     inkscape:cx="77.894798"
     inkscape:cy="145.35726"
     inkscape:window-width="1920"
     inkscape:window-height="1009"
     inkscape:window-x="1912"
     inkscape:window-y="-8"
     inkscape:window-maximized="1"
     inkscape:current-layer="layer1" />
  <defs
     id="defs1" />
  <g
     inkscape:label="Ebene 1"
     inkscape:groupmode="layer"
     id="layer1"
     transform="translate(-84.455693,-109.94728)">
    <path
       id="path1-87"
       style="fill:#000000"
       d="m 108.37862,112.31222 c -4.10585,0.002 -7.61646,0.10058 -7.80159,0.21808 -0.25758,0.16356 -0.31978,1.41836 -0.26458,5.35368 l 0.0718,5.14025 3.37344,0.0739 3.37343,0.0739 v 0.786 c 0,0.73765 -0.0634,0.78548 -1.03662,0.78548 -1.56368,0 -1.87379,0.2018 -1.87379,1.21904 v 0.89762 H 95.121 c -8.07416,0 -9.11819,0.0478 -9.26145,0.42117 -0.23943,0.62394 0.0425,0.90175 0.91416,0.90175 h 0.77825 v 9.0842 c 0,4.99622 0.0844,9.16863 0.18758,9.27179 0.10315,0.10324 0.43058,0.15257 0.72761,0.11007 0.52722,-0.0755 0.5417,-0.25495 0.6103,-7.55148 l 0.0703,-7.47448 h 12.82402 12.82402 l 0.0703,7.47448 0.0703,7.47448 h 7.14375 7.14375 l 0.13229,-9.12813 0.1323,-9.12812 0.85989,-0.0832 c 0.71219,-0.0687 0.8599,-0.19365 0.8599,-0.7276 v -0.64441 h -9.36326 -9.36325 l -0.16898,-0.90072 c -0.19119,-1.01912 -0.52652,-1.21408 -2.09445,-1.22008 -1.33355,-0.005 -1.84814,-0.29038 -1.72082,-0.95395 0.0869,-0.45292 0.41311,-0.50404 3.64629,-0.57154 2.0658,-0.0431 3.69696,-0.19518 3.8995,-0.36328 0.43586,-0.36172 0.50167,-9.23259 0.0744,-10.03092 -0.26094,-0.48752 -0.62705,-0.51198 -7.73907,-0.50798 z m -7.0683,1.31879 h 6.88589 6.88588 l -0.0729,4.16718 -0.0729,4.16719 -6.63215,0.0708 c -3.6477,0.0388 -6.71352,-0.0107 -6.81302,-0.11007 -0.0994,-0.0995 -0.18087,-2.00666 -0.18087,-4.23798 z m 9.05836,12.32224 c 0.36297,-0.0116 0.62588,0.15986 0.68058,0.4439 0.0806,0.41842 -0.19277,0.46302 -2.84065,0.46302 -2.4279,0 -2.92954,-0.068 -2.92954,-0.39687 0,-0.31795 0.44727,-0.4061 2.24896,-0.4439 1.23693,-0.0259 2.51522,-0.0558 2.84065,-0.0662 z m 5.75831,2.22002 5.88698,0.0713 5.88698,0.0708 v 0.92604 0.92656 l -5.88698,0.0708 -5.88698,0.0713 v -1.06867 z m -26.9875,0.005 12.76614,0.0687 12.76615,0.0682 v 0.92604 0.92656 l -12.76615,0.0848 -12.76614,0.0853 v -1.08003 z m 26.9875,3.44424 h 5.96966 5.97018 l -0.0832,0.85989 -0.0827,0.8599 -5.88698,0.0713 -5.88698,0.0713 v -0.93121 z m 0,3.175 h 5.96397 5.96347 l -0.0765,2.18281 -0.077,2.18281 -5.88698,0.0713 -5.88698,0.0713 v -2.25413 z m 5.97224,1.5875 c -1.31073,0 -1.47433,0.0605 -1.47433,0.54312 0,0.48872 0.13853,0.53502 1.38648,0.46302 1.07165,-0.0618 1.40685,-0.18526 1.47485,-0.54312 0.0753,-0.39612 -0.12546,-0.46302 -1.387,-0.46302 z m -5.97224,4.22351 5.88698,0.0713 5.88698,0.0708 v 2.24896 2.24948 l -5.88698,0.0708 -5.88698,0.0713 v -2.39159 z m 6.11539,1.64693 c -1.26505,-0.0906 -1.77961,0.20436 -1.52291,0.87333 0.12666,0.33001 0.45583,0.41092 1.4242,0.34882 1.05616,-0.0677 1.25936,-0.16656 1.25936,-0.6103 0,-0.4361 -0.20432,-0.54335 -1.16065,-0.61185 z" />
  </g>
</svg>
