<?xml version="1.0" encoding="UTF-8" standalone="no"?>
<!-- Created with Inkscape (http://www.inkscape.org/) -->

<svg
   width="48.074776mm"
   height="39.081741mm"
   viewBox="0 0 48.074776 39.081741"
   version="1.1"
   id="svg1"
   inkscape:version="1.4 (86a8ad7, 2024-10-11)"
   sodipodi:docname="tree_ic_01.svg"
   xmlns:inkscape="http://www.inkscape.org/namespaces/inkscape"
   xmlns:sodipodi="http://sodipodi.sourceforge.net/DTD/sodipodi-0.dtd"
   xmlns="http://www.w3.org/2000/svg"
   xmlns:svg="http://www.w3.org/2000/svg">
  <sodipodi:namedview
     id="namedview1"
     pagecolor="#505050"
     bordercolor="#ffffff"
     borderopacity="1"
     inkscape:showpageshadow="0"
     inkscape:pageopacity="0"
     inkscape:pagecheckerboard="1"
     inkscape:deskcolor="#505050"
     inkscape:document-units="mm"
     inkscape:zoom="0.71891835"
     inkscape:cx="77.894798"
     inkscape:cy="145.35726"
     inkscape:window-width="1920"
     inkscape:window-height="1009"
     inkscape:window-x="1912"
     inkscape:window-y="-8"
     inkscape:window-maximized="1"
     inkscape:current-layer="layer1" />
  <defs
     id="defs1" />
  <g
     inkscape:label="Ebene 1"
     inkscape:groupmode="layer"
     id="layer1"
     transform="translate(-84.455693,-109.94728)">
    <path
       id="path1-860"
       style="fill:#000000"
       d="m 108.55959,113.49034 c -6.08361,-0.0105 -12.177779,0.10307 -12.425079,0.35037 -0.2397,0.23973 -0.3173,4.11787 -0.3173,15.83107 0,8.53237 0.0804,15.59367 0.1788,15.69207 0.0984,0.0984 5.783659,0.14787 12.633859,0.11007 l 12.45505,-0.0687 0.0682,-15.58045 c 0.0495,-11.2876 -0.0143,-15.68004 -0.23099,-15.94114 -0.2059,-0.24808 -6.27894,-0.38273 -12.36255,-0.39326 z m -11.286649,1.75235 h 11.221539 11.22205 l -0.0346,14.2875 -0.0341,14.2875 -11.21275,0.0693 -11.212239,0.0687 0.0248,-14.35623 z m 1.85157,2.11666 -0.0754,3.02669 c -0.0414,1.6646 -0.0145,3.1844 0.0594,3.37706 0.10873,0.28376 1.918259,0.3368 9.468149,0.2806 l 9.33328,-0.0698 v -3.30729 -3.30729 h -9.39271 z m 1.322909,1.45418 8.13594,5.2e-4 8.13594,5.1e-4 v 1.85209 1.85208 h -8.04809 -8.04809 l -0.0879,-1.8526 z m 11.60084,1.05936 c -0.45048,0 -0.73463,0.64442 -0.52503,1.19063 0.0838,0.21828 0.32,0.39687 0.52503,0.39687 0.20503,0 0.52113,-0.17859 0.70229,-0.39687 0.26278,-0.31663 0.26278,-0.47712 0,-0.79375 -0.18116,-0.21828 -0.49726,-0.39688 -0.70229,-0.39688 z m 2.38125,0 c -0.45048,0 -0.73463,0.64442 -0.52503,1.19063 0.0838,0.21828 0.32,0.39687 0.52503,0.39687 0.20503,0 0.52114,-0.17859 0.70229,-0.39687 0.26279,-0.31663 0.26279,-0.47712 0,-0.79375 -0.18115,-0.21828 -0.49726,-0.39688 -0.70229,-0.39688 z m -9.87174,0.21136 c -1.52278,0.0433 -2.81723,0.12747 -2.87683,0.18707 -0.0595,0.0596 -0.0359,0.29588 0.0522,0.52555 h -5.2e-4 c 0.1343,0.35014 0.60045,0.4053 2.87735,0.3421 2.51517,-0.0699 2.71663,-0.11471 2.71663,-0.60462 0,-0.50051 -0.15028,-0.5246 -2.76883,-0.4501 z m -5.433259,6.27094 -0.0754,3.02668 c -0.0414,1.66459 -0.0153,3.18265 0.0579,3.37344 0.20253,0.52779 18.208789,0.50684 18.647439,-0.0217 0.20244,-0.24398 0.28017,-1.38448 0.23047,-3.37344 l -0.0749,-3.00498 h -9.39271 z m 9.660389,1.25315 7.80211,0.0698 0.0775,1.91823 0.078,1.91823 h -8.05946 -8.05997 l -0.0879,-1.88619 c -0.0517,-1.11113 0.0222,-1.92841 0.17983,-1.98851 0.1472,-0.0561 3.7786,-0.0701 8.06979,-0.0315 z m 3.42356,1.26039 c -0.58332,0 -0.88248,0.41282 -0.68058,0.93896 0.16249,0.42344 1.1046,0.52449 1.33997,0.14366 0.25569,-0.41373 -0.15162,-1.08262 -0.65939,-1.08262 z m 2.33061,0.0481 c -0.66138,0.0944 -0.96624,0.96588 -0.44959,1.28519 0.53725,0.33204 1.04232,-0.0161 1.04232,-0.7183 0,-0.52361 -0.11652,-0.63479 -0.59273,-0.56689 z m -9.83506,0.008 c -2.66451,-0.0775 -3.2668,0.097 -2.97346,0.86144 0.13735,0.35752 0.58591,0.412 2.87941,0.3483 2.51517,-0.0699 2.71663,-0.1147 2.71663,-0.60461 0,-0.48845 -0.20188,-0.53473 -2.62258,-0.60513 z m 3.85868,5.99705 c -4.49671,-0.0125 -9.003689,0.10036 -9.253179,0.34985 -0.34186,0.34187 -0.46489,6.06132 -0.13746,6.38875 0.0988,0.0988 4.355319,0.14827 9.458849,0.11007 l 9.27902,-0.0698 0.0749,-3.00446 c 0.0497,-1.98895 -0.0285,-3.12946 -0.23099,-3.37344 -0.20811,-0.25076 -4.69446,-0.38855 -9.19117,-0.40101 z m -8.11527,1.61954 h 7.97264 7.97316 l 0.18293,1.71255 c 0.1008,0.94175 0.10801,1.83473 0.0155,1.98438 -0.10914,0.17659 -2.94836,0.27182 -8.08994,0.27182 -4.35704,0 -7.92792,-0.0298 -7.93492,-0.0662 -0.007,-0.0364 -0.0369,-0.92928 -0.0661,-1.98438 z m 11.70523,1.14515 c -0.3868,0.0893 -0.79869,0.66352 -0.62993,1.10329 0.0922,0.24032 0.37495,0.39658 0.62838,0.34778 0.5481,-0.10556 0.76935,-0.94425 0.3576,-1.35599 -0.10092,-0.10092 -0.22712,-0.12485 -0.35605,-0.0951 z m 2.09755,0.0651 c -0.44556,0.17098 -0.59795,0.9265 -0.2558,1.26865 0.32649,0.32649 0.99586,0.0451 1.09296,-0.4594 0.12223,-0.63468 -0.27952,-1.02323 -0.83716,-0.80925 z m -9.72189,0.1695 c -2.3203,0.064 -2.7649,0.14467 -2.836,0.51624 -0.0476,0.24849 0.12419,0.49956 0.39377,0.57516 0.74301,0.20845 5.20996,-0.0934 5.49166,-0.37104 0.57726,-0.56898 -0.37606,-0.79406 -3.04943,-0.72036 z" />
  </g>
</svg>
