<?xml version="1.0" encoding="UTF-8" standalone="no"?>
<!-- Created with Inkscape (http://www.inkscape.org/) -->

<svg
   width="48.074776mm"
   height="39.081741mm"
   viewBox="0 0 48.074776 39.081741"
   version="1.1"
   id="svg1"
   sodipodi:docname="tree_ic_20.svg"
   inkscape:version="1.4 (86a8ad7, 2024-10-11)"
   xmlns:inkscape="http://www.inkscape.org/namespaces/inkscape"
   xmlns:sodipodi="http://sodipodi.sourceforge.net/DTD/sodipodi-0.dtd"
   xmlns="http://www.w3.org/2000/svg"
   xmlns:svg="http://www.w3.org/2000/svg">
  <sodipodi:namedview
     id="namedview1"
     pagecolor="#505050"
     bordercolor="#ffffff"
     borderopacity="1"
     inkscape:showpageshadow="0"
     inkscape:pageopacity="0"
     inkscape:pagecheckerboard="1"
     inkscape:deskcolor="#505050"
     inkscape:document-units="mm"
     inkscape:zoom="0.71891835"
     inkscape:cx="297.66941"
     inkscape:cy="169.00389"
     inkscape:window-width="1920"
     inkscape:window-height="1009"
     inkscape:window-x="1912"
     inkscape:window-y="-8"
     inkscape:window-maximized="1"
     inkscape:current-layer="layer1" />
  <defs
     id="defs1" />
  <g
     inkscape:label="Ebene 1"
     inkscape:groupmode="layer"
     id="layer1"
     transform="translate(-84.455693,-109.94728)">
    <path
       id="path2-43"
       style="fill:#000000;stroke-width:0.832177"
       d="m 108.71131,112.28007 c -0.32695,-0.0814 -0.64133,0.12686 -1.74122,0.90437 -1.94728,1.37654 -8.146549,5.88566 -13.076639,9.51161 l -3.85315,2.83395 -0.0572,9.94552 -0.0572,9.94552 -1.37183,0.0654 c -1.13826,0.0543 -1.38503,0.13596 -1.45053,0.47949 -0.0434,0.22768 0.0548,0.49908 0.21803,0.60291 0.16393,0.10385 9.80891,0.16555 21.434029,0.13676 l 21.13729,-0.0524 v -0.55046 c 0,-0.52144 -0.0725,-0.55416 -1.37612,-0.61624 l -1.37613,-0.0654 v -9.90122 -9.90122 l -4.23847,-3.14359 c -6.12972,-4.54655 -13.15263,-9.63818 -13.8305,-10.02722 -0.14133,-0.0811 -0.25138,-0.14059 -0.36037,-0.16772 z m 0.54443,1.71284 c 0.0933,0.0404 1.87775,1.31205 3.96583,2.82579 l 3.79681,2.75225 -0.0581,2.86234 -0.0581,2.86235 -3.90819,0.0602 -3.9082,0.0597 v -5.74791 c 0,-3.16146 0.0766,-5.71516 0.16987,-5.6748 z m -1.50814,0.0839 c 0.16732,-0.10339 0.23738,1.54638 0.23738,5.59137 v 5.73759 h -3.84026 c -2.11208,0 -3.88411,-0.0743 -3.93787,-0.16514 -0.0538,-0.0908 -0.11098,-1.37303 -0.12729,-2.84944 l -0.0297,-2.6843 0.71989,-0.56206 c 0.77802,-0.60726 6.58783,-4.82698 6.97783,-5.06802 z m -8.790009,6.43425 v 2.44735 2.44736 h -3.34657 c -1.8407,0 -3.2526,-0.0821 -3.13756,-0.18234 0.39713,-0.34616 5.27485,-3.93184 5.87864,-4.32146 z m 19.285109,0.0508 c 0.12065,0 5.89495,4.2257 6.3547,4.65044 0.12076,0.11161 -1.20531,0.19352 -3.13757,0.19352 h -3.34657 v -2.42198 c 0,-1.33209 0.0583,-2.42198 0.12944,-2.42198 z m -19.285109,5.93454 v 5.95002 5.95003 h 0.54271 c 0.29849,0 0.631759,0.17338 0.740529,0.38531 0.42749,0.83294 -0.12665,4.61599 -0.752139,5.1351 -0.171,0.14193 -0.31092,0.543 -0.31092,0.89147 v 0.63388 h -1.54126 c -1.46179,0 -1.54126,-0.0264 -1.54126,-0.50701 0,-0.39658 0.23013,-0.60393 1.05833,-0.95384 0.7886,-0.33318 1.1533,-0.64735 1.43117,-1.23292 0.39223,-0.82656 0.50936,-2.37037 0.17976,-2.37037 -0.41955,0 -1.82263,0.69463 -2.23406,1.10606 -0.43361,0.43358 -0.4352,0.43178 -0.4352,-0.42359 0,-0.68403 0.15339,-1.01174 0.75343,-1.61179 0.91066,-0.91066 1.17828,-2.03762 0.79127,-3.32936 -0.35538,-1.18616 -1.51076,-2.78709 -2.01129,-2.78709 -0.87326,0 -2.17557,2.43713 -2.17557,4.07119 0,0.86391 0.12199,1.13484 0.88072,1.95796 0.64571,0.70052 0.88072,1.14409 0.88072,1.66167 v 0.7057 L 94.556141,141.26 c -0.77217,-0.54984 -2.08133,-0.8182 -2.29598,-0.4709 -0.21098,0.34139 0.23741,1.85629 0.73752,2.49208 0.23307,0.2963 0.82709,0.67197 1.32021,0.83471 0.7089,0.23396 0.89664,0.40369 0.89664,0.81105 0,0.50406 -0.0456,0.51519 -2.0943,0.51519 h -2.09385 l 0.0572,-9.4127 0.0576,-9.4127 3.90821,-0.0602 z m 19.155669,0 3.9082,0.0602 3.90819,0.0602 0.0572,9.41269 0.0576,9.4127 h -1.9842 c -1.94986,0 -1.98378,-0.009 -1.98378,-0.5311 0,-0.4132 0.22505,-0.63943 1.01576,-1.0222 0.76703,-0.37131 1.11643,-0.71326 1.42644,-1.39591 0.46529,-1.02455 0.53378,-1.79842 0.1789,-2.01775 -0.13263,-0.082 -0.82619,0.15242 -1.54126,0.52121 l -1.30001,0.67086 v -0.69967 c 0,-0.52775 0.18974,-0.86195 0.77278,-1.36022 0.59245,-0.5063 0.81819,-0.91027 0.96672,-1.72961 0.23391,-1.29029 0.033,-2.11325 -0.8605,-3.52202 -0.85925,-1.35491 -1.37787,-1.32064 -2.36564,0.15739 -1.31832,1.97262 -1.36522,3.61606 -0.14063,4.91449 0.548,0.58106 0.74655,0.99126 0.74655,1.54255 v 0.75128 l -0.73408,-0.55991 c -0.40368,-0.30791 -1.06148,-0.62556 -1.46213,-0.7057 l -0.72849,-0.14535 0.10966,1.14477 c 0.12694,1.32108 0.87075,2.27859 2.08053,2.67785 0.56351,0.18598 0.73451,0.36605 0.73451,0.77536 v 4.3e-4 c 0,0.50966 -0.0636,0.53325 -1.43118,0.53325 -1.14208,0 -1.43117,-0.0687 -1.43117,-0.33931 0,-0.18654 -0.19697,-0.60763 -0.43777,-0.93575 -0.49091,-0.66895 -0.88486,-2.45333 -0.87986,-3.98432 0.004,-1.17466 0.13929,-1.44854 0.82223,-1.66167 l 0.4954,-0.15439 v -5.93497 z m -17.94468,0.12041 h 3.85315 3.85316 l 0.0593,5.16133 0.0589,5.16176 -0.49928,-0.45713 c -0.82112,-0.75097 -1.93226,-1.2113 -3.00855,-1.24625 l -1.01404,-0.0327 -0.0658,0.89835 c -0.089,1.21437 0.66291,3.14073 1.56921,4.01915 0.40371,0.39128 1.22169,0.89572 1.81735,1.12111 1.03221,0.39057 1.08586,0.45207 1.15035,1.31377 0.0373,0.49726 0.021,0.90437 -0.0365,0.90437 -0.19109,0 -2.00654,-0.87113 -2.38586,-1.14476 -0.30072,-0.21693 -0.52585,-0.19683 -1.15595,0.10364 -0.76852,0.36647 -0.78268,0.39688 -0.78268,1.69779 v 1.32495 H 101.93 c -1.43567,0 -1.65136,-0.0511 -1.65136,-0.39133 0,-0.21526 0.13653,-0.58681 0.30318,-0.82568 0.49376,-0.70771 0.83618,-2.7399 0.75945,-4.50766 -0.0623,-1.43613 -0.13268,-1.6784 -0.54013,-1.85735 -0.61061,-0.26818 -0.7304,-1.51907 -0.67473,-7.05995 z m 9.02739,0 h 3.85315 3.85315 l 0.0589,5.45333 0.0589,5.45332 -0.55432,0.21073 c -0.45139,0.17162 -0.55793,0.36517 -0.57324,1.04198 -0.0434,1.9201 0.0714,3.24663 0.36381,4.21008 0.17101,0.5635 0.31141,1.3468 0.31307,1.74038 l 0.002,0.71558 h -1.31033 -1.3099 l -0.0658,-1.25486 c -0.0612,-1.16172 -0.12064,-1.2867 -0.80203,-1.6836 l -0.73622,-0.42875 -1.39204,0.69279 c -0.76555,0.38101 -1.50527,0.6928 -1.64404,0.6928 -0.15693,0 -0.22658,-0.31216 -0.18406,-0.82568 0.0625,-0.75536 0.17434,-0.88192 1.31162,-1.48621 0.68373,-0.3633 1.46219,-0.85871 1.73006,-1.1009 0.80841,-0.73092 1.55166,-2.4446 1.60318,-3.69619 0.0469,-1.14032 0.0426,-1.14831 -0.6528,-1.21572 -0.80526,-0.0781 -2.72197,0.68074 -3.28163,1.29914 -0.20905,0.23101 -0.46567,0.42015 -0.57023,0.42015 -0.10455,0 -0.16327,-2.30363 -0.13073,-5.11918 z m 12.38341,7.78242 0.45885,0.74268 c 0.70628,1.14279 0.80806,2.34166 0.27179,3.19949 -0.66742,1.06763 -1.23834,0.91576 -1.76488,-0.46917 -0.2748,-0.72276 -0.0217,-1.88561 0.62011,-2.85073 z m -26.004049,0.36252 c 0.18419,-0.0216 0.35422,0.18286 0.5784,0.6055 0.61003,1.15013 0.6898,2.0074 0.26921,2.89373 -0.44971,0.94769 -1.03995,1.03747 -1.56362,0.23824 -0.48651,-0.74254 -0.46278,-2.10428 0.052,-2.98575 0.28151,-0.48203 0.4798,-0.73009 0.66397,-0.75172 z m 9.105219,1.4587 c 0.21073,-0.0382 0.61718,0.13205 1.32281,0.49197 1.28874,0.65735 1.98162,1.68068 1.98162,2.92727 0,0.52703 -0.0743,0.95226 -0.16514,0.94394 -0.0908,-0.008 -0.66054,-0.28673 -1.26603,-0.61926 -1.17277,-0.64405 -1.78996,-1.55561 -2.02205,-2.98577 -0.0769,-0.47375 -0.0619,-0.72 0.14879,-0.75815 z m 7.73082,0.0288 c 0.16888,-0.0334 0.29179,-0.0337 0.33672,0.0112 0.21175,0.21175 -0.40535,2.03265 -0.91899,2.71183 -0.28534,0.3773 -0.96859,0.89748 -1.51847,1.15595 -0.54988,0.25847 -1.05895,0.47003 -1.13144,0.47003 -0.20633,0 0.14534,-1.80622 0.47864,-2.45768 0.16491,-0.32233 0.55595,-0.78738 0.86868,-1.03338 0.45912,-0.36115 1.37822,-0.7579 1.88486,-0.85793 z m 6.69399,5.10801 c 0.0938,0.006 0.26369,0.0958 0.56937,0.27436 0.57639,0.33673 1.30088,1.28759 1.30088,1.70769 0,0.19488 -0.28874,0.1262 -0.93018,-0.2219 -0.64035,-0.34751 -1.05144,-0.94412 -1.05144,-1.52621 0,-0.16038 0.0175,-0.23952 0.11137,-0.23394 z m -25.669039,0.1217 c 0.36139,0 1.50195,1.08248 1.62125,1.53868 0.17003,0.65018 -0.53426,0.57224 -1.24411,-0.13761 -0.56339,-0.56339 -0.78888,-1.40107 -0.37714,-1.40107 z m 30.280779,0 c 0.34433,0 0.042,0.77286 -0.52293,1.33786 -0.93139,0.93138 -1.40522,0.76857 -0.98092,-0.33716 0.11874,-0.30941 1.15765,-1.0007 1.50385,-1.0007 z m -25.725379,0.0615 c 0.21306,0.21305 -0.34743,1.20369 -0.87771,1.55115 -0.6692,0.43847 -1.02069,0.4711 -1.01403,0.0937 0.0105,-0.58716 1.58251,-1.95412 1.89174,-1.64489 z m 14.498349,1.75627 c 0.5243,-0.004 0.77923,0.42178 0.77923,1.29142 v 0.85405 h -2.10633 -2.10633 l 0.0696,-0.5827 c 0.0577,-0.48323 0.23853,-0.6288 1.06048,-0.85492 0.54494,-0.14991 1.3049,-0.40182 1.68877,-0.55991 0.2352,-0.0969 0.43975,-0.14641 0.61452,-0.14794 z m -7.39969,0.0211 c 0.21046,0.0515 0.46681,0.15815 0.77666,0.3165 0.49877,0.2549 1.17943,0.52035 1.51245,0.58959 0.46402,0.0964 0.60549,0.2531 0.60549,0.67171 0,0.53877 -0.0259,0.54659 -1.87153,0.54659 h -1.87154 v -0.99769 c 0,-0.93829 0.21709,-1.2812 0.84847,-1.1267 z" />
  </g>
</svg>
