<?xml version="1.0" encoding="UTF-8" standalone="no"?>
<!-- Created with Inkscape (http://www.inkscape.org/) -->

<svg
   width="48.074776mm"
   height="39.081741mm"
   viewBox="0 0 48.074776 39.081741"
   version="1.1"
   id="svg1"
   sodipodi:docname="tree_ic_10.svg"
   inkscape:version="1.4 (86a8ad7, 2024-10-11)"
   xmlns:inkscape="http://www.inkscape.org/namespaces/inkscape"
   xmlns:sodipodi="http://sodipodi.sourceforge.net/DTD/sodipodi-0.dtd"
   xmlns="http://www.w3.org/2000/svg"
   xmlns:svg="http://www.w3.org/2000/svg">
  <sodipodi:namedview
     id="namedview1"
     pagecolor="#505050"
     bordercolor="#ffffff"
     borderopacity="1"
     inkscape:showpageshadow="0"
     inkscape:pageopacity="0"
     inkscape:pagecheckerboard="1"
     inkscape:deskcolor="#505050"
     inkscape:document-units="mm"
     inkscape:zoom="0.71891835"
     inkscape:cx="77.894798"
     inkscape:cy="145.35726"
     inkscape:window-width="1920"
     inkscape:window-height="1009"
     inkscape:window-x="1912"
     inkscape:window-y="-8"
     inkscape:window-maximized="1"
     inkscape:current-layer="layer1" />
  <defs
     id="defs1" />
  <g
     inkscape:label="Ebene 1"
     inkscape:groupmode="layer"
     id="layer1"
     transform="translate(-84.455693,-109.94728)">
    <path
       id="path1-52"
       style="fill:#000000"
       d="m 108.18448,115.7024 c -0.3376,0.20795 -3.21562,3.31247 -8.779828,9.47074 -1.60073,1.77164 -5.61909,6.148 -8.92969,9.72551 -3.3106,3.5775 -6.01927,6.66855 -6.01927,6.86883 0,0.20028 0.14267,0.50698 0.31729,0.68161 0.17463,0.17462 0.40659,0.3173 0.51522,0.3173 0.25662,0 5.60913,-5.76619 15.174778,-16.34836 4.22011,-4.66856 7.79198,-8.48642 7.9375,-8.48372 0.14552,0.003 3.41974,3.46756 7.27604,7.69979 12.28516,13.48275 15.66468,17.13229 15.86364,17.13229 0.10677,0 0.41227,-0.24114 0.67902,-0.53589 0.47431,-0.52411 0.46476,-0.55761 -0.4377,-1.52135 -3.81457,-4.0736 -8.62329,-9.29979 -13.32218,-14.47922 -8.26389,-9.10902 -9.88377,-10.7684 -10.27482,-10.52753 z m 0.20308,6.1619 c -0.16703,0 -2.1476,1.9943 -4.40128,4.43177 -9.546908,10.3255 -14.308938,15.56536 -14.431678,15.87862 -0.072,0.18375 0.0157,0.51117 0.19534,0.7276 0.17962,0.21643 0.41068,0.39326 0.51315,0.39326 0.27394,0 10.660388,-11.0352 17.364308,-18.449 l 0.77308,-0.85473 6.64042,7.20473 c 3.65235,3.96257 7.58141,8.23401 8.73125,9.49244 1.14984,1.25843 2.2548,2.36185 2.45515,2.45205 0.42399,0.19078 1.09089,-0.28525 1.09089,-0.77876 0,-0.18685 -3.17365,-3.77428 -7.0528,-7.97161 -3.87914,-4.19733 -8.07043,-8.7329 -9.31364,-10.07897 -1.24321,-1.34607 -2.39716,-2.4474 -2.56419,-2.4474 z m 0.0558,10.55905 c -2.18383,-0.0115 -4.37757,0.0993 -4.62039,0.3421 -0.34615,0.34614 -0.4711,8.96553 -0.13487,9.30175 0.10026,0.10024 2.27314,0.14967 4.82864,0.11007 l 4.64623,-0.0724 0.0729,-4.46277 c 0.0499,-3.06686 -0.0224,-4.57733 -0.231,-4.82865 -0.20347,-0.24516 -2.37764,-0.37869 -4.56148,-0.39016 z m -3.35018,1.61179 h 1.32292 1.32291 v 1.32291 1.32292 h -1.32291 -1.32292 v -1.32292 z m 3.96875,0 h 1.32292 1.32291 v 1.32291 1.32292 h -1.32291 -1.32292 v -1.32292 z m -3.96875,3.96875 h 1.32292 1.32291 v 1.4552 1.45521 h -1.32291 -1.32292 v -1.45521 z m 3.96875,0 h 1.32292 1.32291 v 1.4552 1.45521 h -1.32291 -1.32292 v -1.45521 z" />
  </g>
</svg>
