<?xml version="1.0" encoding="UTF-8" standalone="no"?>
<!-- Created with Inkscape (http://www.inkscape.org/) -->

<svg
   width="48.074776mm"
   height="39.081741mm"
   viewBox="0 0 48.074776 39.081741"
   version="1.1"
   id="svg1"
   sodipodi:docname="tree_ic_18.svg"
   inkscape:version="1.4 (86a8ad7, 2024-10-11)"
   xmlns:inkscape="http://www.inkscape.org/namespaces/inkscape"
   xmlns:sodipodi="http://sodipodi.sourceforge.net/DTD/sodipodi-0.dtd"
   xmlns="http://www.w3.org/2000/svg"
   xmlns:svg="http://www.w3.org/2000/svg">
  <sodipodi:namedview
     id="namedview1"
     pagecolor="#505050"
     bordercolor="#ffffff"
     borderopacity="1"
     inkscape:showpageshadow="0"
     inkscape:pageopacity="0"
     inkscape:pagecheckerboard="1"
     inkscape:deskcolor="#505050"
     inkscape:document-units="mm"
     inkscape:zoom="0.71891835"
     inkscape:cx="77.894798"
     inkscape:cy="145.35726"
     inkscape:window-width="1920"
     inkscape:window-height="1009"
     inkscape:window-x="1912"
     inkscape:window-y="-8"
     inkscape:window-maximized="1"
     inkscape:current-layer="layer1" />
  <defs
     id="defs1" />
  <g
     inkscape:label="Ebene 1"
     inkscape:groupmode="layer"
     id="layer1"
     transform="translate(-84.455693,-109.94728)">
    <path
       id="path1-34"
       style="fill:#000000"
       d="m 97.448787,113.76347 c -2.0807,0 -2.69603,0.2461 -2.17765,0.87127 0.21886,0.26395 1.91879,0.34758 4.08037,0.2005 0.10914,-0.007 0.19844,-0.25156 0.19844,-0.5426 0,-0.48477 -0.1765,-0.52917 -2.10116,-0.52917 z m 14.287503,0 c -2.16961,0 -2.69821,0.24363 -2.09755,0.96738 0.26652,0.3211 0.64671,0.37904 1.67638,0.25529 0.73244,-0.0881 1.5996,-0.16127 1.92702,-0.16227 0.41816,-0.002 0.59531,-0.15954 0.59531,-0.53123 0,-0.48477 -0.1765,-0.52917 -2.10116,-0.52917 z m 6.97218,0 c -1.5687,0 -2.01095,0.0871 -2.13992,0.42323 -0.0894,0.23296 0.004,0.52924 0.20671,0.65784 0.62782,0.39754 3.57173,0.28989 3.93154,-0.14366 0.56646,-0.68254 0.0231,-0.93741 -1.99833,-0.93741 z m -14.26786,0.0543 c -2.15159,0.0811 -2.8718,0.50655 -1.67173,0.98754 1.03991,0.4168 3.55004,0.33566 3.93412,-0.12713 0.57814,-0.69662 -0.0702,-0.94301 -2.26239,-0.86041 z m 19.93728,0.0212 c -0.24205,-0.009 -0.43278,0.0292 -0.5302,0.12661 -0.41047,0.41048 -0.0712,1.12086 0.53537,1.12086 0.27949,0 0.78921,0.23418 1.13275,0.52038 0.75064,0.62534 1.11715,0.6631 1.53582,0.15865 0.24988,-0.30109 0.20569,-0.48885 -0.21652,-0.91106 -0.53988,-0.53988 -1.73106,-0.98896 -2.45722,-1.01544 z m -32.248673,0.21032 c -0.18836,-0.0119 -0.47732,0.077 -0.96274,0.26097 -1.00353,0.38023 -1.8826,1.23401 -2.49028,2.41897 -0.4993,0.97363 -0.66615,2.33936 -0.32712,2.67839 0.46213,0.46213 0.83179,0.0453 1.23042,-1.38854 0.39017,-1.40337 0.5707,-1.65311 1.74305,-2.41277 0.82357,-0.53365 1.25567,-0.98265 1.16737,-1.21285 -0.0843,-0.21979 -0.17235,-0.33231 -0.3607,-0.34417 z m 36.015373,3.22513 c -0.11749,-0.0473 -0.25741,-0.0369 -0.4222,0.0263 -0.35118,0.13475 -0.41821,0.36409 -0.29145,0.99787 0.0905,0.45251 0.16484,1.22453 0.16484,1.71566 0,0.71658 0.10453,0.89297 0.52917,0.89297 0.46832,0 0.52903,-0.17503 0.52503,-1.52136 -0.003,-1.30877 -0.15292,-1.96965 -0.50539,-2.11149 z m -39.442563,5.08806 c -0.3068,0 -0.41474,0.41433 -0.47594,1.82573 -0.0435,1.00421 -0.0139,1.99659 0.0661,2.20503 0.08,0.20849 0.29412,0.32932 0.47594,0.26872 0.22728,-0.0758 0.33073,-0.76499 0.33073,-2.20503 0,-1.68549 -0.0775,-2.09445 -0.39688,-2.09445 z m 39.613613,1.04335 c -0.0853,-0.0239 -0.19311,0.002 -0.33125,0.0548 -0.29881,0.11466 -0.38861,0.66157 -0.38861,2.36988 0,2.04426 0.042,2.22054 0.52917,2.22054 0.59244,0 0.58438,0.0376 0.52968,-2.50476 -0.0334,-1.55248 -0.0832,-2.06872 -0.33899,-2.14044 z m -39.613613,6.1004 c -0.30757,0 -0.42664,0.46445 -0.52916,2.06448 -0.0746,1.16371 -0.0211,2.17515 0.12247,2.3182 0.58175,0.57978 0.80357,-0.0154 0.80357,-2.15594 0,-1.80309 -0.0755,-2.22674 -0.39688,-2.22674 z m 39.499923,1.23765 c -0.39144,0.0746 -0.48754,0.40825 -0.55294,1.91358 -0.0435,1.0027 -0.0138,1.99401 0.0661,2.20245 0.08,0.20844 0.29411,0.32944 0.47594,0.26923 0.22002,-0.0728 0.35632,-0.83945 0.40772,-2.29236 0.07,-1.97816 0.0327,-2.1748 -0.39687,-2.0929 z m -39.499923,6.03839 c -0.48547,0 -0.52916,0.17607 -0.52916,2.13475 0,2.06282 0.0202,2.13222 0.59531,2.05052 0.32742,-0.0465 0.58346,-0.23306 0.56896,-0.41496 -0.0145,-0.1819 -0.0444,-1.10464 -0.0661,-2.05052 -0.0353,-1.53017 -0.0981,-1.71978 -0.56896,-1.71978 z m 39.461163,1.05834 c -0.41787,0 -0.51433,0.28342 -0.6506,1.90892 -0.11069,1.32028 -0.0654,1.96768 0.14727,2.0991 0.4438,0.27429 0.65215,0.0713 0.99632,-0.97152 0.25226,-0.7644 0.25358,-1.34322 0.008,-2.97036 -0.005,-0.0363 -0.23082,-0.0661 -0.50075,-0.0661 z m -37.657653,5.03896 c -0.2918,-0.0734 -0.53367,-0.0775 -0.65629,0.0243 -0.30933,0.25672 -0.29325,0.38674 0.10284,0.83147 0.25833,0.29006 0.82692,0.68509 1.26349,0.87747 0.92783,0.40886 1.29223,0.35276 1.40249,-0.21549 0.0885,-0.45599 -1.23713,-1.2974 -2.11253,-1.51774 z m 35.668633,0.15968 c -0.96609,0.19913 -2.53798,1.01643 -2.54248,1.48208 -0.009,0.88971 2.25658,0.3734 3.16518,-0.7214 0.25773,-0.31055 0.27425,-0.50451 0.061,-0.71779 -0.10687,-0.10687 -0.36165,-0.10927 -0.68367,-0.0429 z m -14.27872,0.94 c -1.97709,-0.0861 -2.8062,0.25183 -2.25309,0.91829 0.22503,0.27112 0.81979,0.35158 2.18591,0.29558 1.67488,-0.0686 1.87689,-0.13344 1.87689,-0.60564 0,-0.46992 -0.20261,-0.53823 -1.80971,-0.60823 z m -14.155723,5.1e-4 c -2.00929,-0.0809 -2.77824,0.1958 -2.50734,0.90176 0.1173,0.30539 0.60343,0.37129 2.29908,0.31109 1.94877,-0.0692 2.15077,-0.12615 2.15077,-0.60565 0,-0.47402 -0.20227,-0.5371 -1.94251,-0.6072 z m 7.143753,0 c -2.10737,-0.0849 -2.94874,0.239 -2.38539,0.91778 0.22723,0.27383 0.83984,0.35188 2.31821,0.29558 1.8076,-0.0689 2.00969,-0.12965 2.00969,-0.60564 0,-0.47402 -0.20227,-0.53762 -1.94251,-0.60772 z m 14.00431,0 c -1.99211,-0.0798 -2.51689,0.13926 -2.21537,0.92501 0.106,0.27627 0.63227,0.34635 2.15852,0.28835 1.81622,-0.069 2.01797,-0.12943 2.01797,-0.60564 0,-0.47451 -0.20265,-0.53722 -1.96112,-0.60772 z" />
  </g>
</svg>
