<?xml version="1.0" encoding="UTF-8" standalone="no"?>
<!-- Created with Inkscape (http://www.inkscape.org/) -->

<svg
   width="48.074776mm"
   height="39.081741mm"
   viewBox="0 0 48.074776 39.081741"
   version="1.1"
   id="svg1"
   sodipodi:docname="tree_ic_19.svg"
   inkscape:version="1.4 (86a8ad7, 2024-10-11)"
   xmlns:inkscape="http://www.inkscape.org/namespaces/inkscape"
   xmlns:sodipodi="http://sodipodi.sourceforge.net/DTD/sodipodi-0.dtd"
   xmlns="http://www.w3.org/2000/svg"
   xmlns:svg="http://www.w3.org/2000/svg">
  <sodipodi:namedview
     id="namedview1"
     pagecolor="#505050"
     bordercolor="#ffffff"
     borderopacity="1"
     inkscape:showpageshadow="0"
     inkscape:pageopacity="0"
     inkscape:pagecheckerboard="1"
     inkscape:deskcolor="#505050"
     inkscape:document-units="mm"
     inkscape:zoom="0.71891835"
     inkscape:cx="77.894798"
     inkscape:cy="145.35726"
     inkscape:window-width="1920"
     inkscape:window-height="1009"
     inkscape:window-x="1912"
     inkscape:window-y="-8"
     inkscape:window-maximized="1"
     inkscape:current-layer="layer1" />
  <defs
     id="defs1" />
  <g
     inkscape:label="Ebene 1"
     inkscape:groupmode="layer"
     id="layer1"
     transform="translate(-84.455693,-109.94728)">
    <path
       id="path1-4-2"
       style="fill:#000000"
       d="m 108.42681,111.12228 c -0.19217,0 -3.54007,2.70867 -7.43933,6.01927 -3.899256,3.3106 -8.303546,7.0313 -9.787516,8.26823 -2.64768,2.20692 -3.06512,2.81305 -2.34818,3.40806 0.27698,0.22987 0.63411,0.0867 1.572,-0.62942 0.66733,-0.50954 1.24991,-0.92611 1.29501,-0.92604 0.0451,8e-5 0.0574,4.49468 0.0274,9.98802 -0.03,5.49333 -0.003,10.1373 0.0589,10.3203 0.0896,0.26348 3.54314,0.31854 16.590716,0.26458 l 16.47806,-0.0682 0.13229,-10.24588 0.1323,-10.2459 1.15341,0.91313 c 0.9268,0.73357 1.25204,0.86038 1.65365,0.64544 0.27497,-0.14716 0.50023,-0.43481 0.50023,-0.63924 0,-0.20444 -1.18018,-1.36112 -2.62258,-2.57039 l -2.62258,-2.19883 -0.0894,-4.89479 -0.0894,-4.89479 h -3.04271 -3.04271 l -0.0775,2.05052 c -0.0425,1.12779 -0.14166,2.05052 -0.22066,2.05052 -0.079,0 -1.8803,-1.48828 -4.00286,-3.30729 -2.12255,-1.81901 -4.01637,-3.30729 -4.20853,-3.30729 z m -0.009,1.91047 4.39146,3.75275 c 2.41525,2.06407 5.79045,4.92078 7.50032,6.34793 l 3.10885,2.59467 v 10.29188 10.29188 h -7.67291 -7.67292 v -7.64036 c 0,-6.18148 -0.0698,-7.69853 -0.36587,-7.94422 -0.25087,-0.20823 -1.72745,-0.28089 -4.69635,-0.23099 l -4.330486,0.0729 -0.0703,7.87136 -0.0698,7.87135 h -2.64222 -2.6417 l 0.0124,-10.2526 0.0124,-10.25261 2.40399,-1.98437 c 1.32209,-1.09141 4.727856,-3.96524 7.568526,-6.3867 z m 11.45201,2.01487 c 0.95857,-0.0488 1.79199,-0.0389 1.85209,0.0217 0.0601,0.0606 0.10903,1.63821 0.10903,3.50573 0,1.86752 -0.0893,3.39136 -0.19843,3.38636 -0.10914,-0.005 -0.94544,-0.68945 -1.85829,-1.52136 l -1.65933,-1.51257 0.006,-1.89549 0.006,-1.89549 z m -4.68963,15.44815 -3.80029,0.0734 -0.0734,4.09019 c -0.0404,2.24947 -0.0142,4.24376 0.0579,4.43177 0.17982,0.46862 7.56541,0.49095 8.03207,0.0243 0.48441,-0.48439 0.44054,-7.98229 -0.0491,-8.38864 -0.24873,-0.20643 -1.59019,-0.28089 -4.16719,-0.23099 z m -15.309656,1.52859 h 3.307286 3.30729 v 7.14375 7.14375 h -3.30729 -3.307286 v -7.14375 z m 13.033826,0 h 2.61121 2.61121 v 2.89285 2.89284 l -2.67167,0.0837 c -1.46954,0.046 -2.70432,0.0242 -2.74402,-0.0486 -0.0397,-0.0728 -0.0126,-1.41222 0.0605,-2.97657 z m -7.61401,6.63577 c -0.61416,-0.0424 -1.13852,0.5896 -0.62942,1.20303 0.39792,0.47946 0.59776,0.4589 1.11828,-0.11627 0.33499,-0.37016 0.36254,-0.55162 0.12041,-0.79375 -0.18975,-0.18975 -0.40455,-0.27887 -0.60927,-0.29301 z" />
  </g>
</svg>
