<?xml version="1.0" encoding="UTF-8" standalone="no"?>
<!-- Created with Inkscape (http://www.inkscape.org/) -->

<svg
   width="48.074776mm"
   height="39.081741mm"
   viewBox="0 0 48.074776 39.081741"
   version="1.1"
   id="svg1"
   sodipodi:docname="tree_ic_27.svg"
   inkscape:version="1.4 (86a8ad7, 2024-10-11)"
   xmlns:inkscape="http://www.inkscape.org/namespaces/inkscape"
   xmlns:sodipodi="http://sodipodi.sourceforge.net/DTD/sodipodi-0.dtd"
   xmlns="http://www.w3.org/2000/svg"
   xmlns:svg="http://www.w3.org/2000/svg">
  <sodipodi:namedview
     id="namedview1"
     pagecolor="#505050"
     bordercolor="#ffffff"
     borderopacity="1"
     inkscape:showpageshadow="0"
     inkscape:pageopacity="0"
     inkscape:pagecheckerboard="1"
     inkscape:deskcolor="#505050"
     inkscape:document-units="mm"
     inkscape:zoom="0.71891835"
     inkscape:cx="297.66941"
     inkscape:cy="169.00389"
     inkscape:window-width="1920"
     inkscape:window-height="1009"
     inkscape:window-x="1912"
     inkscape:window-y="-8"
     inkscape:window-maximized="1"
     inkscape:current-layer="layer1" />
  <defs
     id="defs1" />
  <g
     inkscape:label="Ebene 1"
     inkscape:groupmode="layer"
     id="layer1"
     transform="translate(-84.455693,-109.94728)">
    <path
       id="path2-8"
       style="fill:#000000;stroke-width:0.832177"
       d="m 90.956957,114.7331 c -2.01883,-0.009 -4.07369,0.067 -4.38639,0.23437 -0.54206,0.29009 -0.61146,2.20619 -0.0955,2.63442 0.2845,0.23613 0.33027,1.6317 0.33027,10.07582 0,8.88438 -0.0342,9.82677 -0.36596,10.06937 -0.21686,0.15855 -0.30936,0.41552 -0.22706,0.63001 0.12223,0.31776 0.63737,0.36209 4.22599,0.36209 3.69046,0 4.101,-0.0374 4.23202,-0.38532 0.0798,-0.21192 1.01715,-1.37612 2.08311,-2.58711 l 1.93819,-2.20181 0.002,-7.07414 c 0.002,-5.58681 -0.0593,-7.12431 -0.28856,-7.31453 -0.3072,-0.25495 -1.21952,0.14103 -2.79224,1.21141 l -0.77063,0.52422 -0.0658,-1.46084 c -0.0486,-1.08119 0.0229,-1.55875 0.27523,-1.83756 0.40731,-0.45005 0.45979,-2.22709 0.077,-2.60991 -0.16939,-0.1694 -2.15254,-0.26193 -4.17138,-0.27049 z m 35.260653,0.008 c -1.95822,0 -3.91658,0.0756 -4.19805,0.22619 -0.54205,0.2901 -0.61145,2.2062 -0.0955,2.63443 0.2304,0.19121 0.33028,0.69843 0.33028,1.67801 0,0.77232 -0.0542,1.40451 -0.12042,1.40451 -0.0662,0 -0.84032,-0.39526 -1.72015,-0.87814 -1.23485,-0.67775 -1.65939,-0.81808 -1.86121,-0.61625 -0.19098,0.191 -0.26147,2.17193 -0.26147,7.35196 v 7.09091 l 1.83799,2.06419 c 1.01082,1.13533 1.95557,2.28431 2.09945,2.55314 0.25576,0.47791 0.35226,0.48896 4.33393,0.48896 3.57603,0 4.08936,-0.0441 4.21138,-0.36209 0.0823,-0.21449 -0.0102,-0.47146 -0.22706,-0.63001 -0.33177,-0.2426 -0.36596,-1.18499 -0.36596,-10.06937 0,-8.44412 0.0458,-9.83969 0.33027,-10.07582 0.51597,-0.42823 0.44657,-2.34433 -0.0955,-2.63443 -0.28146,-0.15063 -2.23982,-0.22619 -4.19804,-0.22619 z m -3.52289,1.088 3.46784,0.0607 c 3.30084,0.0577 3.46784,0.0818 3.46784,0.50099 0,0.41911 -0.167,0.44324 -3.46784,0.501 l -3.46784,0.0607 v -0.56164 z m -31.981163,0.0607 c 3.30084,0.0577 3.46784,0.0818 3.46784,0.50099 0,0.41821 -0.16032,0.44226 -3.19262,0.48079 -1.75593,0.0223 -3.31645,-0.0109 -3.46783,-0.0736 -0.15137,-0.0627 -0.27522,-0.30624 -0.27522,-0.54142 0,-0.40783 0.16045,-0.42466 3.46783,-0.36682 z m -2.58712,1.93217 h 2.75225 2.75225 v 9.9081 9.90811 h -2.75225 -2.75225 v -9.90829 z m 35.228823,0 h 2.75225 2.75226 v 9.9081 9.90811 h -2.75226 -2.75225 v -9.90829 z m -25.939113,2.86234 c 0.098,0 0.17804,2.78469 0.17804,6.18826 v 6.18827 l -0.53368,0.6343 -0.53368,0.63388 -0.12299,-0.60206 c -0.0677,-0.33132 -0.0973,-3.26312 -0.0658,-6.51466 0.0534,-5.53301 0.0842,-5.93164 0.47863,-6.22009 0.23181,-0.1695 0.50153,-0.3079 0.59948,-0.3079 z m 22.100583,0 c 0.0685,0 0.31622,0.10255 0.55045,0.22791 0.40624,0.21743 0.42574,0.52678 0.42574,6.7155 0,3.56816 -0.0743,6.48485 -0.16513,6.48069 -0.0908,-0.004 -0.33853,-0.24567 -0.55046,-0.53711 -0.3452,-0.47478 -0.38531,-1.17282 -0.38531,-6.70862 0,-3.39827 0.0563,-6.17837 0.12471,-6.17837 z m -23.683983,0.8704 v 6.79246 6.79205 l -0.55045,0.51734 -0.55045,0.5169 v -6.94857 -6.94901 l 0.55045,-0.36038 z m 25.265663,0.0151 c 0.0908,0.002 0.38935,0.17768 0.66356,0.38875 l 0.49885,0.3836 -0.0585,7.02554 -0.0581,7.02556 -0.60549,-0.79428 -0.6055,-0.79386 v -6.62002 c 0,-3.64105 0.0743,-6.61779 0.16513,-6.61529 z m -6.29878,11.44463 c -0.1088,0 -0.32081,0.14847 -0.47132,0.32984 -0.22393,0.26981 -0.17597,0.4599 0.26405,1.04585 0.29577,0.39386 2.05201,2.77196 3.9026,5.28476 1.85058,2.5128 3.42867,4.56696 3.50697,4.56529 0.0783,-0.002 0.29097,-0.0989 0.47261,-0.21587 0.29277,-0.18845 0.29131,-0.28186 -0.0133,-0.82224 -0.6115,-1.08472 -7.45734,-10.18763 -7.66158,-10.18763 z m -12.50984,0.092 c -0.10565,-0.0349 -0.20459,-0.0363 -0.27093,0.005 -0.13268,0.082 -1.98598,2.47336 -4.118483,5.314 -3.27101,4.35722 -3.83377,5.21706 -3.59986,5.49891 0.1525,0.18375 0.38629,0.30132 0.51949,0.26104 0.1332,-0.0403 2.01559,-2.42848 4.18299,-5.30669 3.561273,-4.72926 3.907773,-5.26583 3.598993,-5.5746 -0.094,-0.0938 -0.20655,-0.16245 -0.3122,-0.19739 z m 6.20332,0.23825 c -0.37078,0 -0.45132,0.16955 -0.50874,1.07295 -0.0375,0.59011 -0.0158,1.20936 0.0482,1.37612 0.064,0.16676 0.20643,0.30318 0.31651,0.30318 0.45227,0 0.71653,-0.68419 0.65236,-1.68963 -0.057,-0.89358 -0.13811,-1.06262 -0.5083,-1.06262 z m 0,3.96324 c -0.37078,0 -0.45132,0.16956 -0.50874,1.07295 -0.0375,0.59011 -0.0158,1.20936 0.0482,1.37612 0.13255,0.34542 0.33508,0.37586 0.7487,0.11354 0.1943,-0.12321 0.26586,-0.56964 0.22017,-1.37269 -0.0581,-1.02078 -0.1306,-1.18992 -0.5083,-1.18992 z m 0,3.96324 c -0.37743,0 -0.44996,0.16933 -0.50788,1.18476 -0.0371,0.65162 -0.0155,1.3204 0.0482,1.48621 0.0636,0.16581 0.20558,0.30147 0.31565,0.30147 0.46625,0 0.71509,-0.68727 0.65151,-1.79886 -0.0575,-1.00464 -0.13055,-1.17358 -0.50745,-1.17358 z" />
  </g>
</svg>
