<?xml version="1.0" encoding="UTF-8" standalone="no"?>
<!-- Created with Inkscape (http://www.inkscape.org/) -->

<svg
   width="48.074776mm"
   height="39.081741mm"
   viewBox="0 0 48.074776 39.081741"
   version="1.1"
   id="svg1"
   sodipodi:docname="tree_ic_28.svg"
   inkscape:version="1.4 (86a8ad7, 2024-10-11)"
   xmlns:inkscape="http://www.inkscape.org/namespaces/inkscape"
   xmlns:sodipodi="http://sodipodi.sourceforge.net/DTD/sodipodi-0.dtd"
   xmlns="http://www.w3.org/2000/svg"
   xmlns:svg="http://www.w3.org/2000/svg">
  <sodipodi:namedview
     id="namedview1"
     pagecolor="#505050"
     bordercolor="#ffffff"
     borderopacity="1"
     inkscape:showpageshadow="0"
     inkscape:pageopacity="0"
     inkscape:pagecheckerboard="1"
     inkscape:deskcolor="#505050"
     inkscape:document-units="mm"
     inkscape:zoom="0.71891835"
     inkscape:cx="297.66941"
     inkscape:cy="169.00389"
     inkscape:window-width="1920"
     inkscape:window-height="1009"
     inkscape:window-x="1912"
     inkscape:window-y="-8"
     inkscape:window-maximized="1"
     inkscape:current-layer="layer1" />
  <defs
     id="defs1" />
  <g
     inkscape:label="Ebene 1"
     inkscape:groupmode="layer"
     id="layer1"
     transform="translate(-84.455693,-109.94728)">
    <path
       id="path2-4"
       style="fill:#000000;stroke-width:0.832177"
       d="m 98.679641,111.56373 c -2.72063,-0.0107 -4.6371,1.12603 -5.90315,3.50138 -0.44721,0.83905 -0.85352,1.33786 -1.09015,1.33786 -0.5843,0 -1.98215,1.26601 -2.48434,2.25039 -0.32638,0.63981 -0.4326,1.20171 -0.38059,2.01559 0.0556,0.86878 -0.0397,1.3095 -0.41541,1.9154 -1.68994,2.72537 -0.83559,6.23769 1.93647,7.96089 0.61106,0.37986 1.08628,0.83913 1.08628,1.04972 0,0.75488 1.27167,2.14537 2.52089,2.75655 1.22513,0.5994 2.37163,0.67117 3.47901,0.21718 0.35468,-0.14543 0.38533,0.058 0.38532,2.5626 v 2.72085 l -0.81664,0.65151 c -0.72321,0.57706 -0.99003,0.65222 -2.33684,0.66054 -1.45593,0.009 -1.54961,0.0415 -2.21083,0.78181 -0.3798,0.4252 -0.97948,0.92062 -1.33226,1.10091 -0.84986,0.43433 -1.4484,1.45657 -1.44924,2.47487 l -8.3e-4,0.82567 h -1.19809 c -1.21933,0 -1.58024,0.20774 -1.35978,0.78225 0.10686,0.2785 2.9369,0.31324 21.431859,0.26447 l 21.30888,-0.0559 0.0705,-0.49541 c 0.0682,-0.48067 0.0143,-0.4954 -1.81649,-0.4954 -1.86745,0 -1.88701,-0.006 -1.88701,-0.55217 0,-0.43905 0.18126,-0.62503 0.88373,-0.9061 1.18549,-0.47434 1.84303,-1.43376 1.85734,-2.71053 0.0107,-0.94443 -0.0221,-1.00168 -0.53926,-0.94351 -0.30275,0.034 -0.92201,0.25548 -1.37613,0.49197 l -0.82568,0.4296 v -2.52303 -2.52305 l 0.62055,0.12429 c 0.9049,0.18098 2.02161,-0.79799 2.02161,-1.7722 0,-0.39447 0.15955,-1.03679 0.35436,-1.42729 0.31115,-0.62368 0.3168,-0.80864 0.0464,-1.52019 -0.19353,-0.50936 -0.54991,-0.9244 -0.95985,-1.11854 -0.35855,-0.16981 -0.93189,-0.54135 -1.2742,-0.82567 -0.81765,-0.67912 -1.97698,-0.68849 -2.64948,-0.0215 -0.27471,0.27248 -0.86197,0.66583 -1.30516,0.87427 -0.87148,0.40989 -1.17496,1.07239 -0.962,2.10074 0.0686,0.33147 0.21558,1.09225 0.3264,1.69048 0.24696,1.33325 1.10148,2.19286 2.04268,2.05473 l 0.61238,-0.0899 0.068,2.49251 c 0.0373,1.37088 0.0473,2.49232 0.0224,2.49208 -0.0249,-2.3e-4 -0.41686,-0.25284 -0.87127,-0.5612 -1.65658,-1.12416 -2.47021,-0.36781 -1.71929,1.59845 0.37868,0.99157 1.35316,1.82214 2.14031,1.8238 0.28116,6e-4 0.38531,0.17941 0.38531,0.6614 v 0.66054 h -4.30942 c -3.98563,0 -4.30422,-0.029 -4.23632,-0.38531 0.0404,-0.21193 0.2817,-0.41544 0.53626,-0.45198 0.7384,-0.10591 1.65998,-1.22192 1.69951,-2.05816 0.0294,-0.6219 -0.0472,-0.74925 -0.49024,-0.81191 -0.2914,-0.0412 -0.80622,0.13319 -1.15595,0.39176 l -0.63086,0.46616 v -1.43762 c 0,-1.39665 0.0163,-1.43762 0.56506,-1.43762 0.31071,0 0.7431,-0.0955 0.96072,-0.21201 0.48279,-0.25838 0.99312,-1.42028 0.82094,-1.86895 -0.0691,-0.17995 -0.0306,-0.38557 0.0851,-0.45714 0.40455,-0.25001 0.22975,-1.70643 -0.26834,-2.23663 -0.26331,-0.28028 -0.57099,-0.50959 -0.68377,-0.50959 -0.11278,0 -0.50989,-0.25676 -0.88244,-0.57023 -1.00002,-0.84145 -1.90579,-0.56417 -3.80671,1.1654 -0.52568,0.4783 -0.74844,1.7587 -0.37155,2.13558 0.0891,0.0891 0.17711,0.46354 0.19567,0.83255 0.0422,0.83925 0.89302,1.72019 1.74983,1.81133 0.61839,0.0657 0.64799,0.1189 0.71773,1.3099 0.04,0.68291 0.0263,1.24195 -0.0301,1.24195 -0.0564,0 -0.38637,-0.14807 -0.73323,-0.32898 -1.2234,-0.63804 -1.82324,-0.2847 -1.5262,0.89878 0.17552,0.69936 1.14602,1.632 1.69822,1.632 0.26143,0 0.40854,0.15835 0.40854,0.44036 0,0.41365 -0.14722,0.44036 -2.42241,0.44036 h -2.42198 l -0.002,-0.82568 c -0.002,-1.22475 -1.09496,-2.67309 -2.02979,-2.69032 -0.20881,-0.004 -0.52701,-0.29232 -0.70742,-0.64119 -0.1804,-0.34887 -0.63666,-0.89382 -1.0136,-1.21099 -0.79598,-0.66978 -2.16984,-0.77624 -3.39774,-0.26319 -0.65672,0.27443 -0.7845,0.27257 -1.02392,-0.0159 -0.46189,-0.55654 -1.89537,-1.1783 -2.716549,-1.1783 h -0.77924 v -2.40134 -2.40091 l 1.596309,0.0284 c 2.3413,0.0417 3.7109,-0.77359 4.74204,-2.82235 0.24379,-0.4844 0.8866,-1.19204 1.42815,-1.57222 2.14659,-1.50694 2.88658,-4.82687 1.64276,-7.36915 -0.44773,-0.91509 -0.558,-1.39812 -0.45885,-2.00914 0.30323,-1.86855 -0.67825,-3.58896 -2.51015,-4.3993 -0.59459,-0.26303 -0.93576,-0.5564 -0.93576,-0.80503 0,-0.49189 -1.25055,-2.26846 -2.02634,-2.8787 -1.05434,-0.82934 -2.435149,-1.32339 -3.713389,-1.32838 z m -0.005,1.22002 c 0.73924,0.0472 1.486649,0.25755 2.197919,0.6485 1.24254,0.68298 2.06236,1.68453 2.55702,3.12338 0.21961,0.63882 0.43337,0.86418 0.9134,0.96328 1.00694,0.20789 1.59769,0.6902 2.09084,1.70683 0.4398,0.90664 0.44492,0.99423 0.10537,1.85864 -0.33896,0.86283 -0.3355,0.92963 0.0722,1.36364 1.082,1.15173 1.46827,3.83603 0.75515,5.24992 -0.45344,0.89901 -1.35465,1.87035 -2.09258,2.25599 -0.3546,0.18531 -0.62707,0.55589 -0.7087,0.96415 -0.18477,0.92384 -1.64422,2.31935 -2.69763,2.57938 -0.47387,0.11715 -1.33201,0.1727 -1.907229,0.12385 l -1.04585,-0.0886 v -1.39633 -1.39635 l 1.226469,-1.05875 c 0.67459,-0.5822 1.47919,-1.38976 1.7881,-1.79456 0.4987,-0.65347 0.52479,-0.77262 0.23222,-1.0652 -0.29257,-0.29258 -0.48543,-0.17939 -1.72101,1.01102 -0.765399,0.73741 -1.421829,1.34086 -1.458689,1.34086 -0.0369,0 -0.0671,-1.72322 -0.0671,-3.82949 0,-3.05048 -0.0619,-3.85329 -0.30361,-3.94604 -0.65971,-0.25316 -0.79729,0.36405 -0.79729,3.57491 v 3.19777 l -1.5404,-1.52835 c -1.4414,-1.43036 -1.56383,-1.50493 -1.90937,-1.15939 -0.34554,0.34554 -0.25778,0.48645 1.36623,2.19492 0.95448,1.00412 1.81362,1.85869 1.90937,1.89905 0.0958,0.0404 0.17417,0.9439 0.17417,2.00785 v 1.93475 l -0.82567,0.13633 c -0.98789,0.16329 -1.06668,0.15913 -1.97775,-0.10408 -0.97697,-0.28224 -2.44631,-1.72822 -2.6155,-2.57421 -0.10785,-0.53924 -0.34915,-0.79129 -1.10864,-1.15896 -2.56498,-1.24168 -3.25954,-4.54015 -1.5017,-7.13048 0.48977,-0.72171 0.52609,-0.90775 0.32296,-1.6621 -0.42532,-1.57955 0.72666,-3.37132 2.28738,-3.55772 0.51888,-0.062 0.69013,-0.2545 1.03166,-1.15766 0.88479,-2.33975 3.03044,-3.66832 5.24821,-3.52675 z m 27.010329,18.42203 c 0.15418,-0.0231 0.29898,-0.0185 0.41111,0.0246 0.19118,0.0734 0.44004,0.37666 0.55303,0.67387 0.13834,0.36385 0.40683,0.5634 0.82223,0.61108 0.70801,0.0812 0.95799,0.84801 0.46875,1.43805 -0.16067,0.19378 -0.292,0.6966 -0.292,1.11724 0,1.04629 -0.53819,1.38097 -1.40106,0.87126 -0.56498,-0.33375 -0.67301,-0.33988 -0.91297,-0.0508 -0.34779,0.41902 -1.18654,0.42291 -1.53181,0.007 -0.16524,-0.19906 -0.20924,-0.58183 -0.1161,-1.00587 0.10839,-0.49348 0.0469,-0.79852 -0.22019,-1.09359 -0.53791,-0.59438 -0.33471,-1.17871 0.49455,-1.42299 0.39332,-0.11588 0.71515,-0.34094 0.71515,-0.50014 0,-0.28179 0.54673,-0.60047 1.00931,-0.66957 z m -9.61397,4.16363 c 0.19066,0.002 0.35967,0.17035 0.5797,0.50616 0.19364,0.29553 0.56665,0.56796 0.82869,0.6055 0.60252,0.0862 0.74079,0.74886 0.26576,1.27377 -0.23949,0.26464 -0.28378,0.45163 -0.12944,0.54701 0.34646,0.21412 0.2844,0.9043 -0.11052,1.23206 -0.28551,0.23694 -0.45104,0.22302 -0.96544,-0.0808 -0.54811,-0.32378 -0.65343,-0.32854 -0.89362,-0.0391 -0.36657,0.44168 -0.73342,0.41262 -1.19207,-0.0942 -0.29612,-0.32721 -0.32995,-0.51981 -0.14923,-0.8575 0.17851,-0.33355 0.15474,-0.501 -0.10278,-0.71472 -0.45481,-0.37746 -0.30844,-1.17398 0.23481,-1.27765 0.24189,-0.0462 0.65802,-0.31955 0.92501,-0.60765 0.3061,-0.33031 0.51848,-0.49482 0.70913,-0.49282 z m -15.37347,5.19703 0.98824,1.03166 0.98866,1.03124 0.66914,-0.56293 c 1.33812,-1.12595 3.21237,-0.59018 3.61533,1.03339 0.11329,0.45643 0.28395,0.60549 0.69365,0.60549 0.7839,0 1.83069,1.12317 1.83069,1.96442 v 0.67774 h -9.35765 -9.357659 v -0.72934 c 0,-0.8852 0.68691,-1.69263 1.43977,-1.69263 0.34196,0 0.54185,-0.12544 0.54185,-0.34017 0,-0.5739 1.0266,-1.42128 1.72188,-1.42128 0.35247,0 0.91832,0.21843 1.25787,0.48552 0.59757,0.47004 0.6254,0.47241 0.85577,0.0705 0.1309,-0.22836 0.54366,-0.75935 0.91728,-1.18003 0.59178,-0.66634 0.84137,-0.77864 1.93732,-0.86953 z m 27.15397,1.59759 c 0.42954,0 0.43042,0.0802 0.0129,0.8876 -0.18371,0.35523 -0.62957,0.79883 -0.99082,0.98565 -0.62843,0.32496 -0.65667,0.31951 -0.65667,-0.12342 0,-0.54095 1.12941,-1.74983 1.63458,-1.74983 z m -4.33866,0.0241 c 0.38399,0.0935 1.00026,0.51969 1.27936,0.94566 v 4.3e-4 c 0.19808,0.3023 0.32711,0.69541 0.28684,0.87341 -0.0642,0.28308 -0.14836,0.28346 -0.67602,0.005 -0.60148,-0.31773 -1.41334,-1.55694 -1.17573,-1.79455 0.0552,-0.0552 0.15755,-0.0608 0.28555,-0.0296 z m -9.10953,1.297 c 0.35241,0 1.02479,0.6975 1.02479,1.06306 0,0.40112 -0.31853,0.3061 -0.84245,-0.25158 -0.55131,-0.58685 -0.6016,-0.81148 -0.18234,-0.81148 z m 3.56847,0.0482 c 0.0709,0.0709 0.003,0.32959 -0.14965,0.57496 -0.15324,0.24537 -0.51428,0.55376 -0.80246,0.68506 -0.44308,0.20188 -0.51306,0.18251 -0.4524,-0.12601 0.0821,-0.41766 1.2101,-1.32842 1.40451,-1.13401 z" />
  </g>
</svg>
