<?xml version="1.0" encoding="UTF-8" standalone="no"?>
<!-- Created with Inkscape (http://www.inkscape.org/) -->

<svg
   width="48.074776mm"
   height="39.081741mm"
   viewBox="0 0 48.074776 39.081741"
   version="1.1"
   id="svg1"
   sodipodi:docname="tree_ic_25.svg"
   inkscape:version="1.4 (86a8ad7, 2024-10-11)"
   xmlns:inkscape="http://www.inkscape.org/namespaces/inkscape"
   xmlns:sodipodi="http://sodipodi.sourceforge.net/DTD/sodipodi-0.dtd"
   xmlns="http://www.w3.org/2000/svg"
   xmlns:svg="http://www.w3.org/2000/svg">
  <sodipodi:namedview
     id="namedview1"
     pagecolor="#505050"
     bordercolor="#ffffff"
     borderopacity="1"
     inkscape:showpageshadow="0"
     inkscape:pageopacity="0"
     inkscape:pagecheckerboard="1"
     inkscape:deskcolor="#505050"
     inkscape:document-units="mm"
     inkscape:zoom="0.71891835"
     inkscape:cx="297.66941"
     inkscape:cy="169.00389"
     inkscape:window-width="1920"
     inkscape:window-height="1009"
     inkscape:window-x="1912"
     inkscape:window-y="-8"
     inkscape:window-maximized="1"
     inkscape:current-layer="layer1" />
  <defs
     id="defs1" />
  <g
     inkscape:label="Ebene 1"
     inkscape:groupmode="layer"
     id="layer1"
     transform="translate(-84.455693,-109.94728)">
    <path
       id="path2-7"
       style="fill:#000000;stroke-width:0.832177"
       d="m 86.695251,115.66627 v 2.09171 2.09171 l 0.93577,0.0675 0.93576,0.0679 v 11.10619 11.10662 h -0.74698 c -0.73507,0 -1.17306,0.44632 -0.88889,0.90609 0.0728,0.11772 1.60422,0.17955 3.57879,0.14493 3.28447,-0.0576 3.45149,-0.0815 3.45149,-0.50057 0,-0.34991 -0.16956,-0.45447 -0.82567,-0.50873 l -0.82568,-0.0684 v -11.10576 -11.10576 h 16.183239 16.18323 v 11.11909 11.1191 h -0.74698 c -0.73146,0 -1.17295,0.44575 -0.8919,0.90051 0.20169,0.32636 6.86754,0.25491 6.98256,-0.0748 0.18636,-0.53426 -0.11501,-0.82568 -0.85363,-0.82568 h -0.74698 v -11.10664 -11.1062 l 0.93576,-0.0679 0.93577,-0.0675 v -2.09171 -2.09171 h -21.79783 z m 1.25528,0.99081 h 20.674999 20.67457 v 0.99081 c 0,0.97068 -0.0146,0.99086 -0.71559,0.99253 -0.39356,8.3e-4 -9.5338,0.0257 -20.31162,0.055 -10.777819,0.0292 -19.794529,0.0249 -20.037239,-0.01 -0.38028,-0.0545 -0.43071,-0.19913 -0.36339,-1.04586 z m 1.93733,3.3027 h 0.66054 0.66054 v 11.11909 11.1191 h -0.66054 -0.66054 v -11.1191 z m 35.889359,0 h 0.66054 0.66054 v 11.11909 11.1191 h -0.5139 c -0.28256,0 -0.57982,-0.0663 -0.66054,-0.14707 -0.0807,-0.0807 -0.14664,-5.08433 -0.14664,-11.1191 z m -17.17405,5.95733 c -3.74404,0.008 -5.87053,0.1 -6.38265,0.27523 -0.69652,0.23835 -0.86348,0.47783 -1.7967,2.57464 l -1.029079,2.31189 -0.88245,-0.0722 c -1.20962,-0.099 -1.84408,0.27001 -1.75713,1.02263 0.0565,0.48908 0.19222,0.6027 0.78869,0.66012 l 0.72031,0.0692 -0.50013,0.70139 c -0.4672,0.65512 -0.49804,0.90429 -0.46875,3.78392 0.0346,3.40658 0.22674,5.36074 0.56851,5.77973 0.30084,0.36878 3.943179,0.37785 4.310289,0.0107 0.14532,-0.14531 0.26405,-0.64073 0.26405,-1.1009 v -0.83642 h 5.93282 5.93282 l 0.0671,1.04585 0.0671,1.04586 2.05903,0.0637 c 1.24972,0.0386 2.17177,-0.0302 2.34629,-0.17503 0.37163,-0.30843 0.556,-1.80602 0.68677,-5.57374 0.10162,-2.92796 0.0852,-3.07787 -0.43391,-3.96325 l -0.53927,-0.92028 h 0.79772 c 0.94661,0 1.18917,-0.54687 0.5539,-1.24884 -0.33482,-0.36992 -0.57375,-0.42268 -1.41311,-0.31134 l -1.01017,0.13417 -0.88416,-2.25942 c -1.23595,-3.15865 -0.90198,-3.03282 -7.99787,-3.01759 z m -0.11826,1.3185 c 2.90789,-0.002 5.81511,0.0496 5.98529,0.15869 0.13882,0.089 0.65411,1.12773 1.14519,2.30845 l 0.89276,2.14676 h -8.01077 -8.01121 l 0.86911,-2.13601 c 0.47794,-1.17461 0.99121,-2.21337 1.1409,-2.30845 0.1722,-0.10936 3.08084,-0.16674 5.98873,-0.16944 z m -10.243109,4.83408 c 0.11395,0 0.26836,0.0991 0.34318,0.22017 0.0748,0.1211 -0.0185,0.22019 -0.20728,0.22019 -0.1888,0 -0.34318,-0.0991 -0.34318,-0.22019 0,-0.12109 0.0933,-0.22017 0.20728,-0.22017 z m 1.0179,1.21099 h 9.121569 9.12156 l 0.50444,0.74783 c 0.45191,0.67059 0.504,1.00729 0.504,3.24766 v 2.49982 h -9.98164 c -5.48983,0 -10.047559,-0.0663 -10.128279,-0.14707 -0.0807,-0.0807 -0.14487,-1.14586 -0.1432,-2.36694 0.003,-1.89674 0.0766,-2.34815 0.50271,-3.10058 z m 1.513739,1.65694 c -0.45636,-0.003 -0.847499,0.15886 -1.075099,0.48379 -0.45981,0.65647 -0.43178,1.09957 0.11354,1.79284 0.585429,0.74425 1.850299,0.79748 2.718699,0.11439 0.77014,-0.60579 0.67174,-1.24714 -0.29028,-1.8939 -0.48903,-0.32878 -1.01049,-0.49467 -1.46686,-0.49712 z m 15.48959,0.0107 c -0.42279,-0.008 -0.91325,0.10501 -1.40881,0.34016 -0.99354,0.47147 -1.19537,1.24296 -0.51476,1.96744 1.41403,1.50515 4.30833,-0.3949 2.92685,-1.92142 -0.2253,-0.24897 -0.58049,-0.37808 -1.00328,-0.38618 z m -15.14598,1.08456 c 0.44036,0 0.66054,0.11008 0.66054,0.33027 0,0.33325 -0.88623,0.47143 -1.17444,0.1832 -0.31565,-0.31564 -0.11739,-0.51347 0.5139,-0.51347 z m 14.87505,0 c 0.58893,0 0.68159,0.20817 0.27351,0.61625 -0.32157,0.32156 -0.76275,0.34234 -0.94695,0.0443 -0.21885,-0.35411 0.0935,-0.66054 0.67344,-0.66054 z m -7.60911,0.4881 c -1.51374,-0.002 -2.99995,0.065 -3.3027,0.14922 -0.67911,0.1889 -0.73526,0.90878 -0.0959,1.22777 0.26194,0.1307 1.84314,0.21032 3.7336,0.18835 2.86738,-0.0334 3.31527,-0.0874 3.56675,-0.43133 0.67427,-0.92212 -0.0342,-1.12818 -3.90175,-1.13401 z m -8.36685,4.57605 c 1.26233,0 1.32109,0.0245 1.32109,0.55044 0,0.52599 -0.0587,0.55045 -1.32109,0.55045 -1.262319,0 -1.321079,-0.0245 -1.321079,-0.55045 0,-0.52598 0.0588,-0.55044 1.321079,-0.55044 z m 16.73369,0 c 1.26233,0 1.32108,0.0245 1.32108,0.55044 0,0.52599 -0.0588,0.55045 -1.32108,0.55045 -1.26241,0 -1.32108,-0.0245 -1.32108,-0.55045 0,-0.52598 0.0587,-0.55044 1.32108,-0.55044 z" />
  </g>
</svg>
