<?xml version="1.0" encoding="UTF-8" standalone="no"?>
<!-- Created with Inkscape (http://www.inkscape.org/) -->

<svg
   width="48.074776mm"
   height="39.081741mm"
   viewBox="0 0 48.074776 39.081741"
   version="1.1"
   id="svg1"
   sodipodi:docname="tree_ic_22.svg"
   inkscape:version="1.4 (86a8ad7, 2024-10-11)"
   xmlns:inkscape="http://www.inkscape.org/namespaces/inkscape"
   xmlns:sodipodi="http://sodipodi.sourceforge.net/DTD/sodipodi-0.dtd"
   xmlns="http://www.w3.org/2000/svg"
   xmlns:svg="http://www.w3.org/2000/svg">
  <sodipodi:namedview
     id="namedview1"
     pagecolor="#505050"
     bordercolor="#ffffff"
     borderopacity="1"
     inkscape:showpageshadow="0"
     inkscape:pageopacity="0"
     inkscape:pagecheckerboard="1"
     inkscape:deskcolor="#505050"
     inkscape:document-units="mm"
     inkscape:zoom="0.71891835"
     inkscape:cx="297.66941"
     inkscape:cy="169.00389"
     inkscape:window-width="1920"
     inkscape:window-height="1009"
     inkscape:window-x="1912"
     inkscape:window-y="-8"
     inkscape:window-maximized="1"
     inkscape:current-layer="layer1" />
  <defs
     id="defs1" />
  <g
     inkscape:label="Ebene 1"
     inkscape:groupmode="layer"
     id="layer1"
     transform="translate(-84.455693,-109.94728)">
    <path
       id="path2-99"
       style="fill:#000000;stroke-width:0.832177"
       d="m 88.020581,109.94719 c -0.20413,0 -0.39866,0.19816 -0.43219,0.44035 -0.045,0.32498 1.41174,1.84652 5.55955,5.80726 l 5.62061,5.36731 -4.3e-4,9.60494 -4.4e-4,9.60535 -1.91496,1.21099 c -1.05333,0.66605 -1.99436,1.24374 -2.09128,1.2841 -0.0969,0.0404 -0.17632,-4.07727 -0.17632,-9.15038 0,-7.05328 -0.0647,-9.3027 -0.27522,-9.55934 -0.52946,-0.64565 -4.38797,-2.85653 -4.86632,-2.78838 l -0.47305,0.0675 -0.11009,12.5894 -0.11009,12.5894 -0.92974,0.67344 c -0.61622,0.44633 -0.88716,0.786 -0.80245,1.00672 0.0703,0.18321 0.28693,0.33328 0.48121,0.33328 0.36381,0 3.85651,-2.12898 9.06737,-5.52687 l 2.97244,-1.93818 8.919439,-0.0335 8.91944,-0.0331 5.91519,3.7766 c 3.25355,2.07713 6.0756,3.74585 6.27084,3.70823 0.66874,-0.12878 0.51541,-0.76997 -0.30534,-1.27721 -0.4389,-0.27127 -0.87317,-0.70357 -0.96501,-0.96071 -0.0918,-0.25714 -0.14011,-5.84957 -0.10707,-12.4277 0.033,-6.57812 0.006,-12.1019 -0.0607,-12.27504 -0.0664,-0.17313 -0.29905,-0.31479 -0.5169,-0.31479 -0.39714,0 -3.95258,1.97603 -4.67582,2.59873 -0.35569,0.30623 -0.38532,1.04885 -0.38532,9.65523 0,5.12794 -0.0576,9.32369 -0.12772,9.32369 -0.0702,0 -1.06096,-0.60484 -2.20181,-1.34388 l -2.07407,-1.34344 v -9.45054 -9.45011 l 3.57793,-3.47171 c 1.96786,-1.9093 4.54743,-4.40352 5.73242,-5.54277 2.05434,-1.97506 2.51999,-2.75483 1.64533,-2.75483 -0.20752,0 -3.00521,2.51521 -6.21708,5.58921 l -5.83951,5.58879 v 9.5486 9.54816 h -2.30845 -2.30888 l -0.0581,-6.44027 -0.0585,-6.44027 -3.71382,-0.0607 c -2.55217,-0.0415 -3.80914,0.0186 -4.01828,0.19223 -0.24592,0.20409 -0.30446,1.45173 -0.30446,6.50047 v 6.24847 h -2.09171 -2.09171 v -9.44926 -9.44925 l -5.848969,-5.68812 c -3.21693,-3.12848 -6.01596,-5.68813 -6.22008,-5.68813 z m 18.887739,4.33007 c -1.56059,0.053 -1.97504,0.32654 -1.9713,1.0037 0.006,0.99305 0.89934,2.34882 1.65437,2.51057 1.05302,0.22563 3.32927,0.21038 3.95162,-0.0262 0.38226,-0.14534 0.75274,-0.60322 1.10865,-1.37139 0.45697,-0.98635 0.49252,-1.2164 0.24684,-1.58642 -0.25435,-0.38307 -0.60088,-0.44233 -3.0206,-0.51648 -0.80194,-0.0246 -1.44937,-0.0315 -1.96958,-0.0137 z m -0.88416,1.28452 h 2.43488 c 2.29229,0 2.42228,0.0236 2.21901,0.40338 -0.37082,0.69292 -0.74222,0.80935 -2.36737,0.74311 -1.39569,-0.0569 -1.61791,-0.12654 -1.93174,-0.6055 z m 20.92743,7.66416 v 11.47043 h -4.2e-4 c 0,6.30866 -0.0743,11.46256 -0.16514,11.45324 -0.0908,-0.009 -0.83393,-0.45982 -1.65135,-1.00113 l -1.48621,-0.98393 v -4.37866 -4.37866 l 0.60549,-0.0697 c 0.4805,-0.0553 0.60549,-0.1833 0.60549,-0.62012 0,-0.4368 -0.12499,-0.56485 -0.60549,-0.62011 l -0.60549,-0.0696 0.002,-4.44402 0.002,-4.44403 0.60421,-0.3436 c 0.33226,-0.189 1.07483,-0.61966 1.65005,-0.95684 z m -36.738239,0.15868 c 0.0431,-0.0423 0.74706,0.32246 1.56448,0.8102 l 1.48621,0.88674 v 4.48746 4.48789 h -0.55045 c -0.46483,0 -0.55044,0.10275 -0.55044,0.66053 0,0.5578 0.0856,0.66055 0.55044,0.66055 h 0.55045 l -4.2e-4,4.45864 -4.4e-4,4.45865 -1.04542,0.6485 c -0.575,0.35675 -1.25913,0.783 -1.52019,0.94738 -0.46857,0.29502 -0.47662,0.27552 -0.61883,-1.52922 -0.14134,-1.79386 -0.0192,-20.82665 0.13461,-20.97732 z m 15.380779,4.94761 h 2.86233 2.86235 v 5.94486 5.94486 h -2.86235 -2.86233 v -5.94486 z m 4.62378,5.2998 c -0.0978,0 -0.19552,0.0854 -0.36639,0.2563 -0.30268,0.30268 -0.31701,0.42589 -0.083,0.70784 0.15579,0.18773 0.35795,0.34146 0.44939,0.34146 0.0915,0 0.29359,-0.15373 0.44939,-0.34146 0.23399,-0.28195 0.21967,-0.40516 -0.083,-0.70784 -0.17087,-0.17087 -0.26862,-0.2563 -0.36639,-0.2563 z" />
  </g>
</svg>
