<?xml version="1.0" encoding="UTF-8" standalone="no"?>
<!-- Created with Inkscape (http://www.inkscape.org/) -->

<svg
   width="48.074776mm"
   height="39.081741mm"
   viewBox="0 0 48.074776 39.081741"
   version="1.1"
   id="svg1"
   sodipodi:docname="tree_ic_13.svg"
   inkscape:version="1.4 (86a8ad7, 2024-10-11)"
   xmlns:inkscape="http://www.inkscape.org/namespaces/inkscape"
   xmlns:sodipodi="http://sodipodi.sourceforge.net/DTD/sodipodi-0.dtd"
   xmlns="http://www.w3.org/2000/svg"
   xmlns:svg="http://www.w3.org/2000/svg">
  <sodipodi:namedview
     id="namedview1"
     pagecolor="#505050"
     bordercolor="#ffffff"
     borderopacity="1"
     inkscape:showpageshadow="0"
     inkscape:pageopacity="0"
     inkscape:pagecheckerboard="1"
     inkscape:deskcolor="#505050"
     inkscape:document-units="mm"
     inkscape:zoom="0.71891835"
     inkscape:cx="77.894798"
     inkscape:cy="145.35726"
     inkscape:window-width="1920"
     inkscape:window-height="1009"
     inkscape:window-x="1912"
     inkscape:window-y="-8"
     inkscape:window-maximized="1"
     inkscape:current-layer="layer1" />
  <defs
     id="defs1" />
  <g
     inkscape:label="Ebene 1"
     inkscape:groupmode="layer"
     id="layer1"
     transform="translate(-84.455693,-109.94728)">
    <path
       id="path1-5"
       style="fill:#000000"
       d="m 108.52744,111.62646 c -0.50044,0 -20.283697,11.04846 -20.555857,11.47992 -0.19175,0.30398 -0.13609,0.54344 0.20568,0.8847 0.44827,0.44761 0.51467,0.44295 1.51722,-0.10542 l 1.04799,-0.57309 v 11.84009 c 0,6.5121 0.0834,11.92295 0.18501,12.02459 0.10164,0.10165 1.4411,0.1516 2.97656,0.11059 l 2.79156,-0.0749 0.0698,-8.53281 0.0698,-8.53281 h 11.634427 11.63443 l 0.0698,8.53281 0.0698,8.53281 h 2.91042 2.91041 l 0.0687,-11.97601 0.0687,-11.97652 1.07591,0.5488 c 0.84436,0.43076 1.15695,0.48154 1.45262,0.23616 0.83501,-0.69299 0.40936,-1.24554 -1.93838,-2.51664 -1.27331,-0.68939 -3.86292,-2.10872 -5.75469,-3.15381 -10.67777,-5.8988 -12.25273,-6.74843 -12.50983,-6.74843 z m -0.046,1.87379 5.88078,3.2489 c 3.23458,1.78695 6.86318,3.77632 8.06359,4.42092 l 2.18282,1.17202 v 11.7078 l 5.1e-4,11.70781 h -1.4552 -1.45521 v -10.13323 c 0,-7.52887 -0.0814,-10.21513 -0.3173,-10.45103 -0.4573,-0.4573 -25.366437,-0.4573 -25.823747,0 -0.2359,0.2359 -0.31729,2.92216 -0.31729,10.45103 v 10.13323 h -1.45521 -1.45521 v -11.72125 -11.72123 l 1.12448,-0.54726 c 0.61847,-0.30125 4.2523,-2.28509 8.075477,-4.408 z m -11.653547,12.94288 h 11.641667 11.64167 v 1.05832 1.05834 H 108.46956 96.827893 v -1.05834 z m 11.688177,5.82082 c -5.57467,0 -5.46528,-0.0456 -6.64559,2.77813 -0.69165,1.65467 -0.85858,1.86097 -1.5658,1.93373 -0.435367,0.0448 -0.945237,0.26696 -1.133257,0.49351 -0.28577,0.34433 -0.25527,0.48268 0.1881,0.84439 0.46447,0.37894 0.48858,0.51472 0.19379,1.09399 -0.40528,0.79643 -0.45544,4.58956 -0.0703,5.30924 0.15064,0.28147 0.44829,0.5116 0.661447,0.5116 0.26285,0 0.38758,0.28397 0.38758,0.88211 0,0.48507 0.0792,0.96133 0.17621,1.05834 0.31534,0.31533 2.69411,0.18927 2.91662,-0.15452 0.11775,-0.1819 0.21446,-0.56885 0.21446,-0.85989 0,-0.5065 0.2001,-0.53191 4.67879,-0.601 l 4.6793,-0.0724 0.0832,0.8661 0.0837,0.86558 h 1.5875 1.5875 l 0.0868,-0.91571 c 0.0501,-0.52682 0.30294,-1.06697 0.59531,-1.27176 0.44124,-0.30903 0.50599,-0.67688 0.48989,-2.78846 -0.0102,-1.33781 -0.11515,-2.67053 -0.23306,-2.96157 -0.1425,-0.35174 -0.0812,-0.68063 0.18294,-0.98186 0.60312,-0.68783 0.2285,-1.2671 -0.81959,-1.2671 -0.88356,0 -0.92443,-0.0493 -1.76113,-2.12494 -0.47114,-1.1688 -1.07207,-2.24036 -1.33532,-2.38125 -0.26325,-0.14088 -2.61632,-0.25631 -5.22914,-0.25631 z m 4.63796,1.57562 0.5426,1.39526 c 0.29836,0.76725 0.62618,1.60311 0.72864,1.85777 0.17421,0.43297 -0.20926,0.46302 -5.91075,0.46302 h -6.09731 l 0.73174,-1.78594 0.73174,-1.78594 4.63641,-0.0718 z m -4.66225,5.03897 h 7.06055 l 0.42737,0.65215 c 0.29106,0.44422 0.42736,1.24565 0.42736,2.51354 v 1.86139 h -7.80521 -7.80521 v -2.19573 c 0,-1.35526 0.12135,-2.3176 0.31729,-2.51354 0.23108,-0.23108 2.23921,-0.31781 7.37785,-0.31781 z m -6.01049,1.40766 c -0.20449,0.001 -0.35408,0.0639 -0.50436,0.18862 -0.47345,0.39297 -0.49935,1.09538 -0.0568,1.53789 0.18128,0.18128 0.74682,0.2947 1.25677,0.25167 0.7824,-0.066 0.93961,-0.18785 1.00821,-0.78032 0.0694,-0.59929 -0.0581,-0.74795 -0.87023,-1.01596 -0.36978,-0.12203 -0.62905,-0.18295 -0.83355,-0.1819 z m 11.94398,0.0393 c -0.21977,0.005 -0.45427,0.0539 -0.68833,0.1509 -0.80287,0.33255 -0.99529,0.98133 -0.45217,1.52445 0.67429,0.67429 2.32854,0.1478 2.32854,-0.74104 0,-0.58418 -0.52873,-0.95095 -1.18804,-0.93431 z m -5.3604,0.72709 c -1.5737,-0.0438 -2.93415,0.0434 -3.24114,0.20774 -0.65255,0.34926 -0.68873,1.20318 -0.0661,1.56579 0.25466,0.14833 1.60914,0.27362 3.01015,0.27802 2.75498,0.009 3.25884,-0.21359 3.09542,-1.36632 -0.083,-0.58569 -0.19376,-0.61282 -2.79828,-0.68523 z m 5.84254,4.223 c 0.26108,-0.0506 0.44132,0.0843 0.44132,0.33073 0,0.24543 -0.2264,0.41599 -0.55139,0.41599 -0.6448,0 -0.55371,-0.61799 0.11007,-0.74672 z m -12.70259,0.0734 c 0.23127,-0.0152 0.4439,0.0806 0.4439,0.30024 0,0.2054 -0.24821,0.3731 -0.55138,0.3731 -0.30317,0 -0.50495,-0.13829 -0.44855,-0.30747 0.0748,-0.22452 0.32477,-0.35064 0.55603,-0.36587 z" />
  </g>
</svg>
