<?xml version="1.0" encoding="UTF-8" standalone="no"?>
<!-- Created with Inkscape (http://www.inkscape.org/) -->

<svg
   width="48.074776mm"
   height="39.081741mm"
   viewBox="0 0 48.074776 39.081741"
   version="1.1"
   id="svg1"
   sodipodi:docname="tree_ic_15.svg"
   inkscape:version="1.4 (86a8ad7, 2024-10-11)"
   xmlns:inkscape="http://www.inkscape.org/namespaces/inkscape"
   xmlns:sodipodi="http://sodipodi.sourceforge.net/DTD/sodipodi-0.dtd"
   xmlns="http://www.w3.org/2000/svg"
   xmlns:svg="http://www.w3.org/2000/svg">
  <sodipodi:namedview
     id="namedview1"
     pagecolor="#505050"
     bordercolor="#ffffff"
     borderopacity="1"
     inkscape:showpageshadow="0"
     inkscape:pageopacity="0"
     inkscape:pagecheckerboard="1"
     inkscape:deskcolor="#505050"
     inkscape:document-units="mm"
     inkscape:zoom="0.71891835"
     inkscape:cx="77.894798"
     inkscape:cy="145.35726"
     inkscape:window-width="1920"
     inkscape:window-height="1009"
     inkscape:window-x="1912"
     inkscape:window-y="-8"
     inkscape:window-maximized="1"
     inkscape:current-layer="layer1" />
  <defs
     id="defs1" />
  <g
     inkscape:label="Ebene 1"
     inkscape:groupmode="layer"
     id="layer1"
     transform="translate(-84.455693,-109.94728)">
    <path
       id="path1-8"
       style="fill:#000000"
       d="m 92.330237,111.15676 -0.0687,17.99167 c -0.0377,9.89541 -0.0108,18.14214 0.0594,18.32601 0.10012,0.26208 2.03094,0.31923 8.932273,0.26458 l 8.80411,-0.0698 v -18.25625 -18.25625 h -8.86354 z m 32.411463,0.10336 -1.25677,0.0806 c -1.0513,0.0675 -1.25678,0.16672 -1.25678,0.6072 0,0.37588 0.22287,0.56516 0.77877,0.66146 0.42831,0.0742 0.7557,0.22417 0.7276,0.33331 -0.0281,0.10914 -0.0512,0.37703 -0.0512,0.59531 v 5.2e-4 c 0,0.22049 0.23519,0.39688 0.52917,0.39688 0.45937,0 0.52917,-0.17688 0.52917,-1.33791 z m -11.34298,0.0289 c -1.61423,0 -2.0556,0.23621 -1.78077,0.95239 0.11654,0.30366 0.51266,0.37851 1.67742,0.31781 1.351,-0.0704 1.5343,-0.14735 1.6092,-0.67489 0.0796,-0.56071 -0.008,-0.59531 -1.50585,-0.59531 z m 5.24464,0 c -1.56185,0 -2.00693,0.24049 -1.73891,0.93896 0.18019,0.46959 2.8128,0.53997 3.26543,0.0873 0.63411,-0.6341 0.051,-1.02629 -1.52652,-1.02629 z m -24.725623,1.4552 h 7.276043 7.27604 l 0.0682,16.7349 0.0682,16.73489 h -7.41247 -7.412463 l 0.0682,-16.73489 z m 30.294793,3.175 c -0.29873,0 -0.41689,0.38542 -0.47749,1.55805 -0.0442,0.85683 -0.0146,1.73015 0.0661,1.94045 0.0807,0.21026 0.29567,0.33242 0.47749,0.27182 0.22191,-0.074 0.33073,-0.7115 0.33073,-1.93994 0,-1.4503 -0.0823,-1.83038 -0.39688,-1.83038 z m 0.0114,5.95313 c -0.49186,0 -0.54054,0.16364 -0.54054,1.80816 0,0.99439 0.0819,1.89001 0.18191,1.99006 0.47382,0.47383 0.75055,-0.16715 0.82165,-1.90118 0.0721,-1.75959 0.0386,-1.89704 -0.46302,-1.89704 z m -0.0114,5.95312 c -0.30913,0 -0.41441,0.42407 -0.47491,1.91823 -0.0727,1.7935 -0.0415,1.91823 0.47491,1.91823 0.51642,0 0.54709,-0.12473 0.47439,-1.91823 -0.0606,-1.49416 -0.16525,-1.91823 -0.47439,-1.91823 z m 0.0119,5.95313 c -0.48835,0 -0.54105,0.16408 -0.54105,1.67586 0,0.92163 0.0819,1.75772 0.1819,1.85777 0.4647,0.46471 0.75047,-0.1501 0.82217,-1.76837 0.0721,-1.62709 0.036,-1.76526 -0.46302,-1.76526 z m -0.0119,5.55624 c -0.47876,0 -0.52917,0.1764 -0.52917,1.85209 0,1.67569 0.0504,1.85208 0.52917,1.85208 0.47877,0 0.52917,-0.17639 0.52917,-1.85208 0,-1.67569 -0.0504,-1.85209 -0.52917,-1.85209 z m 0.3297,5.60121 c -0.0624,-0.0231 -0.14413,-0.018 -0.24909,0.002 -0.26268,0.0501 -0.51392,0.34663 -0.55862,0.65888 -0.0517,0.36079 -0.34007,0.63247 -0.79116,0.74569 -0.81093,0.20353 -1.12606,0.58522 -0.92191,1.11724 0.099,0.25792 0.507,0.34447 1.36477,0.28888 l 1.22319,-0.0796 0.0806,-1.41128 c 0.0532,-0.93042 0.0395,-1.25259 -0.1478,-1.32188 z m -6.15053,1.27796 c -1.33314,0 -2.03194,0.4724 -1.75752,1.18753 0.21322,0.55569 2.88442,0.55808 3.34502,0.003 0.55604,-0.66998 -0.13815,-1.19063 -1.5875,-1.19063 z m -5.16351,0.0119 c -0.48526,-0.0146 -0.99403,0.0325 -1.29708,0.14883 -0.4287,0.16451 -0.56767,0.92526 -0.23048,1.26246 0.10355,0.10354 0.78693,0.15299 1.51877,0.11007 1.0567,-0.062 1.35004,-0.1801 1.42524,-0.57516 0.0521,-0.27361 -0.0658,-0.59912 -0.262,-0.72347 -0.2077,-0.13163 -0.66919,-0.20816 -1.15445,-0.22273 z" />
  </g>
</svg>
