<?xml version="1.0" encoding="UTF-8" standalone="no"?>
<!-- Created with Inkscape (http://www.inkscape.org/) -->

<svg
   width="48.074776mm"
   height="39.081741mm"
   viewBox="0 0 48.074776 39.081741"
   version="1.1"
   id="svg1"
   sodipodi:docname="tree_ic_21.svg"
   inkscape:version="1.4 (86a8ad7, 2024-10-11)"
   xmlns:inkscape="http://www.inkscape.org/namespaces/inkscape"
   xmlns:sodipodi="http://sodipodi.sourceforge.net/DTD/sodipodi-0.dtd"
   xmlns="http://www.w3.org/2000/svg"
   xmlns:svg="http://www.w3.org/2000/svg">
  <sodipodi:namedview
     id="namedview1"
     pagecolor="#505050"
     bordercolor="#ffffff"
     borderopacity="1"
     inkscape:showpageshadow="0"
     inkscape:pageopacity="0"
     inkscape:pagecheckerboard="1"
     inkscape:deskcolor="#505050"
     inkscape:document-units="mm"
     inkscape:zoom="0.71891835"
     inkscape:cx="297.66941"
     inkscape:cy="169.00389"
     inkscape:window-width="1920"
     inkscape:window-height="1009"
     inkscape:window-x="1912"
     inkscape:window-y="-8"
     inkscape:window-maximized="1"
     inkscape:current-layer="layer1" />
  <defs
     id="defs1" />
  <g
     inkscape:label="Ebene 1"
     inkscape:groupmode="layer"
     id="layer1"
     transform="translate(-84.455693,-109.94728)">
    <path
       id="path2-5"
       style="fill:#000000;stroke-width:0.832177"
       d="m 127.55974,113.41778 c -0.19565,-0.19566 -4.51346,0.32939 -20.28194,2.4667 -5.37205,0.72815 -11.594539,1.56539 -13.827909,1.86078 -2.23338,0.2954 -4.15436,0.59532 -4.269,0.66614 -0.23899,0.14767 -0.26844,1.36167 -0.0633,2.60388 l 0.1402,0.84976 1.29055,-0.0933 1.29011,-0.0933 -0.0567,11.35347 -0.0572,11.35346 -1.1009,0.068 c -1.26934,0.0787 -1.62529,0.31345 -1.21874,0.80331 0.24994,0.30116 2.40693,0.33973 19.053329,0.33973 16.64639,0 18.80338,-0.0386 19.05332,-0.33973 0.40655,-0.48986 0.0506,-0.72459 -1.21874,-0.80331 l -1.1009,-0.068 0.043,-11.009 c 0.0237,-6.05495 0.0484,-12.17122 0.0551,-13.59182 0.0133,-2.89275 -0.17553,-2.59562 1.85905,-2.9247 l 0.85621,-0.13847 -0.13073,-1.55975 c -0.0719,-0.8578 -0.21337,-1.6424 -0.31479,-1.74381 z m -1.2355,1.13315 c 0.43013,0 0.51906,0.11334 0.51906,0.66054 0,0.3633 -0.0808,0.66054 -0.17933,0.66054 -0.0985,0 -1.26273,0.14412 -2.58712,0.32038 -1.32439,0.17627 -4.29032,0.57028 -6.5912,0.87556 -3.97828,0.52782 -6.32443,0.84642 -11.55946,1.56964 -1.27155,0.17566 -5.24657,0.71524 -8.833439,1.19895 -3.58687,0.48372 -6.56772,0.87944 -6.62389,0.87944 -0.23516,0 -0.39564,-0.32608 -0.39564,-0.80332 0,-0.59389 -0.0275,-0.58589 3.63297,-1.06564 1.45319,-0.19045 9.270039,-1.23509 17.370579,-2.32135 8.10053,-1.08627 14.9619,-1.97474 15.24747,-1.97474 z m -2.34328,2.80515 v 13.56988 13.56947 h -1.39462 c -0.76696,0 -1.46054,-0.0663 -1.54126,-0.14708 -0.20874,-0.20871 -0.18281,-26.44638 0.0262,-26.57557 0.095,-0.0588 0.7886,-0.1763 1.54125,-0.26146 z m -3.29927,0.46186 -0.0567,13.28391 -0.0567,13.28348 -1.21959,0.0645 c -0.67086,0.0355 -1.29011,-0.006 -1.37612,-0.0916 -0.086,-0.086 -0.15654,-0.78727 -0.15654,-1.55803 0,-1.04256 0.0846,-1.43364 0.33027,-1.52793 0.18166,-0.0697 0.33027,-0.30363 0.33027,-0.51992 0,-0.21629 -0.14861,-0.45018 -0.33027,-0.51992 -0.27867,-0.10692 -0.33027,-0.82952 -0.33027,-4.62378 0,-3.79425 0.0516,-4.51684 0.33027,-4.62378 0.18166,-0.0697 0.33027,-0.26629 0.33027,-0.43691 0,-0.17063 -0.14861,-0.43368 -0.33027,-0.58443 -0.24821,-0.20598 -0.33027,-0.76002 -0.33027,-2.22889 0,-1.15633 -0.0899,-1.95453 -0.22018,-1.95453 -0.25824,0 -0.31224,-7.40673 -0.055,-7.55622 0.0908,-0.0528 0.83471,-0.16553 1.65308,-0.25072 z m -3.52632,0.42531 v 3.65834 l -4.2e-4,3.65835 h -1.65136 -1.65135 l 0.003,-2.91739 c 0.004,-4.13547 -0.0718,-3.97799 2.0543,-4.24363 z m -3.52288,0.46401 v 3.42612 3.42656 h -1.54126 -1.54126 v -3.18831 c 0,-3.60711 -0.21376,-3.23712 2.03667,-3.52891 z m -3.52288,0.46229 v 3.19519 3.1952 h -1.65135 -1.65135 v -2.96254 -2.96255 l 0.71558,-0.10836 c 0.39357,-0.0597 1.13669,-0.16476 1.65136,-0.23309 z m -3.52288,0.60206 v 2.89416 2.89417 h -1.54814 c -1.20963,0 -1.57731,-0.0762 -1.68189,-0.34877 -0.14508,-0.37807 0.0365,-4.89803 0.20341,-5.065 0.056,-0.056 0.75967,-0.16309 1.56406,-0.23824 z m -3.52289,0.4524 v 2.66796 2.66797 h -1.54125 c -1.527659,0 -1.541269,-0.005 -1.569649,-0.6055 -0.0322,-0.68249 0.0562,-4.33067 0.106219,-4.3821 0.0178,-0.0183 0.70104,-0.1039 1.51847,-0.19051 z m -3.522879,0.4567 v 2.5368 c 0,1.45356 -0.094,2.59472 -0.22018,2.67269 -0.1211,0.0748 -0.22018,0.96007 -0.22018,1.96743 0,1.35947 -0.0851,1.90246 -0.33027,2.10591 -0.18165,0.15075 -0.33027,0.4138 -0.33027,0.58442 0,0.17062 0.14862,0.36718 0.33027,0.43692 0.27851,0.10688 0.33027,0.82566 0.33027,4.58981 0,3.69866 -0.0566,4.51016 -0.33027,4.73731 -0.42632,0.35383 -0.42128,0.8079 0.0117,1.05015 0.2649,0.14825 0.32682,0.50431 0.27522,1.58341 l -0.0666,1.39247 -1.21831,0.0894 c -0.67016,0.0492 -1.28942,0.0187 -1.37612,-0.0679 -0.21092,-0.21091 -0.20371,-23.15064 0.007,-23.27329 0.0908,-0.0528 0.83393,-0.16561 1.65135,-0.25071 z m -3.51901,0.43176 -0.0568,11.63643 -0.0572,11.63643 -1.33011,0.0641 c -0.73156,0.0354 -1.40036,-0.006 -1.48622,-0.0916 -0.20985,-0.20989 -0.20098,-22.70869 0.009,-22.83337 0.0908,-0.0539 0.78546,-0.16866 1.54341,-0.25501 z m 4.179559,5.76855 h 3.85314 3.85316 v 8.69711 8.69711 h -0.7401 c -0.40695,0 -1.17482,0.0337 -1.70639,0.0748 -0.53157,0.0409 -1.9368,0.037 -3.12295,-0.009 l -2.15665,-0.0825 0.0649,-1.47589 c 0.0561,-1.27575 0.12464,-1.4866 0.50529,-1.55459 0.2422,-0.0433 0.53042,-0.16371 0.64034,-0.26792 0.27706,-0.26269 -0.2654,-0.86868 -0.77751,-0.86868 -0.39093,0 -0.41327,-0.24491 -0.41327,-4.51369 0,-4.26878 0.0223,-4.51369 0.41327,-4.51369 0.22737,0 0.53687,-0.14862 0.68763,-0.33027 0.34294,-0.41322 -0.0579,-0.99081 -0.68763,-0.99081 -0.36197,0 -0.41327,-0.1779 -0.41327,-1.43117 z m 8.8072,0 h 3.85315 3.85316 v 1.42686 c 0,1.34647 -0.0315,1.43521 -0.56206,1.56836 -0.72505,0.18197 -0.6751,1.04329 0.0667,1.14863 0.49523,0.0703 0.49541,0.0718 0.49541,4.55326 0,4.48144 -1.8e-4,4.48337 -0.49541,4.55368 -0.74882,0.10636 -0.80114,1.00363 -0.0692,1.18734 0.53253,0.13365 0.56464,0.22201 0.56464,1.549 v 1.40709 l -1.26604,8.3e-4 c -0.69632,5.6e-4 -2.35592,0.0622 -3.68801,0.13675 -1.33209,0.0746 -2.49629,0.0574 -2.58711,-0.0379 -0.0908,-0.0953 -0.16514,-4.0702 -0.16514,-8.83343 z m 1.55072,7.76694 c -0.29527,-0.0325 -0.44982,0.36616 -0.44982,1.17873 0,0.90396 0.0444,0.98651 0.49541,0.92243 0.39307,-0.0558 0.50911,-0.23325 0.56162,-0.85964 0.0421,-0.5023 -0.0547,-0.88961 -0.26576,-1.06478 -0.12923,-0.10726 -0.24302,-0.16592 -0.34145,-0.17674 z m -4.13783,0.20039 c -0.39691,0.0756 -0.62292,0.85092 -0.40983,1.40623 0.0663,0.17284 0.27254,0.31436 0.45799,0.31436 0.2476,0 0.33715,-0.23848 0.33715,-0.89707 0,-0.73534 -0.0694,-0.88377 -0.38531,-0.82352 z" />
  </g>
</svg>
